G04 #@! TF.GenerationSoftware,KiCad,Pcbnew,(5.1.6)-1*
G04 #@! TF.CreationDate,2020-09-11T21:59:46+04:00*
G04 #@! TF.ProjectId,Triple-five,54726970-6c65-42d6-9669-76652e6b6963,rev?*
G04 #@! TF.SameCoordinates,Original*
G04 #@! TF.FileFunction,Copper,L2,Bot*
G04 #@! TF.FilePolarity,Positive*
%FSLAX46Y46*%
G04 Gerber Fmt 4.6, Leading zero omitted, Abs format (unit mm)*
G04 Created by KiCad (PCBNEW (5.1.6)-1) date 2020-09-11 21:59:46*
%MOMM*%
%LPD*%
G01*
G04 APERTURE LIST*
G04 #@! TA.AperFunction,NonConductor*
%ADD10C,0.100000*%
G04 #@! TD*
G04 #@! TA.AperFunction,Profile*
%ADD11C,0.050000*%
G04 #@! TD*
G04 #@! TA.AperFunction,ComponentPad*
%ADD12R,1.050000X1.500000*%
G04 #@! TD*
G04 #@! TA.AperFunction,ComponentPad*
%ADD13O,1.050000X1.500000*%
G04 #@! TD*
G04 #@! TA.AperFunction,ComponentPad*
%ADD14O,1.500000X1.050000*%
G04 #@! TD*
G04 #@! TA.AperFunction,ComponentPad*
%ADD15R,1.500000X1.050000*%
G04 #@! TD*
G04 #@! TA.AperFunction,ComponentPad*
%ADD16O,1.600000X1.600000*%
G04 #@! TD*
G04 #@! TA.AperFunction,ComponentPad*
%ADD17C,1.600000*%
G04 #@! TD*
G04 #@! TA.AperFunction,ViaPad*
%ADD18C,0.800000*%
G04 #@! TD*
G04 #@! TA.AperFunction,ViaPad*
%ADD19C,5.000000*%
G04 #@! TD*
G04 #@! TA.AperFunction,Conductor*
%ADD20C,0.500000*%
G04 #@! TD*
G04 #@! TA.AperFunction,NonConductor*
%ADD21C,0.254000*%
G04 #@! TD*
G04 APERTURE END LIST*
D10*
G36*
X160000000Y-58250000D02*
G01*
X146000000Y-58250000D01*
X146000000Y-44250000D01*
X160000000Y-44250000D01*
X160000000Y-58250000D01*
G37*
X160000000Y-58250000D02*
X146000000Y-58250000D01*
X146000000Y-44250000D01*
X160000000Y-44250000D01*
X160000000Y-58250000D01*
G36*
X185000000Y-58250000D02*
G01*
X171000000Y-58250000D01*
X171000000Y-44250000D01*
X185000000Y-44250000D01*
X185000000Y-58250000D01*
G37*
X185000000Y-58250000D02*
X171000000Y-58250000D01*
X171000000Y-44250000D01*
X185000000Y-44250000D01*
X185000000Y-58250000D01*
G36*
X210000000Y-58250000D02*
G01*
X196000000Y-58250000D01*
X196000000Y-44250000D01*
X210000000Y-44250000D01*
X210000000Y-58250000D01*
G37*
X210000000Y-58250000D02*
X196000000Y-58250000D01*
X196000000Y-44250000D01*
X210000000Y-44250000D01*
X210000000Y-58250000D01*
G36*
X135000000Y-142250000D02*
G01*
X121000000Y-142250000D01*
X121000000Y-128250000D01*
X135000000Y-128250000D01*
X135000000Y-142250000D01*
G37*
X135000000Y-142250000D02*
X121000000Y-142250000D01*
X121000000Y-128250000D01*
X135000000Y-128250000D01*
X135000000Y-142250000D01*
G36*
X135000000Y-58250000D02*
G01*
X121000000Y-58250000D01*
X121000000Y-44250000D01*
X135000000Y-44250000D01*
X135000000Y-58250000D01*
G37*
X135000000Y-58250000D02*
X121000000Y-58250000D01*
X121000000Y-44250000D01*
X135000000Y-44250000D01*
X135000000Y-58250000D01*
G36*
X210000000Y-142250000D02*
G01*
X196000000Y-142250000D01*
X196000000Y-128250000D01*
X210000000Y-128250000D01*
X210000000Y-142250000D01*
G37*
X210000000Y-142250000D02*
X196000000Y-142250000D01*
X196000000Y-128250000D01*
X210000000Y-128250000D01*
X210000000Y-142250000D01*
G36*
X160000000Y-142250000D02*
G01*
X146000000Y-142250000D01*
X146000000Y-128250000D01*
X160000000Y-128250000D01*
X160000000Y-142250000D01*
G37*
X160000000Y-142250000D02*
X146000000Y-142250000D01*
X146000000Y-128250000D01*
X160000000Y-128250000D01*
X160000000Y-142250000D01*
G36*
X185000000Y-142250000D02*
G01*
X171000000Y-142250000D01*
X171000000Y-128250000D01*
X185000000Y-128250000D01*
X185000000Y-142250000D01*
G37*
X185000000Y-142250000D02*
X171000000Y-142250000D01*
X171000000Y-128250000D01*
X185000000Y-128250000D01*
X185000000Y-142250000D01*
D11*
X115500000Y-128250000D02*
X115500000Y-58250000D01*
X120500000Y-128250000D02*
X115500000Y-128250000D01*
X120500000Y-142750000D02*
X120500000Y-128250000D01*
X135500000Y-142750000D02*
X120500000Y-142750000D01*
X135500000Y-128250000D02*
X135500000Y-142750000D01*
X145500000Y-128250000D02*
X135500000Y-128250000D01*
X145500000Y-142750000D02*
X145500000Y-128250000D01*
X160500000Y-142750000D02*
X145500000Y-142750000D01*
X160500000Y-128250000D02*
X160500000Y-142750000D01*
X170500000Y-128250000D02*
X160500000Y-128250000D01*
X170500000Y-142750000D02*
X170500000Y-128250000D01*
X185500000Y-142750000D02*
X170500000Y-142750000D01*
X185500000Y-128250000D02*
X185500000Y-142750000D01*
X195500000Y-128250000D02*
X185500000Y-128250000D01*
X195500000Y-142750000D02*
X195500000Y-128250000D01*
X210500000Y-142750000D02*
X195500000Y-142750000D01*
X210500000Y-128250000D02*
X210500000Y-142750000D01*
X215500000Y-128250000D02*
X210500000Y-128250000D01*
X215500000Y-58250000D02*
X215500000Y-128250000D01*
X210500000Y-58250000D02*
X215500000Y-58250000D01*
X210500000Y-43750000D02*
X210500000Y-58250000D01*
X195500000Y-43750000D02*
X210500000Y-43750000D01*
X195500000Y-58250000D02*
X195500000Y-43750000D01*
X185500000Y-58250000D02*
X195500000Y-58250000D01*
X185500000Y-43750000D02*
X185500000Y-58250000D01*
X170500000Y-43750000D02*
X185500000Y-43750000D01*
X170500000Y-58250000D02*
X170500000Y-43750000D01*
X160500000Y-58250000D02*
X170500000Y-58250000D01*
X160500000Y-43750000D02*
X160500000Y-58250000D01*
X145500000Y-43750000D02*
X160500000Y-43750000D01*
X145500000Y-58250000D02*
X145500000Y-43750000D01*
X135500000Y-58250000D02*
X145500000Y-58250000D01*
X135500000Y-43750000D02*
X135500000Y-58250000D01*
X120500000Y-43750000D02*
X135500000Y-43750000D01*
X120500000Y-58250000D02*
X120500000Y-43750000D01*
X115500000Y-58250000D02*
X120500000Y-58250000D01*
D12*
G04 #@! TO.P,Q26,1*
G04 #@! TO.N,N/C*
X174100000Y-112050000D03*
D13*
G04 #@! TO.P,Q26,3*
X176640000Y-112050000D03*
G04 #@! TO.P,Q26,2*
X175370000Y-112050000D03*
G04 #@! TD*
G04 #@! TO.P,Q19,2*
G04 #@! TO.N,N/C*
X179670000Y-79650000D03*
G04 #@! TO.P,Q19,3*
X180940000Y-79650000D03*
D12*
G04 #@! TO.P,Q19,1*
X178400000Y-79650000D03*
G04 #@! TD*
D13*
G04 #@! TO.P,Q10,2*
G04 #@! TO.N,N/C*
X132020000Y-66350000D03*
G04 #@! TO.P,Q10,3*
X133290000Y-66350000D03*
D12*
G04 #@! TO.P,Q10,1*
X130750000Y-66350000D03*
G04 #@! TD*
D13*
G04 #@! TO.P,Q15,2*
G04 #@! TO.N,N/C*
X179591600Y-66547400D03*
G04 #@! TO.P,Q15,3*
X180861600Y-66547400D03*
D12*
G04 #@! TO.P,Q15,1*
X178321600Y-66547400D03*
G04 #@! TD*
D14*
G04 #@! TO.P,Q8,2*
G04 #@! TO.N,N/C*
X125150000Y-121270000D03*
G04 #@! TO.P,Q8,3*
X125150000Y-122540000D03*
D15*
G04 #@! TO.P,Q8,1*
X125150000Y-120000000D03*
G04 #@! TD*
D12*
G04 #@! TO.P,Q14,1*
G04 #@! TO.N,N/C*
X186110000Y-73100000D03*
D13*
G04 #@! TO.P,Q14,3*
X188650000Y-73100000D03*
G04 #@! TO.P,Q14,2*
X187380000Y-73100000D03*
G04 #@! TD*
D12*
G04 #@! TO.P,Q11,1*
G04 #@! TO.N,N/C*
X137350000Y-74200000D03*
D13*
G04 #@! TO.P,Q11,3*
X139890000Y-74200000D03*
G04 #@! TO.P,Q11,2*
X138620000Y-74200000D03*
G04 #@! TD*
D15*
G04 #@! TO.P,Q17,1*
G04 #@! TO.N,N/C*
X194850000Y-80200000D03*
D14*
G04 #@! TO.P,Q17,3*
X194850000Y-77660000D03*
G04 #@! TO.P,Q17,2*
X194850000Y-78930000D03*
G04 #@! TD*
D12*
G04 #@! TO.P,Q23,1*
G04 #@! TO.N,N/C*
X167700000Y-112050000D03*
D13*
G04 #@! TO.P,Q23,3*
X170240000Y-112050000D03*
G04 #@! TO.P,Q23,2*
X168970000Y-112050000D03*
G04 #@! TD*
D12*
G04 #@! TO.P,Q12,1*
G04 #@! TO.N,N/C*
X130750000Y-74200000D03*
D13*
G04 #@! TO.P,Q12,3*
X133290000Y-74200000D03*
G04 #@! TO.P,Q12,2*
X132020000Y-74200000D03*
G04 #@! TD*
D12*
G04 #@! TO.P,Q20,1*
G04 #@! TO.N,N/C*
X178350000Y-86250000D03*
D13*
G04 #@! TO.P,Q20,3*
X180890000Y-86250000D03*
G04 #@! TO.P,Q20,2*
X179620000Y-86250000D03*
G04 #@! TD*
G04 #@! TO.P,Q13,2*
G04 #@! TO.N,N/C*
X125320000Y-74200000D03*
G04 #@! TO.P,Q13,3*
X126590000Y-74200000D03*
D12*
G04 #@! TO.P,Q13,1*
X124050000Y-74200000D03*
G04 #@! TD*
G04 #@! TO.P,Q9,1*
G04 #@! TO.N,N/C*
X124010000Y-66350000D03*
D13*
G04 #@! TO.P,Q9,3*
X126550000Y-66350000D03*
G04 #@! TO.P,Q9,2*
X125280000Y-66350000D03*
G04 #@! TD*
G04 #@! TO.P,Q18,2*
G04 #@! TO.N,N/C*
X187420000Y-79650000D03*
G04 #@! TO.P,Q18,3*
X188690000Y-79650000D03*
D12*
G04 #@! TO.P,Q18,1*
X186150000Y-79650000D03*
G04 #@! TD*
D13*
G04 #@! TO.P,Q16,2*
G04 #@! TO.N,N/C*
X179620000Y-73100000D03*
G04 #@! TO.P,Q16,3*
X180890000Y-73100000D03*
D12*
G04 #@! TO.P,Q16,1*
X178350000Y-73100000D03*
G04 #@! TD*
D13*
G04 #@! TO.P,Q7,2*
G04 #@! TO.N,N/C*
X139880000Y-106350000D03*
G04 #@! TO.P,Q7,3*
X138610000Y-106350000D03*
D12*
G04 #@! TO.P,Q7,1*
X141150000Y-106350000D03*
G04 #@! TD*
D15*
G04 #@! TO.P,Q6,1*
G04 #@! TO.N,N/C*
X131550000Y-120000000D03*
D14*
G04 #@! TO.P,Q6,3*
X131550000Y-122540000D03*
G04 #@! TO.P,Q6,2*
X131550000Y-121270000D03*
G04 #@! TD*
D12*
G04 #@! TO.P,Q5,1*
G04 #@! TO.N,N/C*
X138630000Y-101550000D03*
D13*
G04 #@! TO.P,Q5,3*
X141170000Y-101550000D03*
G04 #@! TO.P,Q5,2*
X139900000Y-101550000D03*
G04 #@! TD*
G04 #@! TO.P,Q4,2*
G04 #@! TO.N,N/C*
X127230000Y-106300000D03*
G04 #@! TO.P,Q4,3*
X125960000Y-106300000D03*
D12*
G04 #@! TO.P,Q4,1*
X128500000Y-106300000D03*
G04 #@! TD*
D14*
G04 #@! TO.P,Q3,2*
G04 #@! TO.N,N/C*
X138050000Y-121320000D03*
G04 #@! TO.P,Q3,3*
X138050000Y-122590000D03*
D15*
G04 #@! TO.P,Q3,1*
X138050000Y-120050000D03*
G04 #@! TD*
D14*
G04 #@! TO.P,Q1,2*
G04 #@! TO.N,N/C*
X144450000Y-121320000D03*
G04 #@! TO.P,Q1,3*
X144450000Y-122590000D03*
D15*
G04 #@! TO.P,Q1,1*
X144450000Y-120050000D03*
G04 #@! TD*
D16*
G04 #@! TO.P,R2,2*
G04 #@! TO.N,N/C*
X133700000Y-100940000D03*
D17*
G04 #@! TO.P,R2,1*
X133700000Y-111100000D03*
G04 #@! TD*
D16*
G04 #@! TO.P,R5,2*
G04 #@! TO.N,N/C*
X127250000Y-89360000D03*
D17*
G04 #@! TO.P,R5,1*
X127250000Y-79200000D03*
G04 #@! TD*
D16*
G04 #@! TO.P,R6,2*
G04 #@! TO.N,N/C*
X124099200Y-79188200D03*
D17*
G04 #@! TO.P,R6,1*
X124099200Y-89348200D03*
G04 #@! TD*
D16*
G04 #@! TO.P,R10,2*
G04 #@! TO.N,N/C*
X194800000Y-73910000D03*
D17*
G04 #@! TO.P,R10,1*
X194800000Y-63750000D03*
G04 #@! TD*
D16*
G04 #@! TO.P,R13,2*
G04 #@! TO.N,N/C*
X188560000Y-91600000D03*
D17*
G04 #@! TO.P,R13,1*
X178400000Y-91600000D03*
G04 #@! TD*
D16*
G04 #@! TO.P,R17,2*
G04 #@! TO.N,N/C*
X163000000Y-104190000D03*
D17*
G04 #@! TO.P,R17,1*
X163000000Y-114350000D03*
G04 #@! TD*
D12*
G04 #@! TO.P,Q21,1*
G04 #@! TO.N,N/C*
X200350000Y-107350000D03*
D13*
G04 #@! TO.P,Q21,3*
X202890000Y-107350000D03*
G04 #@! TO.P,Q21,2*
X201620000Y-107350000D03*
G04 #@! TD*
G04 #@! TO.P,Q24,2*
G04 #@! TO.N,N/C*
X201700000Y-114200000D03*
G04 #@! TO.P,Q24,3*
X202970000Y-114200000D03*
D12*
G04 #@! TO.P,Q24,1*
X200430000Y-114200000D03*
G04 #@! TD*
G04 #@! TO.P,Q25,1*
G04 #@! TO.N,N/C*
X203000000Y-119600000D03*
D13*
G04 #@! TO.P,Q25,3*
X200460000Y-119600000D03*
G04 #@! TO.P,Q25,2*
X201730000Y-119600000D03*
G04 #@! TD*
D16*
G04 #@! TO.P,R4,2*
G04 #@! TO.N,N/C*
X145800000Y-111010000D03*
D17*
G04 #@! TO.P,R4,1*
X145800000Y-100850000D03*
G04 #@! TD*
D16*
G04 #@! TO.P,R7,2*
G04 #@! TO.N,N/C*
X137000000Y-89360000D03*
D17*
G04 #@! TO.P,R7,1*
X137000000Y-79200000D03*
G04 #@! TD*
D16*
G04 #@! TO.P,R9,2*
G04 #@! TO.N,N/C*
X143500000Y-79190000D03*
D17*
G04 #@! TO.P,R9,1*
X143500000Y-89350000D03*
G04 #@! TD*
D13*
G04 #@! TO.P,Q22,2*
G04 #@! TO.N,N/C*
X201630000Y-99700000D03*
G04 #@! TO.P,Q22,3*
X200360000Y-99700000D03*
D12*
G04 #@! TO.P,Q22,1*
X202900000Y-99700000D03*
G04 #@! TD*
D16*
G04 #@! TO.P,R12,2*
G04 #@! TO.N,N/C*
X200800000Y-86060000D03*
D17*
G04 #@! TO.P,R12,1*
X200800000Y-75900000D03*
G04 #@! TD*
D12*
G04 #@! TO.P,Q2,1*
G04 #@! TO.N,N/C*
X125983400Y-101451600D03*
D13*
G04 #@! TO.P,Q2,3*
X128523400Y-101451600D03*
G04 #@! TO.P,Q2,2*
X127253400Y-101451600D03*
G04 #@! TD*
D17*
G04 #@! TO.P,R1,1*
G04 #@! TO.N,N/C*
X122000000Y-111100000D03*
D16*
G04 #@! TO.P,R1,2*
X122000000Y-100940000D03*
G04 #@! TD*
G04 #@! TO.P,R3,2*
G04 #@! TO.N,N/C*
X144760000Y-115250000D03*
D17*
G04 #@! TO.P,R3,1*
X134600000Y-115250000D03*
G04 #@! TD*
D16*
G04 #@! TO.P,R8,2*
G04 #@! TO.N,N/C*
X133800000Y-79190000D03*
D17*
G04 #@! TO.P,R8,1*
X133800000Y-89350000D03*
G04 #@! TD*
D16*
G04 #@! TO.P,R11,2*
G04 #@! TO.N,N/C*
X196360000Y-85450000D03*
D17*
G04 #@! TO.P,R11,1*
X186200000Y-85450000D03*
G04 #@! TD*
D16*
G04 #@! TO.P,R14,2*
G04 #@! TO.N,N/C*
X177160000Y-104600000D03*
D17*
G04 #@! TO.P,R14,1*
X167000000Y-104600000D03*
G04 #@! TD*
D16*
G04 #@! TO.P,R15,2*
G04 #@! TO.N,N/C*
X207300000Y-121460000D03*
D17*
G04 #@! TO.P,R15,1*
X207300000Y-111300000D03*
G04 #@! TD*
D16*
G04 #@! TO.P,R16,2*
G04 #@! TO.N,N/C*
X195400000Y-121310000D03*
D17*
G04 #@! TO.P,R16,1*
X195400000Y-111150000D03*
G04 #@! TD*
D18*
G04 #@! TO.N,*
X138300000Y-93650000D03*
X141900000Y-112550000D03*
X136100000Y-104550000D03*
D19*
X178000000Y-135250000D03*
X153000000Y-135250000D03*
X128000000Y-135250000D03*
X178000000Y-51250000D03*
X203000000Y-135250000D03*
X203000000Y-51250000D03*
D18*
X144150000Y-65550000D03*
D19*
X128000000Y-51250000D03*
D18*
X140550000Y-63700000D03*
D19*
X153000000Y-51250000D03*
G04 #@! TD*
D20*
G04 #@! TO.N,*
X175000000Y-55785533D02*
X175000000Y-51250000D01*
X150000000Y-55785533D02*
X150000000Y-51250000D01*
X127230000Y-107550000D02*
X127230000Y-106300000D01*
X136800000Y-122590000D02*
X127230000Y-113020000D01*
X138050000Y-122590000D02*
X136800000Y-122590000D01*
X127230000Y-113020000D02*
X127230000Y-107550000D01*
X147400000Y-93650000D02*
X138300000Y-93650000D01*
X187420000Y-79650000D02*
X187420000Y-80900000D01*
X156000001Y-85049999D02*
X147400000Y-93650000D01*
X145400000Y-93650000D02*
X138300000Y-93650000D01*
X183270001Y-85049999D02*
X156000001Y-85049999D01*
X187420000Y-80900000D02*
X183270001Y-85049999D01*
X132800000Y-122540000D02*
X135110000Y-124850000D01*
X131550000Y-122540000D02*
X132800000Y-122540000D01*
X135110000Y-124850000D02*
X139700000Y-124850000D01*
X139700000Y-124850000D02*
X141700000Y-122850000D01*
X141700000Y-112750000D02*
X141900000Y-112550000D01*
X141900000Y-112550000D02*
X141900000Y-112550000D01*
X141700000Y-122850000D02*
X141700000Y-112750000D01*
X126337400Y-76950000D02*
X124899199Y-78388201D01*
X137000000Y-79200000D02*
X134750000Y-76950000D01*
X134750000Y-76950000D02*
X126337400Y-76950000D01*
X124899199Y-78388201D02*
X124099200Y-79188200D01*
X184800000Y-82250000D02*
X186150000Y-80900000D01*
X179750000Y-82250000D02*
X184800000Y-82250000D01*
X188560000Y-113260000D02*
X188560000Y-92731370D01*
X178400000Y-79650000D02*
X178400000Y-80900000D01*
X136100000Y-104550000D02*
X136100000Y-90260000D01*
X191750000Y-116450000D02*
X188560000Y-113260000D01*
X203000000Y-119600000D02*
X203000000Y-119266128D01*
X174100000Y-113300000D02*
X177250000Y-116450000D01*
X174100000Y-112050000D02*
X174100000Y-113300000D01*
X200183872Y-116450000D02*
X191750000Y-116450000D01*
X169075001Y-116049999D02*
X145559999Y-116049999D01*
X173075000Y-112050000D02*
X169075001Y-116049999D01*
X178400000Y-80900000D02*
X179750000Y-82250000D01*
X186150000Y-80900000D02*
X186150000Y-79650000D01*
X136100000Y-90260000D02*
X137000000Y-89360000D01*
X203000000Y-119266128D02*
X200183872Y-116450000D01*
X145559999Y-116049999D02*
X144760000Y-115250000D01*
X188560000Y-92731370D02*
X188560000Y-91600000D01*
X177250000Y-116450000D02*
X191750000Y-116450000D01*
X174100000Y-112050000D02*
X173075000Y-112050000D01*
X139890000Y-74533872D02*
X138373872Y-76050000D01*
X130750000Y-75450000D02*
X130750000Y-74200000D01*
X131350000Y-76050000D02*
X130750000Y-75450000D01*
X139890000Y-74200000D02*
X139890000Y-74533872D01*
X138373872Y-76050000D02*
X131350000Y-76050000D01*
X135590000Y-69900000D02*
X133290000Y-67600000D01*
X184995002Y-69900000D02*
X135590000Y-69900000D01*
X187380000Y-72284998D02*
X184995002Y-69900000D01*
X187380000Y-73100000D02*
X187380000Y-72284998D01*
X133290000Y-67600000D02*
X133290000Y-66350000D01*
X178585002Y-71250000D02*
X140320000Y-71250000D01*
X179620000Y-72284998D02*
X178585002Y-71250000D01*
X138620000Y-72950000D02*
X138620000Y-74200000D01*
X140320000Y-71250000D02*
X138620000Y-72950000D01*
X179620000Y-73100000D02*
X179620000Y-72284998D01*
X124050000Y-73866128D02*
X124050000Y-74200000D01*
X132020000Y-73384998D02*
X130035002Y-71400000D01*
X126516128Y-71400000D02*
X124050000Y-73866128D01*
X132020000Y-74200000D02*
X132020000Y-73384998D01*
X130035002Y-71400000D02*
X126516128Y-71400000D01*
X188690000Y-79650000D02*
X188690000Y-78878064D01*
X179670000Y-78080000D02*
X179670000Y-79650000D01*
X180500000Y-77250000D02*
X179670000Y-78080000D01*
X187061936Y-77250000D02*
X180500000Y-77250000D01*
X188690000Y-78878064D02*
X187061936Y-77250000D01*
X180890000Y-87500000D02*
X180890000Y-86250000D01*
X198310000Y-88550000D02*
X181940000Y-88550000D01*
X200800000Y-86060000D02*
X198310000Y-88550000D01*
X181940000Y-88550000D02*
X180890000Y-87500000D01*
X178400000Y-91600000D02*
X178400000Y-93200000D01*
X200600000Y-111300000D02*
X192550000Y-103250000D01*
X191150000Y-90000000D02*
X180850000Y-90000000D01*
X207300000Y-111300000D02*
X200600000Y-111300000D01*
X192550000Y-91400000D02*
X191150000Y-90000000D01*
X178400000Y-93200000D02*
X167000000Y-104600000D01*
X192550000Y-103250000D02*
X192550000Y-91400000D01*
X178350000Y-87500000D02*
X178350000Y-86250000D01*
X180850000Y-90000000D02*
X178350000Y-87500000D01*
X196500000Y-112250000D02*
X195400000Y-111150000D01*
X201700000Y-113300000D02*
X200650000Y-112250000D01*
X201700000Y-114200000D02*
X201700000Y-113300000D01*
X200650000Y-112250000D02*
X196500000Y-112250000D01*
X127250000Y-79200000D02*
X128490001Y-80440001D01*
X129400000Y-85700000D02*
X139850000Y-85700000D01*
X128490001Y-80440001D02*
X128490001Y-84790001D01*
X200800000Y-75900000D02*
X179500000Y-75900000D01*
X145800000Y-105950000D02*
X140650000Y-111100000D01*
X142700001Y-88550001D02*
X143500000Y-89350000D01*
X128490001Y-84790001D02*
X129400000Y-85700000D01*
X205499999Y-116954999D02*
X205499999Y-133250001D01*
X157100000Y-75750000D02*
X143500000Y-89350000D01*
X145800000Y-100850000D02*
X145800000Y-105950000D01*
X179500000Y-75900000D02*
X178350000Y-74750000D01*
X175700000Y-75750000D02*
X157100000Y-75750000D01*
X205499999Y-133250001D02*
X203000000Y-135750000D01*
X202970000Y-114200000D02*
X202970000Y-114425000D01*
X202970000Y-114425000D02*
X205499999Y-116954999D01*
X178350000Y-73100000D02*
X175700000Y-75750000D01*
X139850000Y-85700000D02*
X142700001Y-88550001D01*
X178350000Y-74750000D02*
X178350000Y-73100000D01*
X140650000Y-111100000D02*
X133700000Y-111100000D01*
X203000000Y-55785533D02*
X203000000Y-51250000D01*
X139300000Y-65550000D02*
X128000000Y-54250000D01*
X128000000Y-54250000D02*
X128000000Y-51250000D01*
X144150000Y-65550000D02*
X139300000Y-65550000D01*
X143585533Y-63700000D02*
X141115685Y-63700000D01*
X141115685Y-63700000D02*
X140550000Y-63700000D01*
X153000000Y-54285533D02*
X152017766Y-55267766D01*
X152017766Y-55267766D02*
X143585533Y-63700000D01*
X153000000Y-54285532D02*
X152017766Y-55267766D01*
X153000000Y-51250000D02*
X153000000Y-54285532D01*
G04 #@! TD*
D21*
G36*
X138643470Y-66145049D02*
G01*
X138671183Y-66178817D01*
X138704951Y-66206530D01*
X138704953Y-66206532D01*
X138776452Y-66265210D01*
X138805941Y-66289411D01*
X138959687Y-66371589D01*
X139126510Y-66422195D01*
X139256523Y-66435000D01*
X139256533Y-66435000D01*
X139299999Y-66439281D01*
X139343465Y-66435000D01*
X143611546Y-66435000D01*
X143659744Y-66467205D01*
X143848102Y-66545226D01*
X144048061Y-66585000D01*
X144251939Y-66585000D01*
X144451898Y-66545226D01*
X144640256Y-66467205D01*
X144809774Y-66353937D01*
X144953937Y-66209774D01*
X145067205Y-66040256D01*
X145145226Y-65851898D01*
X145156066Y-65797400D01*
X177158528Y-65797400D01*
X177158528Y-67297400D01*
X177170788Y-67421882D01*
X177207098Y-67541580D01*
X177266063Y-67651894D01*
X177345415Y-67748585D01*
X177442106Y-67827937D01*
X177552420Y-67886902D01*
X177672118Y-67923212D01*
X177796600Y-67935472D01*
X178846600Y-67935472D01*
X178971082Y-67923212D01*
X179090780Y-67886902D01*
X179155502Y-67852307D01*
X179364201Y-67915615D01*
X179591600Y-67938012D01*
X179819000Y-67915615D01*
X180037660Y-67849285D01*
X180226601Y-67748294D01*
X180415541Y-67849285D01*
X180634201Y-67915615D01*
X180861600Y-67938012D01*
X181089000Y-67915615D01*
X181307660Y-67849285D01*
X181509179Y-67741571D01*
X181685812Y-67596612D01*
X181830771Y-67419979D01*
X181938485Y-67218459D01*
X182004815Y-66999799D01*
X182021600Y-66829378D01*
X182021600Y-66265421D01*
X182004815Y-66095000D01*
X181938485Y-65876340D01*
X181830771Y-65674821D01*
X181685812Y-65498188D01*
X181509178Y-65353229D01*
X181307659Y-65245515D01*
X181088999Y-65179185D01*
X180861600Y-65156788D01*
X180634200Y-65179185D01*
X180415540Y-65245515D01*
X180226600Y-65346506D01*
X180037659Y-65245515D01*
X179818999Y-65179185D01*
X179591600Y-65156788D01*
X179364200Y-65179185D01*
X179155502Y-65242493D01*
X179090780Y-65207898D01*
X178971082Y-65171588D01*
X178846600Y-65159328D01*
X177796600Y-65159328D01*
X177672118Y-65171588D01*
X177552420Y-65207898D01*
X177442106Y-65266863D01*
X177345415Y-65346215D01*
X177266063Y-65442906D01*
X177207098Y-65553220D01*
X177170788Y-65672918D01*
X177158528Y-65797400D01*
X145156066Y-65797400D01*
X145185000Y-65651939D01*
X145185000Y-65448061D01*
X145145226Y-65248102D01*
X145067205Y-65059744D01*
X144953937Y-64890226D01*
X144809774Y-64746063D01*
X144640256Y-64632795D01*
X144451898Y-64554774D01*
X144251939Y-64515000D01*
X144048061Y-64515000D01*
X143848102Y-64554774D01*
X143659744Y-64632795D01*
X143611546Y-64665000D01*
X140924869Y-64665000D01*
X141040256Y-64617205D01*
X141088454Y-64585000D01*
X143542064Y-64585000D01*
X143585533Y-64589281D01*
X143628999Y-64585000D01*
X143629010Y-64585000D01*
X143759023Y-64572195D01*
X143925846Y-64521589D01*
X144079592Y-64439411D01*
X144214350Y-64328817D01*
X144242067Y-64295044D01*
X144928446Y-63608665D01*
X193365000Y-63608665D01*
X193365000Y-63891335D01*
X193420147Y-64168574D01*
X193528320Y-64429727D01*
X193685363Y-64664759D01*
X193885241Y-64864637D01*
X194120273Y-65021680D01*
X194381426Y-65129853D01*
X194658665Y-65185000D01*
X194941335Y-65185000D01*
X195218574Y-65129853D01*
X195479727Y-65021680D01*
X195714759Y-64864637D01*
X195914637Y-64664759D01*
X196071680Y-64429727D01*
X196179853Y-64168574D01*
X196235000Y-63891335D01*
X196235000Y-63608665D01*
X196179853Y-63331426D01*
X196071680Y-63070273D01*
X195914637Y-62835241D01*
X195714759Y-62635363D01*
X195479727Y-62478320D01*
X195218574Y-62370147D01*
X194941335Y-62315000D01*
X194658665Y-62315000D01*
X194381426Y-62370147D01*
X194120273Y-62478320D01*
X193885241Y-62635363D01*
X193685363Y-62835241D01*
X193528320Y-63070273D01*
X193420147Y-63331426D01*
X193365000Y-63608665D01*
X144928446Y-63608665D01*
X149160111Y-59377000D01*
X214840000Y-59377000D01*
X214840001Y-127123000D01*
X206384999Y-127123000D01*
X206384999Y-122574395D01*
X206385241Y-122574637D01*
X206620273Y-122731680D01*
X206881426Y-122839853D01*
X207158665Y-122895000D01*
X207441335Y-122895000D01*
X207718574Y-122839853D01*
X207979727Y-122731680D01*
X208214759Y-122574637D01*
X208414637Y-122374759D01*
X208571680Y-122139727D01*
X208679853Y-121878574D01*
X208735000Y-121601335D01*
X208735000Y-121318665D01*
X208679853Y-121041426D01*
X208571680Y-120780273D01*
X208414637Y-120545241D01*
X208214759Y-120345363D01*
X207979727Y-120188320D01*
X207718574Y-120080147D01*
X207441335Y-120025000D01*
X207158665Y-120025000D01*
X206881426Y-120080147D01*
X206620273Y-120188320D01*
X206385241Y-120345363D01*
X206384999Y-120345605D01*
X206384999Y-116998468D01*
X206389280Y-116954999D01*
X206384999Y-116911530D01*
X206384999Y-116911522D01*
X206372194Y-116781509D01*
X206321588Y-116614686D01*
X206239410Y-116460940D01*
X206181447Y-116390312D01*
X206156531Y-116359952D01*
X206156529Y-116359950D01*
X206128816Y-116326182D01*
X206095049Y-116298470D01*
X204130000Y-114333422D01*
X204130000Y-113918021D01*
X204113215Y-113747600D01*
X204046885Y-113528940D01*
X203939171Y-113327421D01*
X203794212Y-113150788D01*
X203617578Y-113005829D01*
X203416059Y-112898115D01*
X203197399Y-112831785D01*
X202970000Y-112809388D01*
X202742600Y-112831785D01*
X202523940Y-112898115D01*
X202496514Y-112912774D01*
X202439411Y-112805941D01*
X202393501Y-112750000D01*
X202356532Y-112704953D01*
X202356530Y-112704951D01*
X202328817Y-112671183D01*
X202295049Y-112643470D01*
X201836579Y-112185000D01*
X206165479Y-112185000D01*
X206185363Y-112214759D01*
X206385241Y-112414637D01*
X206620273Y-112571680D01*
X206881426Y-112679853D01*
X207158665Y-112735000D01*
X207441335Y-112735000D01*
X207718574Y-112679853D01*
X207979727Y-112571680D01*
X208214759Y-112414637D01*
X208414637Y-112214759D01*
X208571680Y-111979727D01*
X208679853Y-111718574D01*
X208735000Y-111441335D01*
X208735000Y-111158665D01*
X208679853Y-110881426D01*
X208571680Y-110620273D01*
X208414637Y-110385241D01*
X208214759Y-110185363D01*
X207979727Y-110028320D01*
X207718574Y-109920147D01*
X207441335Y-109865000D01*
X207158665Y-109865000D01*
X206881426Y-109920147D01*
X206620273Y-110028320D01*
X206385241Y-110185363D01*
X206185363Y-110385241D01*
X206165479Y-110415000D01*
X200966579Y-110415000D01*
X197151579Y-106600000D01*
X199186928Y-106600000D01*
X199186928Y-108100000D01*
X199199188Y-108224482D01*
X199235498Y-108344180D01*
X199294463Y-108454494D01*
X199373815Y-108551185D01*
X199470506Y-108630537D01*
X199580820Y-108689502D01*
X199700518Y-108725812D01*
X199825000Y-108738072D01*
X200875000Y-108738072D01*
X200999482Y-108725812D01*
X201119180Y-108689502D01*
X201183902Y-108654907D01*
X201392601Y-108718215D01*
X201620000Y-108740612D01*
X201847400Y-108718215D01*
X202066060Y-108651885D01*
X202255001Y-108550894D01*
X202443941Y-108651885D01*
X202662601Y-108718215D01*
X202890000Y-108740612D01*
X203117400Y-108718215D01*
X203336060Y-108651885D01*
X203537579Y-108544171D01*
X203714212Y-108399212D01*
X203859171Y-108222579D01*
X203966885Y-108021059D01*
X204033215Y-107802399D01*
X204050000Y-107631978D01*
X204050000Y-107068021D01*
X204033215Y-106897600D01*
X203966885Y-106678940D01*
X203859171Y-106477421D01*
X203714212Y-106300788D01*
X203537578Y-106155829D01*
X203336059Y-106048115D01*
X203117399Y-105981785D01*
X202890000Y-105959388D01*
X202662600Y-105981785D01*
X202443940Y-106048115D01*
X202254999Y-106149106D01*
X202066059Y-106048115D01*
X201847399Y-105981785D01*
X201620000Y-105959388D01*
X201392600Y-105981785D01*
X201183902Y-106045093D01*
X201119180Y-106010498D01*
X200999482Y-105974188D01*
X200875000Y-105961928D01*
X199825000Y-105961928D01*
X199700518Y-105974188D01*
X199580820Y-106010498D01*
X199470506Y-106069463D01*
X199373815Y-106148815D01*
X199294463Y-106245506D01*
X199235498Y-106355820D01*
X199199188Y-106475518D01*
X199186928Y-106600000D01*
X197151579Y-106600000D01*
X193435000Y-102883422D01*
X193435000Y-99418021D01*
X199200000Y-99418021D01*
X199200000Y-99981978D01*
X199216785Y-100152399D01*
X199283115Y-100371059D01*
X199390829Y-100572578D01*
X199535788Y-100749212D01*
X199712421Y-100894171D01*
X199913940Y-101001885D01*
X200132600Y-101068215D01*
X200360000Y-101090612D01*
X200587399Y-101068215D01*
X200806059Y-101001885D01*
X200994999Y-100900894D01*
X201183940Y-101001885D01*
X201402600Y-101068215D01*
X201630000Y-101090612D01*
X201857399Y-101068215D01*
X202066098Y-101004907D01*
X202130820Y-101039502D01*
X202250518Y-101075812D01*
X202375000Y-101088072D01*
X203425000Y-101088072D01*
X203549482Y-101075812D01*
X203669180Y-101039502D01*
X203779494Y-100980537D01*
X203876185Y-100901185D01*
X203955537Y-100804494D01*
X204014502Y-100694180D01*
X204050812Y-100574482D01*
X204063072Y-100450000D01*
X204063072Y-98950000D01*
X204050812Y-98825518D01*
X204014502Y-98705820D01*
X203955537Y-98595506D01*
X203876185Y-98498815D01*
X203779494Y-98419463D01*
X203669180Y-98360498D01*
X203549482Y-98324188D01*
X203425000Y-98311928D01*
X202375000Y-98311928D01*
X202250518Y-98324188D01*
X202130820Y-98360498D01*
X202066098Y-98395093D01*
X201857400Y-98331785D01*
X201630000Y-98309388D01*
X201402601Y-98331785D01*
X201183941Y-98398115D01*
X200995001Y-98499106D01*
X200806060Y-98398115D01*
X200587400Y-98331785D01*
X200360000Y-98309388D01*
X200132601Y-98331785D01*
X199913941Y-98398115D01*
X199712422Y-98505829D01*
X199535789Y-98650788D01*
X199390830Y-98827421D01*
X199283115Y-99028940D01*
X199216785Y-99247600D01*
X199200000Y-99418021D01*
X193435000Y-99418021D01*
X193435000Y-91443469D01*
X193439281Y-91400000D01*
X193435000Y-91356531D01*
X193435000Y-91356523D01*
X193422195Y-91226510D01*
X193371589Y-91059687D01*
X193289411Y-90905941D01*
X193252191Y-90860589D01*
X193206532Y-90804953D01*
X193206530Y-90804951D01*
X193178817Y-90771183D01*
X193145049Y-90743470D01*
X191836578Y-89435000D01*
X198266531Y-89435000D01*
X198310000Y-89439281D01*
X198353469Y-89435000D01*
X198353477Y-89435000D01*
X198483490Y-89422195D01*
X198650313Y-89371589D01*
X198804059Y-89289411D01*
X198938817Y-89178817D01*
X198966534Y-89145044D01*
X200623561Y-87488017D01*
X200658665Y-87495000D01*
X200941335Y-87495000D01*
X201218574Y-87439853D01*
X201479727Y-87331680D01*
X201714759Y-87174637D01*
X201914637Y-86974759D01*
X202071680Y-86739727D01*
X202179853Y-86478574D01*
X202235000Y-86201335D01*
X202235000Y-85918665D01*
X202179853Y-85641426D01*
X202071680Y-85380273D01*
X201914637Y-85145241D01*
X201714759Y-84945363D01*
X201479727Y-84788320D01*
X201218574Y-84680147D01*
X200941335Y-84625000D01*
X200658665Y-84625000D01*
X200381426Y-84680147D01*
X200120273Y-84788320D01*
X199885241Y-84945363D01*
X199685363Y-85145241D01*
X199528320Y-85380273D01*
X199420147Y-85641426D01*
X199365000Y-85918665D01*
X199365000Y-86201335D01*
X199371983Y-86236439D01*
X197943422Y-87665000D01*
X182306579Y-87665000D01*
X181816343Y-87174765D01*
X181859171Y-87122579D01*
X181966885Y-86921059D01*
X182033215Y-86702399D01*
X182050000Y-86531978D01*
X182050000Y-85968021D01*
X182046748Y-85934999D01*
X183226532Y-85934999D01*
X183270001Y-85939280D01*
X183313470Y-85934999D01*
X183313478Y-85934999D01*
X183443491Y-85922194D01*
X183610314Y-85871588D01*
X183764060Y-85789410D01*
X183898818Y-85678816D01*
X183926535Y-85645043D01*
X184262913Y-85308665D01*
X184765000Y-85308665D01*
X184765000Y-85591335D01*
X184820147Y-85868574D01*
X184928320Y-86129727D01*
X185085363Y-86364759D01*
X185285241Y-86564637D01*
X185520273Y-86721680D01*
X185781426Y-86829853D01*
X186058665Y-86885000D01*
X186341335Y-86885000D01*
X186618574Y-86829853D01*
X186879727Y-86721680D01*
X187114759Y-86564637D01*
X187314637Y-86364759D01*
X187471680Y-86129727D01*
X187579853Y-85868574D01*
X187635000Y-85591335D01*
X187635000Y-85308665D01*
X194925000Y-85308665D01*
X194925000Y-85591335D01*
X194980147Y-85868574D01*
X195088320Y-86129727D01*
X195245363Y-86364759D01*
X195445241Y-86564637D01*
X195680273Y-86721680D01*
X195941426Y-86829853D01*
X196218665Y-86885000D01*
X196501335Y-86885000D01*
X196778574Y-86829853D01*
X197039727Y-86721680D01*
X197274759Y-86564637D01*
X197474637Y-86364759D01*
X197631680Y-86129727D01*
X197739853Y-85868574D01*
X197795000Y-85591335D01*
X197795000Y-85308665D01*
X197739853Y-85031426D01*
X197631680Y-84770273D01*
X197474637Y-84535241D01*
X197274759Y-84335363D01*
X197039727Y-84178320D01*
X196778574Y-84070147D01*
X196501335Y-84015000D01*
X196218665Y-84015000D01*
X195941426Y-84070147D01*
X195680273Y-84178320D01*
X195445241Y-84335363D01*
X195245363Y-84535241D01*
X195088320Y-84770273D01*
X194980147Y-85031426D01*
X194925000Y-85308665D01*
X187635000Y-85308665D01*
X187579853Y-85031426D01*
X187471680Y-84770273D01*
X187314637Y-84535241D01*
X187114759Y-84335363D01*
X186879727Y-84178320D01*
X186618574Y-84070147D01*
X186341335Y-84015000D01*
X186058665Y-84015000D01*
X185781426Y-84070147D01*
X185520273Y-84178320D01*
X185285241Y-84335363D01*
X185085363Y-84535241D01*
X184928320Y-84770273D01*
X184820147Y-85031426D01*
X184765000Y-85308665D01*
X184262913Y-85308665D01*
X188015049Y-81556530D01*
X188048817Y-81528817D01*
X188076533Y-81495046D01*
X188159411Y-81394059D01*
X188182527Y-81350812D01*
X188241589Y-81240313D01*
X188292195Y-81073490D01*
X188302425Y-80969626D01*
X188462601Y-81018215D01*
X188690000Y-81040612D01*
X188917400Y-81018215D01*
X189136060Y-80951885D01*
X189337579Y-80844171D01*
X189514212Y-80699212D01*
X189659171Y-80522579D01*
X189766885Y-80321059D01*
X189833215Y-80102399D01*
X189850000Y-79931978D01*
X189850000Y-79368021D01*
X189833215Y-79197600D01*
X189766885Y-78978940D01*
X189659171Y-78777421D01*
X189540386Y-78632681D01*
X189511589Y-78537751D01*
X189429411Y-78384005D01*
X189399957Y-78348115D01*
X189346532Y-78283017D01*
X189346530Y-78283015D01*
X189318817Y-78249247D01*
X189285049Y-78221534D01*
X187848514Y-76785000D01*
X193862673Y-76785000D01*
X193800788Y-76835788D01*
X193655829Y-77012421D01*
X193548115Y-77213940D01*
X193481785Y-77432600D01*
X193459388Y-77660000D01*
X193481785Y-77887400D01*
X193548115Y-78106060D01*
X193649105Y-78295000D01*
X193548115Y-78483940D01*
X193481785Y-78702600D01*
X193459388Y-78930000D01*
X193481785Y-79157400D01*
X193545093Y-79366098D01*
X193510498Y-79430820D01*
X193474188Y-79550518D01*
X193461928Y-79675000D01*
X193461928Y-80725000D01*
X193474188Y-80849482D01*
X193510498Y-80969180D01*
X193569463Y-81079494D01*
X193648815Y-81176185D01*
X193745506Y-81255537D01*
X193855820Y-81314502D01*
X193975518Y-81350812D01*
X194100000Y-81363072D01*
X195600000Y-81363072D01*
X195724482Y-81350812D01*
X195844180Y-81314502D01*
X195954494Y-81255537D01*
X196051185Y-81176185D01*
X196130537Y-81079494D01*
X196189502Y-80969180D01*
X196225812Y-80849482D01*
X196238072Y-80725000D01*
X196238072Y-79675000D01*
X196225812Y-79550518D01*
X196189502Y-79430820D01*
X196154907Y-79366098D01*
X196218215Y-79157400D01*
X196240612Y-78930000D01*
X196218215Y-78702600D01*
X196151885Y-78483940D01*
X196050895Y-78295000D01*
X196151885Y-78106060D01*
X196218215Y-77887400D01*
X196240612Y-77660000D01*
X196218215Y-77432600D01*
X196151885Y-77213940D01*
X196044171Y-77012421D01*
X195899212Y-76835788D01*
X195837327Y-76785000D01*
X199665479Y-76785000D01*
X199685363Y-76814759D01*
X199885241Y-77014637D01*
X200120273Y-77171680D01*
X200381426Y-77279853D01*
X200658665Y-77335000D01*
X200941335Y-77335000D01*
X201218574Y-77279853D01*
X201479727Y-77171680D01*
X201714759Y-77014637D01*
X201914637Y-76814759D01*
X202071680Y-76579727D01*
X202179853Y-76318574D01*
X202235000Y-76041335D01*
X202235000Y-75758665D01*
X202179853Y-75481426D01*
X202071680Y-75220273D01*
X201914637Y-74985241D01*
X201714759Y-74785363D01*
X201479727Y-74628320D01*
X201218574Y-74520147D01*
X200941335Y-74465000D01*
X200658665Y-74465000D01*
X200381426Y-74520147D01*
X200120273Y-74628320D01*
X199885241Y-74785363D01*
X199685363Y-74985241D01*
X199665479Y-75015000D01*
X195724396Y-75015000D01*
X195914637Y-74824759D01*
X196071680Y-74589727D01*
X196179853Y-74328574D01*
X196235000Y-74051335D01*
X196235000Y-73768665D01*
X196179853Y-73491426D01*
X196071680Y-73230273D01*
X195914637Y-72995241D01*
X195714759Y-72795363D01*
X195479727Y-72638320D01*
X195218574Y-72530147D01*
X194941335Y-72475000D01*
X194658665Y-72475000D01*
X194381426Y-72530147D01*
X194120273Y-72638320D01*
X193885241Y-72795363D01*
X193685363Y-72995241D01*
X193528320Y-73230273D01*
X193420147Y-73491426D01*
X193365000Y-73768665D01*
X193365000Y-74051335D01*
X193420147Y-74328574D01*
X193528320Y-74589727D01*
X193685363Y-74824759D01*
X193875604Y-75015000D01*
X179866579Y-75015000D01*
X179288090Y-74436512D01*
X179392601Y-74468215D01*
X179620000Y-74490612D01*
X179847400Y-74468215D01*
X180066060Y-74401885D01*
X180255000Y-74300894D01*
X180443941Y-74401885D01*
X180662601Y-74468215D01*
X180890000Y-74490612D01*
X181117400Y-74468215D01*
X181336060Y-74401885D01*
X181537579Y-74294171D01*
X181714212Y-74149212D01*
X181859171Y-73972579D01*
X181966885Y-73771059D01*
X182033215Y-73552399D01*
X182050000Y-73381978D01*
X182050000Y-72818021D01*
X182033215Y-72647600D01*
X181966885Y-72428940D01*
X181859171Y-72227421D01*
X181714212Y-72050788D01*
X181537578Y-71905829D01*
X181336059Y-71798115D01*
X181117399Y-71731785D01*
X180890000Y-71709388D01*
X180662600Y-71731785D01*
X180443940Y-71798115D01*
X180381178Y-71831662D01*
X180359411Y-71790939D01*
X180335210Y-71761450D01*
X180276532Y-71689951D01*
X180276530Y-71689949D01*
X180248817Y-71656181D01*
X180215049Y-71628468D01*
X179371580Y-70785000D01*
X184628424Y-70785000D01*
X185558010Y-71714586D01*
X185460518Y-71724188D01*
X185340820Y-71760498D01*
X185230506Y-71819463D01*
X185133815Y-71898815D01*
X185054463Y-71995506D01*
X184995498Y-72105820D01*
X184959188Y-72225518D01*
X184946928Y-72350000D01*
X184946928Y-73850000D01*
X184959188Y-73974482D01*
X184995498Y-74094180D01*
X185054463Y-74204494D01*
X185133815Y-74301185D01*
X185230506Y-74380537D01*
X185340820Y-74439502D01*
X185460518Y-74475812D01*
X185585000Y-74488072D01*
X186635000Y-74488072D01*
X186759482Y-74475812D01*
X186879180Y-74439502D01*
X186943902Y-74404907D01*
X187152601Y-74468215D01*
X187380000Y-74490612D01*
X187607400Y-74468215D01*
X187826060Y-74401885D01*
X188015000Y-74300894D01*
X188203941Y-74401885D01*
X188422601Y-74468215D01*
X188650000Y-74490612D01*
X188877400Y-74468215D01*
X189096060Y-74401885D01*
X189297579Y-74294171D01*
X189474212Y-74149212D01*
X189619171Y-73972579D01*
X189726885Y-73771059D01*
X189793215Y-73552399D01*
X189810000Y-73381978D01*
X189810000Y-72818021D01*
X189793215Y-72647600D01*
X189726885Y-72428940D01*
X189619171Y-72227421D01*
X189474212Y-72050788D01*
X189297578Y-71905829D01*
X189096059Y-71798115D01*
X188877399Y-71731785D01*
X188650000Y-71709388D01*
X188422600Y-71731785D01*
X188203940Y-71798115D01*
X188141178Y-71831662D01*
X188119411Y-71790939D01*
X188036532Y-71689951D01*
X188036530Y-71689949D01*
X188008817Y-71656181D01*
X187975049Y-71628468D01*
X185651536Y-69304956D01*
X185623819Y-69271183D01*
X185489061Y-69160589D01*
X185335315Y-69078411D01*
X185168492Y-69027805D01*
X185038479Y-69015000D01*
X185038471Y-69015000D01*
X184995002Y-69010719D01*
X184951533Y-69015000D01*
X135956579Y-69015000D01*
X134216343Y-67274765D01*
X134259171Y-67222579D01*
X134366885Y-67021059D01*
X134433215Y-66802399D01*
X134450000Y-66631978D01*
X134450000Y-66068021D01*
X134433215Y-65897600D01*
X134366885Y-65678940D01*
X134259171Y-65477421D01*
X134114212Y-65300788D01*
X133937578Y-65155829D01*
X133736059Y-65048115D01*
X133517399Y-64981785D01*
X133290000Y-64959388D01*
X133062600Y-64981785D01*
X132843940Y-65048115D01*
X132655000Y-65149106D01*
X132466059Y-65048115D01*
X132247399Y-64981785D01*
X132020000Y-64959388D01*
X131792600Y-64981785D01*
X131583902Y-65045093D01*
X131519180Y-65010498D01*
X131399482Y-64974188D01*
X131275000Y-64961928D01*
X130225000Y-64961928D01*
X130100518Y-64974188D01*
X129980820Y-65010498D01*
X129870506Y-65069463D01*
X129773815Y-65148815D01*
X129694463Y-65245506D01*
X129635498Y-65355820D01*
X129599188Y-65475518D01*
X129586928Y-65600000D01*
X129586928Y-67100000D01*
X129599188Y-67224482D01*
X129635498Y-67344180D01*
X129694463Y-67454494D01*
X129773815Y-67551185D01*
X129870506Y-67630537D01*
X129980820Y-67689502D01*
X130100518Y-67725812D01*
X130225000Y-67738072D01*
X131275000Y-67738072D01*
X131399482Y-67725812D01*
X131519180Y-67689502D01*
X131583902Y-67654907D01*
X131792601Y-67718215D01*
X132020000Y-67740612D01*
X132247400Y-67718215D01*
X132407576Y-67669626D01*
X132417805Y-67773489D01*
X132468411Y-67940312D01*
X132550589Y-68094058D01*
X132661183Y-68228817D01*
X132694956Y-68256534D01*
X134933470Y-70495049D01*
X134961183Y-70528817D01*
X134994951Y-70556530D01*
X134994953Y-70556532D01*
X135021613Y-70578411D01*
X135095941Y-70639411D01*
X135249687Y-70721589D01*
X135416510Y-70772195D01*
X135546523Y-70785000D01*
X135546533Y-70785000D01*
X135589999Y-70789281D01*
X135633465Y-70785000D01*
X139533421Y-70785000D01*
X138024956Y-72293466D01*
X137991183Y-72321183D01*
X137880589Y-72455942D01*
X137798411Y-72609688D01*
X137763157Y-72725904D01*
X137752909Y-72759687D01*
X137747805Y-72776511D01*
X137744317Y-72811928D01*
X136825000Y-72811928D01*
X136700518Y-72824188D01*
X136580820Y-72860498D01*
X136470506Y-72919463D01*
X136373815Y-72998815D01*
X136294463Y-73095506D01*
X136235498Y-73205820D01*
X136199188Y-73325518D01*
X136186928Y-73450000D01*
X136186928Y-74950000D01*
X136199188Y-75074482D01*
X136226646Y-75165000D01*
X134183323Y-75165000D01*
X134259171Y-75072579D01*
X134366885Y-74871059D01*
X134433215Y-74652399D01*
X134450000Y-74481978D01*
X134450000Y-73918021D01*
X134433215Y-73747600D01*
X134366885Y-73528940D01*
X134259171Y-73327421D01*
X134114212Y-73150788D01*
X133937578Y-73005829D01*
X133736059Y-72898115D01*
X133517399Y-72831785D01*
X133290000Y-72809388D01*
X133062600Y-72831785D01*
X132843940Y-72898115D01*
X132781178Y-72931662D01*
X132759411Y-72890939D01*
X132735210Y-72861450D01*
X132676532Y-72789951D01*
X132676530Y-72789949D01*
X132648817Y-72756181D01*
X132615049Y-72728468D01*
X130691536Y-70804956D01*
X130663819Y-70771183D01*
X130529061Y-70660589D01*
X130375315Y-70578411D01*
X130208492Y-70527805D01*
X130078479Y-70515000D01*
X130078471Y-70515000D01*
X130035002Y-70510719D01*
X129991533Y-70515000D01*
X126559597Y-70515000D01*
X126516128Y-70510719D01*
X126472659Y-70515000D01*
X126472651Y-70515000D01*
X126342638Y-70527805D01*
X126175814Y-70578411D01*
X126022069Y-70660589D01*
X125921081Y-70743468D01*
X125921079Y-70743470D01*
X125887311Y-70771183D01*
X125859598Y-70804951D01*
X123852622Y-72811928D01*
X123525000Y-72811928D01*
X123400518Y-72824188D01*
X123280820Y-72860498D01*
X123170506Y-72919463D01*
X123073815Y-72998815D01*
X122994463Y-73095506D01*
X122935498Y-73205820D01*
X122899188Y-73325518D01*
X122886928Y-73450000D01*
X122886928Y-74950000D01*
X122899188Y-75074482D01*
X122935498Y-75194180D01*
X122994463Y-75304494D01*
X123073815Y-75401185D01*
X123170506Y-75480537D01*
X123280820Y-75539502D01*
X123400518Y-75575812D01*
X123525000Y-75588072D01*
X124575000Y-75588072D01*
X124699482Y-75575812D01*
X124819180Y-75539502D01*
X124883902Y-75504907D01*
X125092601Y-75568215D01*
X125320000Y-75590612D01*
X125547400Y-75568215D01*
X125766060Y-75501885D01*
X125955001Y-75400894D01*
X126143941Y-75501885D01*
X126362601Y-75568215D01*
X126590000Y-75590612D01*
X126817400Y-75568215D01*
X127036060Y-75501885D01*
X127237579Y-75394171D01*
X127414212Y-75249212D01*
X127559171Y-75072579D01*
X127666885Y-74871059D01*
X127733215Y-74652399D01*
X127750000Y-74481978D01*
X127750000Y-73918021D01*
X127733215Y-73747600D01*
X127666885Y-73528940D01*
X127559171Y-73327421D01*
X127414212Y-73150788D01*
X127237578Y-73005829D01*
X127036059Y-72898115D01*
X126817399Y-72831785D01*
X126590000Y-72809388D01*
X126362600Y-72831785D01*
X126324305Y-72843402D01*
X126882707Y-72285000D01*
X129668424Y-72285000D01*
X130198010Y-72814586D01*
X130100518Y-72824188D01*
X129980820Y-72860498D01*
X129870506Y-72919463D01*
X129773815Y-72998815D01*
X129694463Y-73095506D01*
X129635498Y-73205820D01*
X129599188Y-73325518D01*
X129586928Y-73450000D01*
X129586928Y-74950000D01*
X129599188Y-75074482D01*
X129635498Y-75194180D01*
X129694463Y-75304494D01*
X129773815Y-75401185D01*
X129863130Y-75474484D01*
X129865000Y-75493469D01*
X129865000Y-75493476D01*
X129873109Y-75575812D01*
X129877678Y-75622195D01*
X129877805Y-75623489D01*
X129928411Y-75790312D01*
X130010589Y-75944058D01*
X130109844Y-76065000D01*
X126380865Y-76065000D01*
X126337399Y-76060719D01*
X126293933Y-76065000D01*
X126293923Y-76065000D01*
X126163910Y-76077805D01*
X125997087Y-76128411D01*
X125843341Y-76210589D01*
X125827621Y-76223490D01*
X125742353Y-76293468D01*
X125742351Y-76293470D01*
X125708583Y-76321183D01*
X125680870Y-76354951D01*
X124304157Y-77731665D01*
X124304152Y-77731669D01*
X124275638Y-77760183D01*
X124240535Y-77753200D01*
X123957865Y-77753200D01*
X123680626Y-77808347D01*
X123419473Y-77916520D01*
X123184441Y-78073563D01*
X122984563Y-78273441D01*
X122827520Y-78508473D01*
X122719347Y-78769626D01*
X122664200Y-79046865D01*
X122664200Y-79329535D01*
X122719347Y-79606774D01*
X122827520Y-79867927D01*
X122984563Y-80102959D01*
X123184441Y-80302837D01*
X123419473Y-80459880D01*
X123680626Y-80568053D01*
X123957865Y-80623200D01*
X124240535Y-80623200D01*
X124517774Y-80568053D01*
X124778927Y-80459880D01*
X125013959Y-80302837D01*
X125213837Y-80102959D01*
X125370880Y-79867927D01*
X125479053Y-79606774D01*
X125534200Y-79329535D01*
X125534200Y-79046865D01*
X125527217Y-79011762D01*
X125555731Y-78983248D01*
X125555735Y-78983243D01*
X125949763Y-78589215D01*
X125870147Y-78781426D01*
X125815000Y-79058665D01*
X125815000Y-79341335D01*
X125870147Y-79618574D01*
X125978320Y-79879727D01*
X126135363Y-80114759D01*
X126335241Y-80314637D01*
X126570273Y-80471680D01*
X126831426Y-80579853D01*
X127108665Y-80635000D01*
X127391335Y-80635000D01*
X127426439Y-80628017D01*
X127605001Y-80806580D01*
X127605002Y-84746522D01*
X127600720Y-84790001D01*
X127617806Y-84963491D01*
X127668413Y-85130314D01*
X127750591Y-85284060D01*
X127833469Y-85385047D01*
X127833472Y-85385050D01*
X127861185Y-85418818D01*
X127894952Y-85446530D01*
X128743470Y-86295049D01*
X128771183Y-86328817D01*
X128804951Y-86356530D01*
X128804953Y-86356532D01*
X128905941Y-86439411D01*
X129059687Y-86521589D01*
X129166725Y-86554059D01*
X129226509Y-86572195D01*
X129241306Y-86573652D01*
X129356523Y-86585000D01*
X129356531Y-86585000D01*
X129400000Y-86589281D01*
X129443469Y-86585000D01*
X139483422Y-86585000D01*
X142071983Y-89173562D01*
X142065000Y-89208665D01*
X142065000Y-89491335D01*
X142120147Y-89768574D01*
X142228320Y-90029727D01*
X142385363Y-90264759D01*
X142585241Y-90464637D01*
X142820273Y-90621680D01*
X143081426Y-90729853D01*
X143358665Y-90785000D01*
X143641335Y-90785000D01*
X143918574Y-90729853D01*
X144179727Y-90621680D01*
X144414759Y-90464637D01*
X144614637Y-90264759D01*
X144771680Y-90029727D01*
X144879853Y-89768574D01*
X144935000Y-89491335D01*
X144935000Y-89208665D01*
X144928017Y-89173561D01*
X157466579Y-76635000D01*
X175656531Y-76635000D01*
X175700000Y-76639281D01*
X175743469Y-76635000D01*
X175743477Y-76635000D01*
X175873490Y-76622195D01*
X176040313Y-76571589D01*
X176194059Y-76489411D01*
X176328817Y-76378817D01*
X176356534Y-76345044D01*
X177557272Y-75144307D01*
X177610589Y-75244058D01*
X177721183Y-75378817D01*
X177754956Y-75406534D01*
X178843470Y-76495049D01*
X178871183Y-76528817D01*
X178904951Y-76556530D01*
X178904953Y-76556532D01*
X179005941Y-76639411D01*
X179159686Y-76721589D01*
X179272932Y-76755942D01*
X179326510Y-76772195D01*
X179456523Y-76785000D01*
X179456531Y-76785000D01*
X179500000Y-76789281D01*
X179543469Y-76785000D01*
X179713421Y-76785000D01*
X179074956Y-77423466D01*
X179041183Y-77451183D01*
X178930589Y-77585942D01*
X178848411Y-77739688D01*
X178797805Y-77906511D01*
X178785000Y-78036524D01*
X178785000Y-78036531D01*
X178780719Y-78080000D01*
X178785000Y-78123469D01*
X178785000Y-78261928D01*
X177875000Y-78261928D01*
X177750518Y-78274188D01*
X177630820Y-78310498D01*
X177520506Y-78369463D01*
X177423815Y-78448815D01*
X177344463Y-78545506D01*
X177285498Y-78655820D01*
X177249188Y-78775518D01*
X177236928Y-78900000D01*
X177236928Y-80400000D01*
X177249188Y-80524482D01*
X177285498Y-80644180D01*
X177344463Y-80754494D01*
X177423815Y-80851185D01*
X177513130Y-80924484D01*
X177527805Y-81073490D01*
X177578412Y-81240313D01*
X177660590Y-81394059D01*
X177743468Y-81495046D01*
X177743469Y-81495047D01*
X177771184Y-81528817D01*
X177804951Y-81556529D01*
X179093470Y-82845049D01*
X179121183Y-82878817D01*
X179154951Y-82906530D01*
X179154953Y-82906532D01*
X179226452Y-82965210D01*
X179255941Y-82989411D01*
X179409687Y-83071589D01*
X179576510Y-83122195D01*
X179706523Y-83135000D01*
X179706533Y-83135000D01*
X179749999Y-83139281D01*
X179793465Y-83135000D01*
X183933422Y-83135000D01*
X182903423Y-84164999D01*
X156043467Y-84164999D01*
X156000000Y-84160718D01*
X155956534Y-84164999D01*
X155956524Y-84164999D01*
X155826511Y-84177804D01*
X155659688Y-84228410D01*
X155505942Y-84310588D01*
X155505940Y-84310589D01*
X155505941Y-84310589D01*
X155404954Y-84393467D01*
X155404952Y-84393469D01*
X155371184Y-84421182D01*
X155343471Y-84454950D01*
X147033422Y-92765000D01*
X138838454Y-92765000D01*
X138790256Y-92732795D01*
X138601898Y-92654774D01*
X138401939Y-92615000D01*
X138198061Y-92615000D01*
X137998102Y-92654774D01*
X137809744Y-92732795D01*
X137640226Y-92846063D01*
X137496063Y-92990226D01*
X137382795Y-93159744D01*
X137304774Y-93348102D01*
X137265000Y-93548061D01*
X137265000Y-93751939D01*
X137304774Y-93951898D01*
X137382795Y-94140256D01*
X137496063Y-94309774D01*
X137640226Y-94453937D01*
X137809744Y-94567205D01*
X137998102Y-94645226D01*
X138198061Y-94685000D01*
X138401939Y-94685000D01*
X138601898Y-94645226D01*
X138790256Y-94567205D01*
X138838454Y-94535000D01*
X147356531Y-94535000D01*
X147400000Y-94539281D01*
X147443469Y-94535000D01*
X147443477Y-94535000D01*
X147573490Y-94522195D01*
X147740313Y-94471589D01*
X147894059Y-94389411D01*
X148028817Y-94278817D01*
X148056534Y-94245044D01*
X156366580Y-85934999D01*
X177186928Y-85934999D01*
X177186928Y-87000000D01*
X177199188Y-87124482D01*
X177235498Y-87244180D01*
X177294463Y-87354494D01*
X177373815Y-87451185D01*
X177463130Y-87524484D01*
X177465000Y-87543469D01*
X177465000Y-87543476D01*
X177472361Y-87618215D01*
X177477805Y-87673490D01*
X177493157Y-87724096D01*
X177528411Y-87840312D01*
X177610589Y-87994058D01*
X177721183Y-88128817D01*
X177754956Y-88156534D01*
X180193470Y-90595049D01*
X180221183Y-90628817D01*
X180254951Y-90656530D01*
X180254953Y-90656532D01*
X180289935Y-90685241D01*
X180355941Y-90739411D01*
X180509687Y-90821589D01*
X180676510Y-90872195D01*
X180806523Y-90885000D01*
X180806531Y-90885000D01*
X180850000Y-90889281D01*
X180893469Y-90885000D01*
X187311889Y-90885000D01*
X187288320Y-90920273D01*
X187180147Y-91181426D01*
X187125000Y-91458665D01*
X187125000Y-91741335D01*
X187180147Y-92018574D01*
X187288320Y-92279727D01*
X187445363Y-92514759D01*
X187645241Y-92714637D01*
X187675000Y-92734521D01*
X187675000Y-92774846D01*
X187675001Y-92774856D01*
X187675000Y-113216531D01*
X187670719Y-113260000D01*
X187675000Y-113303469D01*
X187675000Y-113303476D01*
X187683473Y-113389502D01*
X187687805Y-113433490D01*
X187696026Y-113460589D01*
X187738411Y-113600312D01*
X187820589Y-113754058D01*
X187931183Y-113888817D01*
X187964956Y-113916534D01*
X189613421Y-115565000D01*
X177616579Y-115565000D01*
X175481235Y-113429656D01*
X175597400Y-113418215D01*
X175816060Y-113351885D01*
X176005001Y-113250894D01*
X176193941Y-113351885D01*
X176412601Y-113418215D01*
X176640000Y-113440612D01*
X176867400Y-113418215D01*
X177086060Y-113351885D01*
X177287579Y-113244171D01*
X177464212Y-113099212D01*
X177609171Y-112922579D01*
X177716885Y-112721059D01*
X177783215Y-112502399D01*
X177800000Y-112331978D01*
X177800000Y-111768021D01*
X177783215Y-111597600D01*
X177716885Y-111378940D01*
X177609171Y-111177421D01*
X177464212Y-111000788D01*
X177287578Y-110855829D01*
X177086059Y-110748115D01*
X176867399Y-110681785D01*
X176640000Y-110659388D01*
X176412600Y-110681785D01*
X176193940Y-110748115D01*
X176005000Y-110849106D01*
X175816059Y-110748115D01*
X175597399Y-110681785D01*
X175370000Y-110659388D01*
X175142600Y-110681785D01*
X174933902Y-110745093D01*
X174869180Y-110710498D01*
X174749482Y-110674188D01*
X174625000Y-110661928D01*
X173575000Y-110661928D01*
X173450518Y-110674188D01*
X173330820Y-110710498D01*
X173220506Y-110769463D01*
X173123815Y-110848815D01*
X173044463Y-110945506D01*
X172985498Y-111055820D01*
X172949941Y-111173035D01*
X172901510Y-111177805D01*
X172734687Y-111228411D01*
X172616963Y-111291335D01*
X172580941Y-111310589D01*
X172479953Y-111393468D01*
X172479951Y-111393470D01*
X172446183Y-111421183D01*
X172418470Y-111454951D01*
X171384547Y-112488874D01*
X171400000Y-112331978D01*
X171400000Y-111768021D01*
X171383215Y-111597600D01*
X171316885Y-111378940D01*
X171209171Y-111177421D01*
X171064212Y-111000788D01*
X170887578Y-110855829D01*
X170686059Y-110748115D01*
X170467399Y-110681785D01*
X170240000Y-110659388D01*
X170012600Y-110681785D01*
X169793940Y-110748115D01*
X169605000Y-110849106D01*
X169416059Y-110748115D01*
X169197399Y-110681785D01*
X168970000Y-110659388D01*
X168742600Y-110681785D01*
X168533902Y-110745093D01*
X168469180Y-110710498D01*
X168349482Y-110674188D01*
X168225000Y-110661928D01*
X167175000Y-110661928D01*
X167050518Y-110674188D01*
X166930820Y-110710498D01*
X166820506Y-110769463D01*
X166723815Y-110848815D01*
X166644463Y-110945506D01*
X166585498Y-111055820D01*
X166549188Y-111175518D01*
X166536928Y-111300000D01*
X166536928Y-112800000D01*
X166549188Y-112924482D01*
X166585498Y-113044180D01*
X166644463Y-113154494D01*
X166723815Y-113251185D01*
X166820506Y-113330537D01*
X166930820Y-113389502D01*
X167050518Y-113425812D01*
X167175000Y-113438072D01*
X168225000Y-113438072D01*
X168349482Y-113425812D01*
X168469180Y-113389502D01*
X168533902Y-113354907D01*
X168742601Y-113418215D01*
X168970000Y-113440612D01*
X169197400Y-113418215D01*
X169416060Y-113351885D01*
X169605001Y-113250894D01*
X169793941Y-113351885D01*
X170012601Y-113418215D01*
X170240000Y-113440612D01*
X170453874Y-113419547D01*
X168708423Y-115164999D01*
X164181294Y-115164999D01*
X164271680Y-115029727D01*
X164379853Y-114768574D01*
X164435000Y-114491335D01*
X164435000Y-114208665D01*
X164379853Y-113931426D01*
X164271680Y-113670273D01*
X164114637Y-113435241D01*
X163914759Y-113235363D01*
X163679727Y-113078320D01*
X163418574Y-112970147D01*
X163141335Y-112915000D01*
X162858665Y-112915000D01*
X162581426Y-112970147D01*
X162320273Y-113078320D01*
X162085241Y-113235363D01*
X161885363Y-113435241D01*
X161728320Y-113670273D01*
X161620147Y-113931426D01*
X161565000Y-114208665D01*
X161565000Y-114491335D01*
X161620147Y-114768574D01*
X161728320Y-115029727D01*
X161818706Y-115164999D01*
X146195000Y-115164999D01*
X146195000Y-115108665D01*
X146139853Y-114831426D01*
X146031680Y-114570273D01*
X145874637Y-114335241D01*
X145674759Y-114135363D01*
X145439727Y-113978320D01*
X145178574Y-113870147D01*
X144901335Y-113815000D01*
X144618665Y-113815000D01*
X144341426Y-113870147D01*
X144080273Y-113978320D01*
X143845241Y-114135363D01*
X143645363Y-114335241D01*
X143488320Y-114570273D01*
X143380147Y-114831426D01*
X143325000Y-115108665D01*
X143325000Y-115391335D01*
X143380147Y-115668574D01*
X143488320Y-115929727D01*
X143645363Y-116164759D01*
X143845241Y-116364637D01*
X144080273Y-116521680D01*
X144341426Y-116629853D01*
X144618665Y-116685000D01*
X144901335Y-116685000D01*
X144931424Y-116679015D01*
X144964950Y-116706529D01*
X144964952Y-116706531D01*
X145036451Y-116765209D01*
X145065940Y-116789410D01*
X145219686Y-116871588D01*
X145386509Y-116922194D01*
X145516522Y-116934999D01*
X145516532Y-116934999D01*
X145559998Y-116939280D01*
X145603464Y-116934999D01*
X169031532Y-116934999D01*
X169075001Y-116939280D01*
X169118470Y-116934999D01*
X169118478Y-116934999D01*
X169248491Y-116922194D01*
X169415314Y-116871588D01*
X169569060Y-116789410D01*
X169703818Y-116678816D01*
X169731535Y-116645043D01*
X173124682Y-113251897D01*
X173213130Y-113324484D01*
X173227805Y-113473490D01*
X173278412Y-113640313D01*
X173360590Y-113794059D01*
X173443468Y-113895046D01*
X173443471Y-113895049D01*
X173471184Y-113928817D01*
X173504951Y-113956529D01*
X176593470Y-117045049D01*
X176621183Y-117078817D01*
X176654951Y-117106530D01*
X176654953Y-117106532D01*
X176681708Y-117128489D01*
X176755941Y-117189411D01*
X176909687Y-117271589D01*
X177076510Y-117322195D01*
X177206523Y-117335000D01*
X177206531Y-117335000D01*
X177250000Y-117339281D01*
X177293469Y-117335000D01*
X191706533Y-117335000D01*
X191749999Y-117339281D01*
X191793465Y-117335000D01*
X199817294Y-117335000D01*
X200725695Y-118243402D01*
X200687400Y-118231785D01*
X200460000Y-118209388D01*
X200232601Y-118231785D01*
X200013941Y-118298115D01*
X199812422Y-118405829D01*
X199635789Y-118550788D01*
X199490830Y-118727421D01*
X199383115Y-118928940D01*
X199316785Y-119147600D01*
X199300000Y-119318021D01*
X199300000Y-119881978D01*
X199316785Y-120052399D01*
X199383115Y-120271059D01*
X199490829Y-120472578D01*
X199635788Y-120649212D01*
X199812421Y-120794171D01*
X200013940Y-120901885D01*
X200232600Y-120968215D01*
X200460000Y-120990612D01*
X200687399Y-120968215D01*
X200906059Y-120901885D01*
X201094999Y-120800894D01*
X201283940Y-120901885D01*
X201502600Y-120968215D01*
X201730000Y-120990612D01*
X201957399Y-120968215D01*
X202166098Y-120904907D01*
X202230820Y-120939502D01*
X202350518Y-120975812D01*
X202475000Y-120988072D01*
X203525000Y-120988072D01*
X203649482Y-120975812D01*
X203769180Y-120939502D01*
X203879494Y-120880537D01*
X203976185Y-120801185D01*
X204055537Y-120704494D01*
X204114502Y-120594180D01*
X204150812Y-120474482D01*
X204163072Y-120350000D01*
X204163072Y-118850000D01*
X204150812Y-118725518D01*
X204114502Y-118605820D01*
X204055537Y-118495506D01*
X203976185Y-118398815D01*
X203879494Y-118319463D01*
X203769180Y-118260498D01*
X203649482Y-118224188D01*
X203525000Y-118211928D01*
X203197379Y-118211928D01*
X200840406Y-115854956D01*
X200812689Y-115821183D01*
X200677931Y-115710589D01*
X200524185Y-115628411D01*
X200391207Y-115588072D01*
X200955000Y-115588072D01*
X201079482Y-115575812D01*
X201199180Y-115539502D01*
X201263902Y-115504907D01*
X201472601Y-115568215D01*
X201700000Y-115590612D01*
X201927400Y-115568215D01*
X202146060Y-115501885D01*
X202335000Y-115400894D01*
X202523941Y-115501885D01*
X202742601Y-115568215D01*
X202874642Y-115581220D01*
X204614999Y-117321578D01*
X204615000Y-127123000D01*
X116160000Y-127123000D01*
X116160000Y-121270000D01*
X123759388Y-121270000D01*
X123781785Y-121497400D01*
X123848115Y-121716060D01*
X123949105Y-121905000D01*
X123848115Y-122093940D01*
X123781785Y-122312600D01*
X123759388Y-122540000D01*
X123781785Y-122767400D01*
X123848115Y-122986060D01*
X123955829Y-123187579D01*
X124100788Y-123364212D01*
X124277421Y-123509171D01*
X124478940Y-123616885D01*
X124697600Y-123683215D01*
X124868021Y-123700000D01*
X125431979Y-123700000D01*
X125602400Y-123683215D01*
X125821060Y-123616885D01*
X126022579Y-123509171D01*
X126199212Y-123364212D01*
X126344171Y-123187579D01*
X126451885Y-122986060D01*
X126518215Y-122767400D01*
X126540612Y-122540000D01*
X126518215Y-122312600D01*
X126451885Y-122093940D01*
X126350895Y-121905000D01*
X126451885Y-121716060D01*
X126518215Y-121497400D01*
X126540612Y-121270000D01*
X126518215Y-121042600D01*
X126454907Y-120833902D01*
X126489502Y-120769180D01*
X126525812Y-120649482D01*
X126538072Y-120525000D01*
X126538072Y-119475000D01*
X126525812Y-119350518D01*
X126489502Y-119230820D01*
X126430537Y-119120506D01*
X126351185Y-119023815D01*
X126254494Y-118944463D01*
X126144180Y-118885498D01*
X126024482Y-118849188D01*
X125900000Y-118836928D01*
X124400000Y-118836928D01*
X124275518Y-118849188D01*
X124155820Y-118885498D01*
X124045506Y-118944463D01*
X123948815Y-119023815D01*
X123869463Y-119120506D01*
X123810498Y-119230820D01*
X123774188Y-119350518D01*
X123761928Y-119475000D01*
X123761928Y-120525000D01*
X123774188Y-120649482D01*
X123810498Y-120769180D01*
X123845093Y-120833902D01*
X123781785Y-121042600D01*
X123759388Y-121270000D01*
X116160000Y-121270000D01*
X116160000Y-110958665D01*
X120565000Y-110958665D01*
X120565000Y-111241335D01*
X120620147Y-111518574D01*
X120728320Y-111779727D01*
X120885363Y-112014759D01*
X121085241Y-112214637D01*
X121320273Y-112371680D01*
X121581426Y-112479853D01*
X121858665Y-112535000D01*
X122141335Y-112535000D01*
X122418574Y-112479853D01*
X122679727Y-112371680D01*
X122914759Y-112214637D01*
X123114637Y-112014759D01*
X123271680Y-111779727D01*
X123379853Y-111518574D01*
X123435000Y-111241335D01*
X123435000Y-110958665D01*
X123379853Y-110681426D01*
X123271680Y-110420273D01*
X123114637Y-110185241D01*
X122914759Y-109985363D01*
X122679727Y-109828320D01*
X122418574Y-109720147D01*
X122141335Y-109665000D01*
X121858665Y-109665000D01*
X121581426Y-109720147D01*
X121320273Y-109828320D01*
X121085241Y-109985363D01*
X120885363Y-110185241D01*
X120728320Y-110420273D01*
X120620147Y-110681426D01*
X120565000Y-110958665D01*
X116160000Y-110958665D01*
X116160000Y-106018021D01*
X124800000Y-106018021D01*
X124800000Y-106581978D01*
X124816785Y-106752399D01*
X124883115Y-106971059D01*
X124990829Y-107172578D01*
X125135788Y-107349212D01*
X125312421Y-107494171D01*
X125513940Y-107601885D01*
X125732600Y-107668215D01*
X125960000Y-107690612D01*
X126187399Y-107668215D01*
X126345001Y-107620407D01*
X126345000Y-112976531D01*
X126340719Y-113020000D01*
X126345000Y-113063469D01*
X126345000Y-113063476D01*
X126356212Y-113177314D01*
X126357805Y-113193490D01*
X126373145Y-113244059D01*
X126408411Y-113360312D01*
X126490589Y-113514058D01*
X126601183Y-113648817D01*
X126634956Y-113676534D01*
X131795349Y-118836928D01*
X130800000Y-118836928D01*
X130675518Y-118849188D01*
X130555820Y-118885498D01*
X130445506Y-118944463D01*
X130348815Y-119023815D01*
X130269463Y-119120506D01*
X130210498Y-119230820D01*
X130174188Y-119350518D01*
X130161928Y-119475000D01*
X130161928Y-120525000D01*
X130174188Y-120649482D01*
X130210498Y-120769180D01*
X130245093Y-120833902D01*
X130181785Y-121042600D01*
X130159388Y-121270000D01*
X130181785Y-121497400D01*
X130248115Y-121716060D01*
X130349105Y-121905000D01*
X130248115Y-122093940D01*
X130181785Y-122312600D01*
X130159388Y-122540000D01*
X130181785Y-122767400D01*
X130248115Y-122986060D01*
X130355829Y-123187579D01*
X130500788Y-123364212D01*
X130677421Y-123509171D01*
X130878940Y-123616885D01*
X131097600Y-123683215D01*
X131268021Y-123700000D01*
X131831979Y-123700000D01*
X132002400Y-123683215D01*
X132221060Y-123616885D01*
X132422579Y-123509171D01*
X132474765Y-123466343D01*
X134453470Y-125445049D01*
X134481183Y-125478817D01*
X134514951Y-125506530D01*
X134514953Y-125506532D01*
X134586452Y-125565210D01*
X134615941Y-125589411D01*
X134769687Y-125671589D01*
X134936510Y-125722195D01*
X135066523Y-125735000D01*
X135066533Y-125735000D01*
X135109999Y-125739281D01*
X135153465Y-125735000D01*
X139656531Y-125735000D01*
X139700000Y-125739281D01*
X139743469Y-125735000D01*
X139743477Y-125735000D01*
X139873490Y-125722195D01*
X140040313Y-125671589D01*
X140194059Y-125589411D01*
X140328817Y-125478817D01*
X140356534Y-125445044D01*
X142295050Y-123506529D01*
X142328817Y-123478817D01*
X142381838Y-123414212D01*
X142439410Y-123344060D01*
X142439411Y-123344059D01*
X142521589Y-123190313D01*
X142572195Y-123023490D01*
X142585000Y-122893477D01*
X142585000Y-122893467D01*
X142589281Y-122850001D01*
X142585000Y-122806535D01*
X142585000Y-121320000D01*
X143059388Y-121320000D01*
X143081785Y-121547400D01*
X143148115Y-121766060D01*
X143249105Y-121955000D01*
X143148115Y-122143940D01*
X143081785Y-122362600D01*
X143059388Y-122590000D01*
X143081785Y-122817400D01*
X143148115Y-123036060D01*
X143255829Y-123237579D01*
X143400788Y-123414212D01*
X143577421Y-123559171D01*
X143778940Y-123666885D01*
X143997600Y-123733215D01*
X144168021Y-123750000D01*
X144731979Y-123750000D01*
X144902400Y-123733215D01*
X145121060Y-123666885D01*
X145322579Y-123559171D01*
X145499212Y-123414212D01*
X145644171Y-123237579D01*
X145751885Y-123036060D01*
X145818215Y-122817400D01*
X145840612Y-122590000D01*
X145818215Y-122362600D01*
X145751885Y-122143940D01*
X145650895Y-121955000D01*
X145751885Y-121766060D01*
X145818215Y-121547400D01*
X145840612Y-121320000D01*
X145825707Y-121168665D01*
X193965000Y-121168665D01*
X193965000Y-121451335D01*
X194020147Y-121728574D01*
X194128320Y-121989727D01*
X194285363Y-122224759D01*
X194485241Y-122424637D01*
X194720273Y-122581680D01*
X194981426Y-122689853D01*
X195258665Y-122745000D01*
X195541335Y-122745000D01*
X195818574Y-122689853D01*
X196079727Y-122581680D01*
X196314759Y-122424637D01*
X196514637Y-122224759D01*
X196671680Y-121989727D01*
X196779853Y-121728574D01*
X196835000Y-121451335D01*
X196835000Y-121168665D01*
X196779853Y-120891426D01*
X196671680Y-120630273D01*
X196514637Y-120395241D01*
X196314759Y-120195363D01*
X196079727Y-120038320D01*
X195818574Y-119930147D01*
X195541335Y-119875000D01*
X195258665Y-119875000D01*
X194981426Y-119930147D01*
X194720273Y-120038320D01*
X194485241Y-120195363D01*
X194285363Y-120395241D01*
X194128320Y-120630273D01*
X194020147Y-120891426D01*
X193965000Y-121168665D01*
X145825707Y-121168665D01*
X145818215Y-121092600D01*
X145754907Y-120883902D01*
X145789502Y-120819180D01*
X145825812Y-120699482D01*
X145838072Y-120575000D01*
X145838072Y-119525000D01*
X145825812Y-119400518D01*
X145789502Y-119280820D01*
X145730537Y-119170506D01*
X145651185Y-119073815D01*
X145554494Y-118994463D01*
X145444180Y-118935498D01*
X145324482Y-118899188D01*
X145200000Y-118886928D01*
X143700000Y-118886928D01*
X143575518Y-118899188D01*
X143455820Y-118935498D01*
X143345506Y-118994463D01*
X143248815Y-119073815D01*
X143169463Y-119170506D01*
X143110498Y-119280820D01*
X143074188Y-119400518D01*
X143061928Y-119525000D01*
X143061928Y-120575000D01*
X143074188Y-120699482D01*
X143110498Y-120819180D01*
X143145093Y-120883902D01*
X143081785Y-121092600D01*
X143059388Y-121320000D01*
X142585000Y-121320000D01*
X142585000Y-113328711D01*
X142703937Y-113209774D01*
X142817205Y-113040256D01*
X142895226Y-112851898D01*
X142935000Y-112651939D01*
X142935000Y-112448061D01*
X142895226Y-112248102D01*
X142817205Y-112059744D01*
X142703937Y-111890226D01*
X142559774Y-111746063D01*
X142390256Y-111632795D01*
X142201898Y-111554774D01*
X142001939Y-111515000D01*
X141798061Y-111515000D01*
X141598102Y-111554774D01*
X141409744Y-111632795D01*
X141294335Y-111709909D01*
X141306534Y-111695044D01*
X142132913Y-110868665D01*
X144365000Y-110868665D01*
X144365000Y-111151335D01*
X144420147Y-111428574D01*
X144528320Y-111689727D01*
X144685363Y-111924759D01*
X144885241Y-112124637D01*
X145120273Y-112281680D01*
X145381426Y-112389853D01*
X145658665Y-112445000D01*
X145941335Y-112445000D01*
X146218574Y-112389853D01*
X146479727Y-112281680D01*
X146714759Y-112124637D01*
X146914637Y-111924759D01*
X147071680Y-111689727D01*
X147179853Y-111428574D01*
X147235000Y-111151335D01*
X147235000Y-110868665D01*
X147179853Y-110591426D01*
X147071680Y-110330273D01*
X146914637Y-110095241D01*
X146714759Y-109895363D01*
X146479727Y-109738320D01*
X146218574Y-109630147D01*
X145941335Y-109575000D01*
X145658665Y-109575000D01*
X145381426Y-109630147D01*
X145120273Y-109738320D01*
X144885241Y-109895363D01*
X144685363Y-110095241D01*
X144528320Y-110330273D01*
X144420147Y-110591426D01*
X144365000Y-110868665D01*
X142132913Y-110868665D01*
X146395049Y-106606530D01*
X146428817Y-106578817D01*
X146512031Y-106477422D01*
X146539411Y-106444059D01*
X146621588Y-106290314D01*
X146621589Y-106290313D01*
X146672195Y-106123490D01*
X146685000Y-105993477D01*
X146685000Y-105993469D01*
X146689281Y-105950000D01*
X146685000Y-105906531D01*
X146685000Y-104048665D01*
X161565000Y-104048665D01*
X161565000Y-104331335D01*
X161620147Y-104608574D01*
X161728320Y-104869727D01*
X161885363Y-105104759D01*
X162085241Y-105304637D01*
X162320273Y-105461680D01*
X162581426Y-105569853D01*
X162858665Y-105625000D01*
X163141335Y-105625000D01*
X163418574Y-105569853D01*
X163679727Y-105461680D01*
X163914759Y-105304637D01*
X164114637Y-105104759D01*
X164271680Y-104869727D01*
X164379853Y-104608574D01*
X164409672Y-104458665D01*
X165565000Y-104458665D01*
X165565000Y-104741335D01*
X165620147Y-105018574D01*
X165728320Y-105279727D01*
X165885363Y-105514759D01*
X166085241Y-105714637D01*
X166320273Y-105871680D01*
X166581426Y-105979853D01*
X166858665Y-106035000D01*
X167141335Y-106035000D01*
X167418574Y-105979853D01*
X167679727Y-105871680D01*
X167914759Y-105714637D01*
X168114637Y-105514759D01*
X168271680Y-105279727D01*
X168379853Y-105018574D01*
X168435000Y-104741335D01*
X168435000Y-104458665D01*
X175725000Y-104458665D01*
X175725000Y-104741335D01*
X175780147Y-105018574D01*
X175888320Y-105279727D01*
X176045363Y-105514759D01*
X176245241Y-105714637D01*
X176480273Y-105871680D01*
X176741426Y-105979853D01*
X177018665Y-106035000D01*
X177301335Y-106035000D01*
X177578574Y-105979853D01*
X177839727Y-105871680D01*
X178074759Y-105714637D01*
X178274637Y-105514759D01*
X178431680Y-105279727D01*
X178539853Y-105018574D01*
X178595000Y-104741335D01*
X178595000Y-104458665D01*
X178539853Y-104181426D01*
X178431680Y-103920273D01*
X178274637Y-103685241D01*
X178074759Y-103485363D01*
X177839727Y-103328320D01*
X177578574Y-103220147D01*
X177301335Y-103165000D01*
X177018665Y-103165000D01*
X176741426Y-103220147D01*
X176480273Y-103328320D01*
X176245241Y-103485363D01*
X176045363Y-103685241D01*
X175888320Y-103920273D01*
X175780147Y-104181426D01*
X175725000Y-104458665D01*
X168435000Y-104458665D01*
X168428017Y-104423561D01*
X178995049Y-93856530D01*
X179028817Y-93828817D01*
X179139411Y-93694059D01*
X179162961Y-93650000D01*
X179221589Y-93540314D01*
X179272195Y-93373490D01*
X179278479Y-93309687D01*
X179285000Y-93243477D01*
X179285000Y-93243469D01*
X179289281Y-93200000D01*
X179285000Y-93156531D01*
X179285000Y-92734521D01*
X179314759Y-92714637D01*
X179514637Y-92514759D01*
X179671680Y-92279727D01*
X179779853Y-92018574D01*
X179835000Y-91741335D01*
X179835000Y-91458665D01*
X179779853Y-91181426D01*
X179671680Y-90920273D01*
X179514637Y-90685241D01*
X179314759Y-90485363D01*
X179079727Y-90328320D01*
X178818574Y-90220147D01*
X178541335Y-90165000D01*
X178258665Y-90165000D01*
X177981426Y-90220147D01*
X177720273Y-90328320D01*
X177485241Y-90485363D01*
X177285363Y-90685241D01*
X177128320Y-90920273D01*
X177020147Y-91181426D01*
X176965000Y-91458665D01*
X176965000Y-91741335D01*
X177020147Y-92018574D01*
X177128320Y-92279727D01*
X177285363Y-92514759D01*
X177485241Y-92714637D01*
X177515001Y-92734522D01*
X177515001Y-92833420D01*
X167176439Y-103171983D01*
X167141335Y-103165000D01*
X166858665Y-103165000D01*
X166581426Y-103220147D01*
X166320273Y-103328320D01*
X166085241Y-103485363D01*
X165885363Y-103685241D01*
X165728320Y-103920273D01*
X165620147Y-104181426D01*
X165565000Y-104458665D01*
X164409672Y-104458665D01*
X164435000Y-104331335D01*
X164435000Y-104048665D01*
X164379853Y-103771426D01*
X164271680Y-103510273D01*
X164114637Y-103275241D01*
X163914759Y-103075363D01*
X163679727Y-102918320D01*
X163418574Y-102810147D01*
X163141335Y-102755000D01*
X162858665Y-102755000D01*
X162581426Y-102810147D01*
X162320273Y-102918320D01*
X162085241Y-103075363D01*
X161885363Y-103275241D01*
X161728320Y-103510273D01*
X161620147Y-103771426D01*
X161565000Y-104048665D01*
X146685000Y-104048665D01*
X146685000Y-101984521D01*
X146714759Y-101964637D01*
X146914637Y-101764759D01*
X147071680Y-101529727D01*
X147179853Y-101268574D01*
X147235000Y-100991335D01*
X147235000Y-100708665D01*
X147179853Y-100431426D01*
X147071680Y-100170273D01*
X146914637Y-99935241D01*
X146714759Y-99735363D01*
X146479727Y-99578320D01*
X146218574Y-99470147D01*
X145941335Y-99415000D01*
X145658665Y-99415000D01*
X145381426Y-99470147D01*
X145120273Y-99578320D01*
X144885241Y-99735363D01*
X144685363Y-99935241D01*
X144528320Y-100170273D01*
X144420147Y-100431426D01*
X144365000Y-100708665D01*
X144365000Y-100991335D01*
X144420147Y-101268574D01*
X144528320Y-101529727D01*
X144685363Y-101764759D01*
X144885241Y-101964637D01*
X144915000Y-101984521D01*
X144915001Y-105583420D01*
X140283422Y-110215000D01*
X134834521Y-110215000D01*
X134814637Y-110185241D01*
X134614759Y-109985363D01*
X134379727Y-109828320D01*
X134118574Y-109720147D01*
X133841335Y-109665000D01*
X133558665Y-109665000D01*
X133281426Y-109720147D01*
X133020273Y-109828320D01*
X132785241Y-109985363D01*
X132585363Y-110185241D01*
X132428320Y-110420273D01*
X132320147Y-110681426D01*
X132265000Y-110958665D01*
X132265000Y-111241335D01*
X132320147Y-111518574D01*
X132428320Y-111779727D01*
X132585363Y-112014759D01*
X132785241Y-112214637D01*
X133020273Y-112371680D01*
X133281426Y-112479853D01*
X133558665Y-112535000D01*
X133841335Y-112535000D01*
X134118574Y-112479853D01*
X134379727Y-112371680D01*
X134614759Y-112214637D01*
X134814637Y-112014759D01*
X134834521Y-111985000D01*
X140606531Y-111985000D01*
X140650000Y-111989281D01*
X140693469Y-111985000D01*
X140693477Y-111985000D01*
X140823490Y-111972195D01*
X140990313Y-111921589D01*
X141144059Y-111839411D01*
X141159780Y-111826509D01*
X141096063Y-111890226D01*
X140982795Y-112059744D01*
X140904774Y-112248102D01*
X140865000Y-112448061D01*
X140865000Y-112453899D01*
X140827805Y-112576510D01*
X140810719Y-112750000D01*
X140815001Y-112793479D01*
X140815000Y-122483421D01*
X139333422Y-123965000D01*
X135476579Y-123965000D01*
X133456534Y-121944956D01*
X133428817Y-121911183D01*
X133294059Y-121800589D01*
X133140313Y-121718411D01*
X132973490Y-121667805D01*
X132869626Y-121657575D01*
X132918215Y-121497400D01*
X132940612Y-121270000D01*
X132918215Y-121042600D01*
X132854907Y-120833902D01*
X132889502Y-120769180D01*
X132925812Y-120649482D01*
X132938072Y-120525000D01*
X132938072Y-119979651D01*
X136143470Y-123185049D01*
X136171183Y-123218817D01*
X136204951Y-123246530D01*
X136204953Y-123246532D01*
X136245016Y-123279411D01*
X136305941Y-123329411D01*
X136459687Y-123411589D01*
X136626510Y-123462195D01*
X136756523Y-123475000D01*
X136756531Y-123475000D01*
X136800000Y-123479281D01*
X136843469Y-123475000D01*
X137074858Y-123475000D01*
X137177421Y-123559171D01*
X137378940Y-123666885D01*
X137597600Y-123733215D01*
X137768021Y-123750000D01*
X138331979Y-123750000D01*
X138502400Y-123733215D01*
X138721060Y-123666885D01*
X138922579Y-123559171D01*
X139099212Y-123414212D01*
X139244171Y-123237579D01*
X139351885Y-123036060D01*
X139418215Y-122817400D01*
X139440612Y-122590000D01*
X139418215Y-122362600D01*
X139351885Y-122143940D01*
X139250895Y-121955000D01*
X139351885Y-121766060D01*
X139418215Y-121547400D01*
X139440612Y-121320000D01*
X139418215Y-121092600D01*
X139354907Y-120883902D01*
X139389502Y-120819180D01*
X139425812Y-120699482D01*
X139438072Y-120575000D01*
X139438072Y-119525000D01*
X139425812Y-119400518D01*
X139389502Y-119280820D01*
X139330537Y-119170506D01*
X139251185Y-119073815D01*
X139154494Y-118994463D01*
X139044180Y-118935498D01*
X138924482Y-118899188D01*
X138800000Y-118886928D01*
X137300000Y-118886928D01*
X137175518Y-118899188D01*
X137055820Y-118935498D01*
X136945506Y-118994463D01*
X136848815Y-119073815D01*
X136769463Y-119170506D01*
X136710498Y-119280820D01*
X136674188Y-119400518D01*
X136661928Y-119525000D01*
X136661928Y-120575000D01*
X136674188Y-120699482D01*
X136710498Y-120819180D01*
X136745093Y-120883902D01*
X136681785Y-121092600D01*
X136670344Y-121208765D01*
X130570244Y-115108665D01*
X133165000Y-115108665D01*
X133165000Y-115391335D01*
X133220147Y-115668574D01*
X133328320Y-115929727D01*
X133485363Y-116164759D01*
X133685241Y-116364637D01*
X133920273Y-116521680D01*
X134181426Y-116629853D01*
X134458665Y-116685000D01*
X134741335Y-116685000D01*
X135018574Y-116629853D01*
X135279727Y-116521680D01*
X135514759Y-116364637D01*
X135714637Y-116164759D01*
X135871680Y-115929727D01*
X135979853Y-115668574D01*
X136035000Y-115391335D01*
X136035000Y-115108665D01*
X135979853Y-114831426D01*
X135871680Y-114570273D01*
X135714637Y-114335241D01*
X135514759Y-114135363D01*
X135279727Y-113978320D01*
X135018574Y-113870147D01*
X134741335Y-113815000D01*
X134458665Y-113815000D01*
X134181426Y-113870147D01*
X133920273Y-113978320D01*
X133685241Y-114135363D01*
X133485363Y-114335241D01*
X133328320Y-114570273D01*
X133220147Y-114831426D01*
X133165000Y-115108665D01*
X130570244Y-115108665D01*
X128115000Y-112653422D01*
X128115000Y-107688072D01*
X129025000Y-107688072D01*
X129149482Y-107675812D01*
X129269180Y-107639502D01*
X129379494Y-107580537D01*
X129476185Y-107501185D01*
X129555537Y-107404494D01*
X129614502Y-107294180D01*
X129650812Y-107174482D01*
X129663072Y-107050000D01*
X129663072Y-106068021D01*
X137450000Y-106068021D01*
X137450000Y-106631978D01*
X137466785Y-106802399D01*
X137533115Y-107021059D01*
X137640829Y-107222578D01*
X137785788Y-107399212D01*
X137962421Y-107544171D01*
X138163940Y-107651885D01*
X138382600Y-107718215D01*
X138610000Y-107740612D01*
X138837399Y-107718215D01*
X139056059Y-107651885D01*
X139244999Y-107550894D01*
X139433940Y-107651885D01*
X139652600Y-107718215D01*
X139880000Y-107740612D01*
X140107399Y-107718215D01*
X140316098Y-107654907D01*
X140380820Y-107689502D01*
X140500518Y-107725812D01*
X140625000Y-107738072D01*
X141675000Y-107738072D01*
X141799482Y-107725812D01*
X141919180Y-107689502D01*
X142029494Y-107630537D01*
X142126185Y-107551185D01*
X142205537Y-107454494D01*
X142264502Y-107344180D01*
X142300812Y-107224482D01*
X142313072Y-107100000D01*
X142313072Y-105600000D01*
X142300812Y-105475518D01*
X142264502Y-105355820D01*
X142205537Y-105245506D01*
X142126185Y-105148815D01*
X142029494Y-105069463D01*
X141919180Y-105010498D01*
X141799482Y-104974188D01*
X141675000Y-104961928D01*
X140625000Y-104961928D01*
X140500518Y-104974188D01*
X140380820Y-105010498D01*
X140316098Y-105045093D01*
X140107400Y-104981785D01*
X139880000Y-104959388D01*
X139652601Y-104981785D01*
X139433941Y-105048115D01*
X139245001Y-105149106D01*
X139056060Y-105048115D01*
X138837400Y-104981785D01*
X138610000Y-104959388D01*
X138382601Y-104981785D01*
X138163941Y-105048115D01*
X137962422Y-105155829D01*
X137785789Y-105300788D01*
X137640830Y-105477421D01*
X137533115Y-105678940D01*
X137466785Y-105897600D01*
X137450000Y-106068021D01*
X129663072Y-106068021D01*
X129663072Y-105550000D01*
X129650812Y-105425518D01*
X129614502Y-105305820D01*
X129555537Y-105195506D01*
X129476185Y-105098815D01*
X129379494Y-105019463D01*
X129269180Y-104960498D01*
X129149482Y-104924188D01*
X129025000Y-104911928D01*
X127975000Y-104911928D01*
X127850518Y-104924188D01*
X127730820Y-104960498D01*
X127666098Y-104995093D01*
X127457400Y-104931785D01*
X127230000Y-104909388D01*
X127002601Y-104931785D01*
X126783941Y-104998115D01*
X126595001Y-105099106D01*
X126406060Y-104998115D01*
X126187400Y-104931785D01*
X125960000Y-104909388D01*
X125732601Y-104931785D01*
X125513941Y-104998115D01*
X125312422Y-105105829D01*
X125135789Y-105250788D01*
X124990830Y-105427421D01*
X124883115Y-105628940D01*
X124816785Y-105847600D01*
X124800000Y-106018021D01*
X116160000Y-106018021D01*
X116160000Y-104448061D01*
X135065000Y-104448061D01*
X135065000Y-104651939D01*
X135104774Y-104851898D01*
X135182795Y-105040256D01*
X135296063Y-105209774D01*
X135440226Y-105353937D01*
X135609744Y-105467205D01*
X135798102Y-105545226D01*
X135998061Y-105585000D01*
X136201939Y-105585000D01*
X136401898Y-105545226D01*
X136590256Y-105467205D01*
X136759774Y-105353937D01*
X136903937Y-105209774D01*
X137017205Y-105040256D01*
X137095226Y-104851898D01*
X137135000Y-104651939D01*
X137135000Y-104448061D01*
X137095226Y-104248102D01*
X137017205Y-104059744D01*
X136985000Y-104011546D01*
X136985000Y-100800000D01*
X137466928Y-100800000D01*
X137466928Y-102300000D01*
X137479188Y-102424482D01*
X137515498Y-102544180D01*
X137574463Y-102654494D01*
X137653815Y-102751185D01*
X137750506Y-102830537D01*
X137860820Y-102889502D01*
X137980518Y-102925812D01*
X138105000Y-102938072D01*
X139155000Y-102938072D01*
X139279482Y-102925812D01*
X139399180Y-102889502D01*
X139463902Y-102854907D01*
X139672601Y-102918215D01*
X139900000Y-102940612D01*
X140127400Y-102918215D01*
X140346060Y-102851885D01*
X140535000Y-102750894D01*
X140723941Y-102851885D01*
X140942601Y-102918215D01*
X141170000Y-102940612D01*
X141397400Y-102918215D01*
X141616060Y-102851885D01*
X141817579Y-102744171D01*
X141994212Y-102599212D01*
X142139171Y-102422579D01*
X142246885Y-102221059D01*
X142313215Y-102002399D01*
X142330000Y-101831978D01*
X142330000Y-101268021D01*
X142313215Y-101097600D01*
X142246885Y-100878940D01*
X142139171Y-100677421D01*
X141994212Y-100500788D01*
X141817578Y-100355829D01*
X141616059Y-100248115D01*
X141397399Y-100181785D01*
X141170000Y-100159388D01*
X140942600Y-100181785D01*
X140723940Y-100248115D01*
X140535000Y-100349106D01*
X140346059Y-100248115D01*
X140127399Y-100181785D01*
X139900000Y-100159388D01*
X139672600Y-100181785D01*
X139463902Y-100245093D01*
X139399180Y-100210498D01*
X139279482Y-100174188D01*
X139155000Y-100161928D01*
X138105000Y-100161928D01*
X137980518Y-100174188D01*
X137860820Y-100210498D01*
X137750506Y-100269463D01*
X137653815Y-100348815D01*
X137574463Y-100445506D01*
X137515498Y-100555820D01*
X137479188Y-100675518D01*
X137466928Y-100800000D01*
X136985000Y-100800000D01*
X136985000Y-90795000D01*
X137141335Y-90795000D01*
X137418574Y-90739853D01*
X137679727Y-90631680D01*
X137914759Y-90474637D01*
X138114637Y-90274759D01*
X138271680Y-90039727D01*
X138379853Y-89778574D01*
X138435000Y-89501335D01*
X138435000Y-89218665D01*
X138379853Y-88941426D01*
X138271680Y-88680273D01*
X138114637Y-88445241D01*
X137914759Y-88245363D01*
X137679727Y-88088320D01*
X137418574Y-87980147D01*
X137141335Y-87925000D01*
X136858665Y-87925000D01*
X136581426Y-87980147D01*
X136320273Y-88088320D01*
X136085241Y-88245363D01*
X135885363Y-88445241D01*
X135728320Y-88680273D01*
X135620147Y-88941426D01*
X135565000Y-89218665D01*
X135565000Y-89501335D01*
X135571983Y-89536439D01*
X135504951Y-89603471D01*
X135471184Y-89631183D01*
X135443471Y-89664951D01*
X135443468Y-89664954D01*
X135360590Y-89765941D01*
X135278412Y-89919687D01*
X135227805Y-90086510D01*
X135210719Y-90260000D01*
X135215001Y-90303479D01*
X135215000Y-104011546D01*
X135182795Y-104059744D01*
X135104774Y-104248102D01*
X135065000Y-104448061D01*
X116160000Y-104448061D01*
X116160000Y-100798665D01*
X120565000Y-100798665D01*
X120565000Y-101081335D01*
X120620147Y-101358574D01*
X120728320Y-101619727D01*
X120885363Y-101854759D01*
X121085241Y-102054637D01*
X121320273Y-102211680D01*
X121581426Y-102319853D01*
X121858665Y-102375000D01*
X122141335Y-102375000D01*
X122418574Y-102319853D01*
X122679727Y-102211680D01*
X122914759Y-102054637D01*
X123114637Y-101854759D01*
X123271680Y-101619727D01*
X123379853Y-101358574D01*
X123435000Y-101081335D01*
X123435000Y-100798665D01*
X123415693Y-100701600D01*
X124820328Y-100701600D01*
X124820328Y-102201600D01*
X124832588Y-102326082D01*
X124868898Y-102445780D01*
X124927863Y-102556094D01*
X125007215Y-102652785D01*
X125103906Y-102732137D01*
X125214220Y-102791102D01*
X125333918Y-102827412D01*
X125458400Y-102839672D01*
X126508400Y-102839672D01*
X126632882Y-102827412D01*
X126752580Y-102791102D01*
X126817302Y-102756507D01*
X127026001Y-102819815D01*
X127253400Y-102842212D01*
X127480800Y-102819815D01*
X127699460Y-102753485D01*
X127888400Y-102652494D01*
X128077341Y-102753485D01*
X128296001Y-102819815D01*
X128523400Y-102842212D01*
X128750800Y-102819815D01*
X128969460Y-102753485D01*
X129170979Y-102645771D01*
X129347612Y-102500812D01*
X129492571Y-102324179D01*
X129600285Y-102122659D01*
X129666615Y-101903999D01*
X129683400Y-101733578D01*
X129683400Y-101169621D01*
X129666615Y-100999200D01*
X129605784Y-100798665D01*
X132265000Y-100798665D01*
X132265000Y-101081335D01*
X132320147Y-101358574D01*
X132428320Y-101619727D01*
X132585363Y-101854759D01*
X132785241Y-102054637D01*
X133020273Y-102211680D01*
X133281426Y-102319853D01*
X133558665Y-102375000D01*
X133841335Y-102375000D01*
X134118574Y-102319853D01*
X134379727Y-102211680D01*
X134614759Y-102054637D01*
X134814637Y-101854759D01*
X134971680Y-101619727D01*
X135079853Y-101358574D01*
X135135000Y-101081335D01*
X135135000Y-100798665D01*
X135079853Y-100521426D01*
X134971680Y-100260273D01*
X134814637Y-100025241D01*
X134614759Y-99825363D01*
X134379727Y-99668320D01*
X134118574Y-99560147D01*
X133841335Y-99505000D01*
X133558665Y-99505000D01*
X133281426Y-99560147D01*
X133020273Y-99668320D01*
X132785241Y-99825363D01*
X132585363Y-100025241D01*
X132428320Y-100260273D01*
X132320147Y-100521426D01*
X132265000Y-100798665D01*
X129605784Y-100798665D01*
X129600285Y-100780540D01*
X129492571Y-100579021D01*
X129347612Y-100402388D01*
X129170978Y-100257429D01*
X128969459Y-100149715D01*
X128750799Y-100083385D01*
X128523400Y-100060988D01*
X128296000Y-100083385D01*
X128077340Y-100149715D01*
X127888400Y-100250706D01*
X127699459Y-100149715D01*
X127480799Y-100083385D01*
X127253400Y-100060988D01*
X127026000Y-100083385D01*
X126817302Y-100146693D01*
X126752580Y-100112098D01*
X126632882Y-100075788D01*
X126508400Y-100063528D01*
X125458400Y-100063528D01*
X125333918Y-100075788D01*
X125214220Y-100112098D01*
X125103906Y-100171063D01*
X125007215Y-100250415D01*
X124927863Y-100347106D01*
X124868898Y-100457420D01*
X124832588Y-100577118D01*
X124820328Y-100701600D01*
X123415693Y-100701600D01*
X123379853Y-100521426D01*
X123271680Y-100260273D01*
X123114637Y-100025241D01*
X122914759Y-99825363D01*
X122679727Y-99668320D01*
X122418574Y-99560147D01*
X122141335Y-99505000D01*
X121858665Y-99505000D01*
X121581426Y-99560147D01*
X121320273Y-99668320D01*
X121085241Y-99825363D01*
X120885363Y-100025241D01*
X120728320Y-100260273D01*
X120620147Y-100521426D01*
X120565000Y-100798665D01*
X116160000Y-100798665D01*
X116160000Y-89206865D01*
X122664200Y-89206865D01*
X122664200Y-89489535D01*
X122719347Y-89766774D01*
X122827520Y-90027927D01*
X122984563Y-90262959D01*
X123184441Y-90462837D01*
X123419473Y-90619880D01*
X123680626Y-90728053D01*
X123957865Y-90783200D01*
X124240535Y-90783200D01*
X124517774Y-90728053D01*
X124778927Y-90619880D01*
X125013959Y-90462837D01*
X125213837Y-90262959D01*
X125370880Y-90027927D01*
X125479053Y-89766774D01*
X125534200Y-89489535D01*
X125534200Y-89218665D01*
X125815000Y-89218665D01*
X125815000Y-89501335D01*
X125870147Y-89778574D01*
X125978320Y-90039727D01*
X126135363Y-90274759D01*
X126335241Y-90474637D01*
X126570273Y-90631680D01*
X126831426Y-90739853D01*
X127108665Y-90795000D01*
X127391335Y-90795000D01*
X127668574Y-90739853D01*
X127929727Y-90631680D01*
X128164759Y-90474637D01*
X128364637Y-90274759D01*
X128521680Y-90039727D01*
X128629853Y-89778574D01*
X128685000Y-89501335D01*
X128685000Y-89218665D01*
X128683011Y-89208665D01*
X132365000Y-89208665D01*
X132365000Y-89491335D01*
X132420147Y-89768574D01*
X132528320Y-90029727D01*
X132685363Y-90264759D01*
X132885241Y-90464637D01*
X133120273Y-90621680D01*
X133381426Y-90729853D01*
X133658665Y-90785000D01*
X133941335Y-90785000D01*
X134218574Y-90729853D01*
X134479727Y-90621680D01*
X134714759Y-90464637D01*
X134914637Y-90264759D01*
X135071680Y-90029727D01*
X135179853Y-89768574D01*
X135235000Y-89491335D01*
X135235000Y-89208665D01*
X135179853Y-88931426D01*
X135071680Y-88670273D01*
X134914637Y-88435241D01*
X134714759Y-88235363D01*
X134479727Y-88078320D01*
X134218574Y-87970147D01*
X133941335Y-87915000D01*
X133658665Y-87915000D01*
X133381426Y-87970147D01*
X133120273Y-88078320D01*
X132885241Y-88235363D01*
X132685363Y-88435241D01*
X132528320Y-88670273D01*
X132420147Y-88931426D01*
X132365000Y-89208665D01*
X128683011Y-89208665D01*
X128629853Y-88941426D01*
X128521680Y-88680273D01*
X128364637Y-88445241D01*
X128164759Y-88245363D01*
X127929727Y-88088320D01*
X127668574Y-87980147D01*
X127391335Y-87925000D01*
X127108665Y-87925000D01*
X126831426Y-87980147D01*
X126570273Y-88088320D01*
X126335241Y-88245363D01*
X126135363Y-88445241D01*
X125978320Y-88680273D01*
X125870147Y-88941426D01*
X125815000Y-89218665D01*
X125534200Y-89218665D01*
X125534200Y-89206865D01*
X125479053Y-88929626D01*
X125370880Y-88668473D01*
X125213837Y-88433441D01*
X125013959Y-88233563D01*
X124778927Y-88076520D01*
X124517774Y-87968347D01*
X124240535Y-87913200D01*
X123957865Y-87913200D01*
X123680626Y-87968347D01*
X123419473Y-88076520D01*
X123184441Y-88233563D01*
X122984563Y-88433441D01*
X122827520Y-88668473D01*
X122719347Y-88929626D01*
X122664200Y-89206865D01*
X116160000Y-89206865D01*
X116160000Y-65600000D01*
X122846928Y-65600000D01*
X122846928Y-67100000D01*
X122859188Y-67224482D01*
X122895498Y-67344180D01*
X122954463Y-67454494D01*
X123033815Y-67551185D01*
X123130506Y-67630537D01*
X123240820Y-67689502D01*
X123360518Y-67725812D01*
X123485000Y-67738072D01*
X124535000Y-67738072D01*
X124659482Y-67725812D01*
X124779180Y-67689502D01*
X124843902Y-67654907D01*
X125052601Y-67718215D01*
X125280000Y-67740612D01*
X125507400Y-67718215D01*
X125726060Y-67651885D01*
X125915000Y-67550894D01*
X126103941Y-67651885D01*
X126322601Y-67718215D01*
X126550000Y-67740612D01*
X126777400Y-67718215D01*
X126996060Y-67651885D01*
X127197579Y-67544171D01*
X127374212Y-67399212D01*
X127519171Y-67222579D01*
X127626885Y-67021059D01*
X127693215Y-66802399D01*
X127710000Y-66631978D01*
X127710000Y-66068021D01*
X127693215Y-65897600D01*
X127626885Y-65678940D01*
X127519171Y-65477421D01*
X127374212Y-65300788D01*
X127197578Y-65155829D01*
X126996059Y-65048115D01*
X126777399Y-64981785D01*
X126550000Y-64959388D01*
X126322600Y-64981785D01*
X126103940Y-65048115D01*
X125915000Y-65149106D01*
X125726059Y-65048115D01*
X125507399Y-64981785D01*
X125280000Y-64959388D01*
X125052600Y-64981785D01*
X124843902Y-65045093D01*
X124779180Y-65010498D01*
X124659482Y-64974188D01*
X124535000Y-64961928D01*
X123485000Y-64961928D01*
X123360518Y-64974188D01*
X123240820Y-65010498D01*
X123130506Y-65069463D01*
X123033815Y-65148815D01*
X122954463Y-65245506D01*
X122895498Y-65355820D01*
X122859188Y-65475518D01*
X122846928Y-65600000D01*
X116160000Y-65600000D01*
X116160000Y-59377000D01*
X131875422Y-59377000D01*
X138643470Y-66145049D01*
G37*
X138643470Y-66145049D02*
X138671183Y-66178817D01*
X138704951Y-66206530D01*
X138704953Y-66206532D01*
X138776452Y-66265210D01*
X138805941Y-66289411D01*
X138959687Y-66371589D01*
X139126510Y-66422195D01*
X139256523Y-66435000D01*
X139256533Y-66435000D01*
X139299999Y-66439281D01*
X139343465Y-66435000D01*
X143611546Y-66435000D01*
X143659744Y-66467205D01*
X143848102Y-66545226D01*
X144048061Y-66585000D01*
X144251939Y-66585000D01*
X144451898Y-66545226D01*
X144640256Y-66467205D01*
X144809774Y-66353937D01*
X144953937Y-66209774D01*
X145067205Y-66040256D01*
X145145226Y-65851898D01*
X145156066Y-65797400D01*
X177158528Y-65797400D01*
X177158528Y-67297400D01*
X177170788Y-67421882D01*
X177207098Y-67541580D01*
X177266063Y-67651894D01*
X177345415Y-67748585D01*
X177442106Y-67827937D01*
X177552420Y-67886902D01*
X177672118Y-67923212D01*
X177796600Y-67935472D01*
X178846600Y-67935472D01*
X178971082Y-67923212D01*
X179090780Y-67886902D01*
X179155502Y-67852307D01*
X179364201Y-67915615D01*
X179591600Y-67938012D01*
X179819000Y-67915615D01*
X180037660Y-67849285D01*
X180226601Y-67748294D01*
X180415541Y-67849285D01*
X180634201Y-67915615D01*
X180861600Y-67938012D01*
X181089000Y-67915615D01*
X181307660Y-67849285D01*
X181509179Y-67741571D01*
X181685812Y-67596612D01*
X181830771Y-67419979D01*
X181938485Y-67218459D01*
X182004815Y-66999799D01*
X182021600Y-66829378D01*
X182021600Y-66265421D01*
X182004815Y-66095000D01*
X181938485Y-65876340D01*
X181830771Y-65674821D01*
X181685812Y-65498188D01*
X181509178Y-65353229D01*
X181307659Y-65245515D01*
X181088999Y-65179185D01*
X180861600Y-65156788D01*
X180634200Y-65179185D01*
X180415540Y-65245515D01*
X180226600Y-65346506D01*
X180037659Y-65245515D01*
X179818999Y-65179185D01*
X179591600Y-65156788D01*
X179364200Y-65179185D01*
X179155502Y-65242493D01*
X179090780Y-65207898D01*
X178971082Y-65171588D01*
X178846600Y-65159328D01*
X177796600Y-65159328D01*
X177672118Y-65171588D01*
X177552420Y-65207898D01*
X177442106Y-65266863D01*
X177345415Y-65346215D01*
X177266063Y-65442906D01*
X177207098Y-65553220D01*
X177170788Y-65672918D01*
X177158528Y-65797400D01*
X145156066Y-65797400D01*
X145185000Y-65651939D01*
X145185000Y-65448061D01*
X145145226Y-65248102D01*
X145067205Y-65059744D01*
X144953937Y-64890226D01*
X144809774Y-64746063D01*
X144640256Y-64632795D01*
X144451898Y-64554774D01*
X144251939Y-64515000D01*
X144048061Y-64515000D01*
X143848102Y-64554774D01*
X143659744Y-64632795D01*
X143611546Y-64665000D01*
X140924869Y-64665000D01*
X141040256Y-64617205D01*
X141088454Y-64585000D01*
X143542064Y-64585000D01*
X143585533Y-64589281D01*
X143628999Y-64585000D01*
X143629010Y-64585000D01*
X143759023Y-64572195D01*
X143925846Y-64521589D01*
X144079592Y-64439411D01*
X144214350Y-64328817D01*
X144242067Y-64295044D01*
X144928446Y-63608665D01*
X193365000Y-63608665D01*
X193365000Y-63891335D01*
X193420147Y-64168574D01*
X193528320Y-64429727D01*
X193685363Y-64664759D01*
X193885241Y-64864637D01*
X194120273Y-65021680D01*
X194381426Y-65129853D01*
X194658665Y-65185000D01*
X194941335Y-65185000D01*
X195218574Y-65129853D01*
X195479727Y-65021680D01*
X195714759Y-64864637D01*
X195914637Y-64664759D01*
X196071680Y-64429727D01*
X196179853Y-64168574D01*
X196235000Y-63891335D01*
X196235000Y-63608665D01*
X196179853Y-63331426D01*
X196071680Y-63070273D01*
X195914637Y-62835241D01*
X195714759Y-62635363D01*
X195479727Y-62478320D01*
X195218574Y-62370147D01*
X194941335Y-62315000D01*
X194658665Y-62315000D01*
X194381426Y-62370147D01*
X194120273Y-62478320D01*
X193885241Y-62635363D01*
X193685363Y-62835241D01*
X193528320Y-63070273D01*
X193420147Y-63331426D01*
X193365000Y-63608665D01*
X144928446Y-63608665D01*
X149160111Y-59377000D01*
X214840000Y-59377000D01*
X214840001Y-127123000D01*
X206384999Y-127123000D01*
X206384999Y-122574395D01*
X206385241Y-122574637D01*
X206620273Y-122731680D01*
X206881426Y-122839853D01*
X207158665Y-122895000D01*
X207441335Y-122895000D01*
X207718574Y-122839853D01*
X207979727Y-122731680D01*
X208214759Y-122574637D01*
X208414637Y-122374759D01*
X208571680Y-122139727D01*
X208679853Y-121878574D01*
X208735000Y-121601335D01*
X208735000Y-121318665D01*
X208679853Y-121041426D01*
X208571680Y-120780273D01*
X208414637Y-120545241D01*
X208214759Y-120345363D01*
X207979727Y-120188320D01*
X207718574Y-120080147D01*
X207441335Y-120025000D01*
X207158665Y-120025000D01*
X206881426Y-120080147D01*
X206620273Y-120188320D01*
X206385241Y-120345363D01*
X206384999Y-120345605D01*
X206384999Y-116998468D01*
X206389280Y-116954999D01*
X206384999Y-116911530D01*
X206384999Y-116911522D01*
X206372194Y-116781509D01*
X206321588Y-116614686D01*
X206239410Y-116460940D01*
X206181447Y-116390312D01*
X206156531Y-116359952D01*
X206156529Y-116359950D01*
X206128816Y-116326182D01*
X206095049Y-116298470D01*
X204130000Y-114333422D01*
X204130000Y-113918021D01*
X204113215Y-113747600D01*
X204046885Y-113528940D01*
X203939171Y-113327421D01*
X203794212Y-113150788D01*
X203617578Y-113005829D01*
X203416059Y-112898115D01*
X203197399Y-112831785D01*
X202970000Y-112809388D01*
X202742600Y-112831785D01*
X202523940Y-112898115D01*
X202496514Y-112912774D01*
X202439411Y-112805941D01*
X202393501Y-112750000D01*
X202356532Y-112704953D01*
X202356530Y-112704951D01*
X202328817Y-112671183D01*
X202295049Y-112643470D01*
X201836579Y-112185000D01*
X206165479Y-112185000D01*
X206185363Y-112214759D01*
X206385241Y-112414637D01*
X206620273Y-112571680D01*
X206881426Y-112679853D01*
X207158665Y-112735000D01*
X207441335Y-112735000D01*
X207718574Y-112679853D01*
X207979727Y-112571680D01*
X208214759Y-112414637D01*
X208414637Y-112214759D01*
X208571680Y-111979727D01*
X208679853Y-111718574D01*
X208735000Y-111441335D01*
X208735000Y-111158665D01*
X208679853Y-110881426D01*
X208571680Y-110620273D01*
X208414637Y-110385241D01*
X208214759Y-110185363D01*
X207979727Y-110028320D01*
X207718574Y-109920147D01*
X207441335Y-109865000D01*
X207158665Y-109865000D01*
X206881426Y-109920147D01*
X206620273Y-110028320D01*
X206385241Y-110185363D01*
X206185363Y-110385241D01*
X206165479Y-110415000D01*
X200966579Y-110415000D01*
X197151579Y-106600000D01*
X199186928Y-106600000D01*
X199186928Y-108100000D01*
X199199188Y-108224482D01*
X199235498Y-108344180D01*
X199294463Y-108454494D01*
X199373815Y-108551185D01*
X199470506Y-108630537D01*
X199580820Y-108689502D01*
X199700518Y-108725812D01*
X199825000Y-108738072D01*
X200875000Y-108738072D01*
X200999482Y-108725812D01*
X201119180Y-108689502D01*
X201183902Y-108654907D01*
X201392601Y-108718215D01*
X201620000Y-108740612D01*
X201847400Y-108718215D01*
X202066060Y-108651885D01*
X202255001Y-108550894D01*
X202443941Y-108651885D01*
X202662601Y-108718215D01*
X202890000Y-108740612D01*
X203117400Y-108718215D01*
X203336060Y-108651885D01*
X203537579Y-108544171D01*
X203714212Y-108399212D01*
X203859171Y-108222579D01*
X203966885Y-108021059D01*
X204033215Y-107802399D01*
X204050000Y-107631978D01*
X204050000Y-107068021D01*
X204033215Y-106897600D01*
X203966885Y-106678940D01*
X203859171Y-106477421D01*
X203714212Y-106300788D01*
X203537578Y-106155829D01*
X203336059Y-106048115D01*
X203117399Y-105981785D01*
X202890000Y-105959388D01*
X202662600Y-105981785D01*
X202443940Y-106048115D01*
X202254999Y-106149106D01*
X202066059Y-106048115D01*
X201847399Y-105981785D01*
X201620000Y-105959388D01*
X201392600Y-105981785D01*
X201183902Y-106045093D01*
X201119180Y-106010498D01*
X200999482Y-105974188D01*
X200875000Y-105961928D01*
X199825000Y-105961928D01*
X199700518Y-105974188D01*
X199580820Y-106010498D01*
X199470506Y-106069463D01*
X199373815Y-106148815D01*
X199294463Y-106245506D01*
X199235498Y-106355820D01*
X199199188Y-106475518D01*
X199186928Y-106600000D01*
X197151579Y-106600000D01*
X193435000Y-102883422D01*
X193435000Y-99418021D01*
X199200000Y-99418021D01*
X199200000Y-99981978D01*
X199216785Y-100152399D01*
X199283115Y-100371059D01*
X199390829Y-100572578D01*
X199535788Y-100749212D01*
X199712421Y-100894171D01*
X199913940Y-101001885D01*
X200132600Y-101068215D01*
X200360000Y-101090612D01*
X200587399Y-101068215D01*
X200806059Y-101001885D01*
X200994999Y-100900894D01*
X201183940Y-101001885D01*
X201402600Y-101068215D01*
X201630000Y-101090612D01*
X201857399Y-101068215D01*
X202066098Y-101004907D01*
X202130820Y-101039502D01*
X202250518Y-101075812D01*
X202375000Y-101088072D01*
X203425000Y-101088072D01*
X203549482Y-101075812D01*
X203669180Y-101039502D01*
X203779494Y-100980537D01*
X203876185Y-100901185D01*
X203955537Y-100804494D01*
X204014502Y-100694180D01*
X204050812Y-100574482D01*
X204063072Y-100450000D01*
X204063072Y-98950000D01*
X204050812Y-98825518D01*
X204014502Y-98705820D01*
X203955537Y-98595506D01*
X203876185Y-98498815D01*
X203779494Y-98419463D01*
X203669180Y-98360498D01*
X203549482Y-98324188D01*
X203425000Y-98311928D01*
X202375000Y-98311928D01*
X202250518Y-98324188D01*
X202130820Y-98360498D01*
X202066098Y-98395093D01*
X201857400Y-98331785D01*
X201630000Y-98309388D01*
X201402601Y-98331785D01*
X201183941Y-98398115D01*
X200995001Y-98499106D01*
X200806060Y-98398115D01*
X200587400Y-98331785D01*
X200360000Y-98309388D01*
X200132601Y-98331785D01*
X199913941Y-98398115D01*
X199712422Y-98505829D01*
X199535789Y-98650788D01*
X199390830Y-98827421D01*
X199283115Y-99028940D01*
X199216785Y-99247600D01*
X199200000Y-99418021D01*
X193435000Y-99418021D01*
X193435000Y-91443469D01*
X193439281Y-91400000D01*
X193435000Y-91356531D01*
X193435000Y-91356523D01*
X193422195Y-91226510D01*
X193371589Y-91059687D01*
X193289411Y-90905941D01*
X193252191Y-90860589D01*
X193206532Y-90804953D01*
X193206530Y-90804951D01*
X193178817Y-90771183D01*
X193145049Y-90743470D01*
X191836578Y-89435000D01*
X198266531Y-89435000D01*
X198310000Y-89439281D01*
X198353469Y-89435000D01*
X198353477Y-89435000D01*
X198483490Y-89422195D01*
X198650313Y-89371589D01*
X198804059Y-89289411D01*
X198938817Y-89178817D01*
X198966534Y-89145044D01*
X200623561Y-87488017D01*
X200658665Y-87495000D01*
X200941335Y-87495000D01*
X201218574Y-87439853D01*
X201479727Y-87331680D01*
X201714759Y-87174637D01*
X201914637Y-86974759D01*
X202071680Y-86739727D01*
X202179853Y-86478574D01*
X202235000Y-86201335D01*
X202235000Y-85918665D01*
X202179853Y-85641426D01*
X202071680Y-85380273D01*
X201914637Y-85145241D01*
X201714759Y-84945363D01*
X201479727Y-84788320D01*
X201218574Y-84680147D01*
X200941335Y-84625000D01*
X200658665Y-84625000D01*
X200381426Y-84680147D01*
X200120273Y-84788320D01*
X199885241Y-84945363D01*
X199685363Y-85145241D01*
X199528320Y-85380273D01*
X199420147Y-85641426D01*
X199365000Y-85918665D01*
X199365000Y-86201335D01*
X199371983Y-86236439D01*
X197943422Y-87665000D01*
X182306579Y-87665000D01*
X181816343Y-87174765D01*
X181859171Y-87122579D01*
X181966885Y-86921059D01*
X182033215Y-86702399D01*
X182050000Y-86531978D01*
X182050000Y-85968021D01*
X182046748Y-85934999D01*
X183226532Y-85934999D01*
X183270001Y-85939280D01*
X183313470Y-85934999D01*
X183313478Y-85934999D01*
X183443491Y-85922194D01*
X183610314Y-85871588D01*
X183764060Y-85789410D01*
X183898818Y-85678816D01*
X183926535Y-85645043D01*
X184262913Y-85308665D01*
X184765000Y-85308665D01*
X184765000Y-85591335D01*
X184820147Y-85868574D01*
X184928320Y-86129727D01*
X185085363Y-86364759D01*
X185285241Y-86564637D01*
X185520273Y-86721680D01*
X185781426Y-86829853D01*
X186058665Y-86885000D01*
X186341335Y-86885000D01*
X186618574Y-86829853D01*
X186879727Y-86721680D01*
X187114759Y-86564637D01*
X187314637Y-86364759D01*
X187471680Y-86129727D01*
X187579853Y-85868574D01*
X187635000Y-85591335D01*
X187635000Y-85308665D01*
X194925000Y-85308665D01*
X194925000Y-85591335D01*
X194980147Y-85868574D01*
X195088320Y-86129727D01*
X195245363Y-86364759D01*
X195445241Y-86564637D01*
X195680273Y-86721680D01*
X195941426Y-86829853D01*
X196218665Y-86885000D01*
X196501335Y-86885000D01*
X196778574Y-86829853D01*
X197039727Y-86721680D01*
X197274759Y-86564637D01*
X197474637Y-86364759D01*
X197631680Y-86129727D01*
X197739853Y-85868574D01*
X197795000Y-85591335D01*
X197795000Y-85308665D01*
X197739853Y-85031426D01*
X197631680Y-84770273D01*
X197474637Y-84535241D01*
X197274759Y-84335363D01*
X197039727Y-84178320D01*
X196778574Y-84070147D01*
X196501335Y-84015000D01*
X196218665Y-84015000D01*
X195941426Y-84070147D01*
X195680273Y-84178320D01*
X195445241Y-84335363D01*
X195245363Y-84535241D01*
X195088320Y-84770273D01*
X194980147Y-85031426D01*
X194925000Y-85308665D01*
X187635000Y-85308665D01*
X187579853Y-85031426D01*
X187471680Y-84770273D01*
X187314637Y-84535241D01*
X187114759Y-84335363D01*
X186879727Y-84178320D01*
X186618574Y-84070147D01*
X186341335Y-84015000D01*
X186058665Y-84015000D01*
X185781426Y-84070147D01*
X185520273Y-84178320D01*
X185285241Y-84335363D01*
X185085363Y-84535241D01*
X184928320Y-84770273D01*
X184820147Y-85031426D01*
X184765000Y-85308665D01*
X184262913Y-85308665D01*
X188015049Y-81556530D01*
X188048817Y-81528817D01*
X188076533Y-81495046D01*
X188159411Y-81394059D01*
X188182527Y-81350812D01*
X188241589Y-81240313D01*
X188292195Y-81073490D01*
X188302425Y-80969626D01*
X188462601Y-81018215D01*
X188690000Y-81040612D01*
X188917400Y-81018215D01*
X189136060Y-80951885D01*
X189337579Y-80844171D01*
X189514212Y-80699212D01*
X189659171Y-80522579D01*
X189766885Y-80321059D01*
X189833215Y-80102399D01*
X189850000Y-79931978D01*
X189850000Y-79368021D01*
X189833215Y-79197600D01*
X189766885Y-78978940D01*
X189659171Y-78777421D01*
X189540386Y-78632681D01*
X189511589Y-78537751D01*
X189429411Y-78384005D01*
X189399957Y-78348115D01*
X189346532Y-78283017D01*
X189346530Y-78283015D01*
X189318817Y-78249247D01*
X189285049Y-78221534D01*
X187848514Y-76785000D01*
X193862673Y-76785000D01*
X193800788Y-76835788D01*
X193655829Y-77012421D01*
X193548115Y-77213940D01*
X193481785Y-77432600D01*
X193459388Y-77660000D01*
X193481785Y-77887400D01*
X193548115Y-78106060D01*
X193649105Y-78295000D01*
X193548115Y-78483940D01*
X193481785Y-78702600D01*
X193459388Y-78930000D01*
X193481785Y-79157400D01*
X193545093Y-79366098D01*
X193510498Y-79430820D01*
X193474188Y-79550518D01*
X193461928Y-79675000D01*
X193461928Y-80725000D01*
X193474188Y-80849482D01*
X193510498Y-80969180D01*
X193569463Y-81079494D01*
X193648815Y-81176185D01*
X193745506Y-81255537D01*
X193855820Y-81314502D01*
X193975518Y-81350812D01*
X194100000Y-81363072D01*
X195600000Y-81363072D01*
X195724482Y-81350812D01*
X195844180Y-81314502D01*
X195954494Y-81255537D01*
X196051185Y-81176185D01*
X196130537Y-81079494D01*
X196189502Y-80969180D01*
X196225812Y-80849482D01*
X196238072Y-80725000D01*
X196238072Y-79675000D01*
X196225812Y-79550518D01*
X196189502Y-79430820D01*
X196154907Y-79366098D01*
X196218215Y-79157400D01*
X196240612Y-78930000D01*
X196218215Y-78702600D01*
X196151885Y-78483940D01*
X196050895Y-78295000D01*
X196151885Y-78106060D01*
X196218215Y-77887400D01*
X196240612Y-77660000D01*
X196218215Y-77432600D01*
X196151885Y-77213940D01*
X196044171Y-77012421D01*
X195899212Y-76835788D01*
X195837327Y-76785000D01*
X199665479Y-76785000D01*
X199685363Y-76814759D01*
X199885241Y-77014637D01*
X200120273Y-77171680D01*
X200381426Y-77279853D01*
X200658665Y-77335000D01*
X200941335Y-77335000D01*
X201218574Y-77279853D01*
X201479727Y-77171680D01*
X201714759Y-77014637D01*
X201914637Y-76814759D01*
X202071680Y-76579727D01*
X202179853Y-76318574D01*
X202235000Y-76041335D01*
X202235000Y-75758665D01*
X202179853Y-75481426D01*
X202071680Y-75220273D01*
X201914637Y-74985241D01*
X201714759Y-74785363D01*
X201479727Y-74628320D01*
X201218574Y-74520147D01*
X200941335Y-74465000D01*
X200658665Y-74465000D01*
X200381426Y-74520147D01*
X200120273Y-74628320D01*
X199885241Y-74785363D01*
X199685363Y-74985241D01*
X199665479Y-75015000D01*
X195724396Y-75015000D01*
X195914637Y-74824759D01*
X196071680Y-74589727D01*
X196179853Y-74328574D01*
X196235000Y-74051335D01*
X196235000Y-73768665D01*
X196179853Y-73491426D01*
X196071680Y-73230273D01*
X195914637Y-72995241D01*
X195714759Y-72795363D01*
X195479727Y-72638320D01*
X195218574Y-72530147D01*
X194941335Y-72475000D01*
X194658665Y-72475000D01*
X194381426Y-72530147D01*
X194120273Y-72638320D01*
X193885241Y-72795363D01*
X193685363Y-72995241D01*
X193528320Y-73230273D01*
X193420147Y-73491426D01*
X193365000Y-73768665D01*
X193365000Y-74051335D01*
X193420147Y-74328574D01*
X193528320Y-74589727D01*
X193685363Y-74824759D01*
X193875604Y-75015000D01*
X179866579Y-75015000D01*
X179288090Y-74436512D01*
X179392601Y-74468215D01*
X179620000Y-74490612D01*
X179847400Y-74468215D01*
X180066060Y-74401885D01*
X180255000Y-74300894D01*
X180443941Y-74401885D01*
X180662601Y-74468215D01*
X180890000Y-74490612D01*
X181117400Y-74468215D01*
X181336060Y-74401885D01*
X181537579Y-74294171D01*
X181714212Y-74149212D01*
X181859171Y-73972579D01*
X181966885Y-73771059D01*
X182033215Y-73552399D01*
X182050000Y-73381978D01*
X182050000Y-72818021D01*
X182033215Y-72647600D01*
X181966885Y-72428940D01*
X181859171Y-72227421D01*
X181714212Y-72050788D01*
X181537578Y-71905829D01*
X181336059Y-71798115D01*
X181117399Y-71731785D01*
X180890000Y-71709388D01*
X180662600Y-71731785D01*
X180443940Y-71798115D01*
X180381178Y-71831662D01*
X180359411Y-71790939D01*
X180335210Y-71761450D01*
X180276532Y-71689951D01*
X180276530Y-71689949D01*
X180248817Y-71656181D01*
X180215049Y-71628468D01*
X179371580Y-70785000D01*
X184628424Y-70785000D01*
X185558010Y-71714586D01*
X185460518Y-71724188D01*
X185340820Y-71760498D01*
X185230506Y-71819463D01*
X185133815Y-71898815D01*
X185054463Y-71995506D01*
X184995498Y-72105820D01*
X184959188Y-72225518D01*
X184946928Y-72350000D01*
X184946928Y-73850000D01*
X184959188Y-73974482D01*
X184995498Y-74094180D01*
X185054463Y-74204494D01*
X185133815Y-74301185D01*
X185230506Y-74380537D01*
X185340820Y-74439502D01*
X185460518Y-74475812D01*
X185585000Y-74488072D01*
X186635000Y-74488072D01*
X186759482Y-74475812D01*
X186879180Y-74439502D01*
X186943902Y-74404907D01*
X187152601Y-74468215D01*
X187380000Y-74490612D01*
X187607400Y-74468215D01*
X187826060Y-74401885D01*
X188015000Y-74300894D01*
X188203941Y-74401885D01*
X188422601Y-74468215D01*
X188650000Y-74490612D01*
X188877400Y-74468215D01*
X189096060Y-74401885D01*
X189297579Y-74294171D01*
X189474212Y-74149212D01*
X189619171Y-73972579D01*
X189726885Y-73771059D01*
X189793215Y-73552399D01*
X189810000Y-73381978D01*
X189810000Y-72818021D01*
X189793215Y-72647600D01*
X189726885Y-72428940D01*
X189619171Y-72227421D01*
X189474212Y-72050788D01*
X189297578Y-71905829D01*
X189096059Y-71798115D01*
X188877399Y-71731785D01*
X188650000Y-71709388D01*
X188422600Y-71731785D01*
X188203940Y-71798115D01*
X188141178Y-71831662D01*
X188119411Y-71790939D01*
X188036532Y-71689951D01*
X188036530Y-71689949D01*
X188008817Y-71656181D01*
X187975049Y-71628468D01*
X185651536Y-69304956D01*
X185623819Y-69271183D01*
X185489061Y-69160589D01*
X185335315Y-69078411D01*
X185168492Y-69027805D01*
X185038479Y-69015000D01*
X185038471Y-69015000D01*
X184995002Y-69010719D01*
X184951533Y-69015000D01*
X135956579Y-69015000D01*
X134216343Y-67274765D01*
X134259171Y-67222579D01*
X134366885Y-67021059D01*
X134433215Y-66802399D01*
X134450000Y-66631978D01*
X134450000Y-66068021D01*
X134433215Y-65897600D01*
X134366885Y-65678940D01*
X134259171Y-65477421D01*
X134114212Y-65300788D01*
X133937578Y-65155829D01*
X133736059Y-65048115D01*
X133517399Y-64981785D01*
X133290000Y-64959388D01*
X133062600Y-64981785D01*
X132843940Y-65048115D01*
X132655000Y-65149106D01*
X132466059Y-65048115D01*
X132247399Y-64981785D01*
X132020000Y-64959388D01*
X131792600Y-64981785D01*
X131583902Y-65045093D01*
X131519180Y-65010498D01*
X131399482Y-64974188D01*
X131275000Y-64961928D01*
X130225000Y-64961928D01*
X130100518Y-64974188D01*
X129980820Y-65010498D01*
X129870506Y-65069463D01*
X129773815Y-65148815D01*
X129694463Y-65245506D01*
X129635498Y-65355820D01*
X129599188Y-65475518D01*
X129586928Y-65600000D01*
X129586928Y-67100000D01*
X129599188Y-67224482D01*
X129635498Y-67344180D01*
X129694463Y-67454494D01*
X129773815Y-67551185D01*
X129870506Y-67630537D01*
X129980820Y-67689502D01*
X130100518Y-67725812D01*
X130225000Y-67738072D01*
X131275000Y-67738072D01*
X131399482Y-67725812D01*
X131519180Y-67689502D01*
X131583902Y-67654907D01*
X131792601Y-67718215D01*
X132020000Y-67740612D01*
X132247400Y-67718215D01*
X132407576Y-67669626D01*
X132417805Y-67773489D01*
X132468411Y-67940312D01*
X132550589Y-68094058D01*
X132661183Y-68228817D01*
X132694956Y-68256534D01*
X134933470Y-70495049D01*
X134961183Y-70528817D01*
X134994951Y-70556530D01*
X134994953Y-70556532D01*
X135021613Y-70578411D01*
X135095941Y-70639411D01*
X135249687Y-70721589D01*
X135416510Y-70772195D01*
X135546523Y-70785000D01*
X135546533Y-70785000D01*
X135589999Y-70789281D01*
X135633465Y-70785000D01*
X139533421Y-70785000D01*
X138024956Y-72293466D01*
X137991183Y-72321183D01*
X137880589Y-72455942D01*
X137798411Y-72609688D01*
X137763157Y-72725904D01*
X137752909Y-72759687D01*
X137747805Y-72776511D01*
X137744317Y-72811928D01*
X136825000Y-72811928D01*
X136700518Y-72824188D01*
X136580820Y-72860498D01*
X136470506Y-72919463D01*
X136373815Y-72998815D01*
X136294463Y-73095506D01*
X136235498Y-73205820D01*
X136199188Y-73325518D01*
X136186928Y-73450000D01*
X136186928Y-74950000D01*
X136199188Y-75074482D01*
X136226646Y-75165000D01*
X134183323Y-75165000D01*
X134259171Y-75072579D01*
X134366885Y-74871059D01*
X134433215Y-74652399D01*
X134450000Y-74481978D01*
X134450000Y-73918021D01*
X134433215Y-73747600D01*
X134366885Y-73528940D01*
X134259171Y-73327421D01*
X134114212Y-73150788D01*
X133937578Y-73005829D01*
X133736059Y-72898115D01*
X133517399Y-72831785D01*
X133290000Y-72809388D01*
X133062600Y-72831785D01*
X132843940Y-72898115D01*
X132781178Y-72931662D01*
X132759411Y-72890939D01*
X132735210Y-72861450D01*
X132676532Y-72789951D01*
X132676530Y-72789949D01*
X132648817Y-72756181D01*
X132615049Y-72728468D01*
X130691536Y-70804956D01*
X130663819Y-70771183D01*
X130529061Y-70660589D01*
X130375315Y-70578411D01*
X130208492Y-70527805D01*
X130078479Y-70515000D01*
X130078471Y-70515000D01*
X130035002Y-70510719D01*
X129991533Y-70515000D01*
X126559597Y-70515000D01*
X126516128Y-70510719D01*
X126472659Y-70515000D01*
X126472651Y-70515000D01*
X126342638Y-70527805D01*
X126175814Y-70578411D01*
X126022069Y-70660589D01*
X125921081Y-70743468D01*
X125921079Y-70743470D01*
X125887311Y-70771183D01*
X125859598Y-70804951D01*
X123852622Y-72811928D01*
X123525000Y-72811928D01*
X123400518Y-72824188D01*
X123280820Y-72860498D01*
X123170506Y-72919463D01*
X123073815Y-72998815D01*
X122994463Y-73095506D01*
X122935498Y-73205820D01*
X122899188Y-73325518D01*
X122886928Y-73450000D01*
X122886928Y-74950000D01*
X122899188Y-75074482D01*
X122935498Y-75194180D01*
X122994463Y-75304494D01*
X123073815Y-75401185D01*
X123170506Y-75480537D01*
X123280820Y-75539502D01*
X123400518Y-75575812D01*
X123525000Y-75588072D01*
X124575000Y-75588072D01*
X124699482Y-75575812D01*
X124819180Y-75539502D01*
X124883902Y-75504907D01*
X125092601Y-75568215D01*
X125320000Y-75590612D01*
X125547400Y-75568215D01*
X125766060Y-75501885D01*
X125955001Y-75400894D01*
X126143941Y-75501885D01*
X126362601Y-75568215D01*
X126590000Y-75590612D01*
X126817400Y-75568215D01*
X127036060Y-75501885D01*
X127237579Y-75394171D01*
X127414212Y-75249212D01*
X127559171Y-75072579D01*
X127666885Y-74871059D01*
X127733215Y-74652399D01*
X127750000Y-74481978D01*
X127750000Y-73918021D01*
X127733215Y-73747600D01*
X127666885Y-73528940D01*
X127559171Y-73327421D01*
X127414212Y-73150788D01*
X127237578Y-73005829D01*
X127036059Y-72898115D01*
X126817399Y-72831785D01*
X126590000Y-72809388D01*
X126362600Y-72831785D01*
X126324305Y-72843402D01*
X126882707Y-72285000D01*
X129668424Y-72285000D01*
X130198010Y-72814586D01*
X130100518Y-72824188D01*
X129980820Y-72860498D01*
X129870506Y-72919463D01*
X129773815Y-72998815D01*
X129694463Y-73095506D01*
X129635498Y-73205820D01*
X129599188Y-73325518D01*
X129586928Y-73450000D01*
X129586928Y-74950000D01*
X129599188Y-75074482D01*
X129635498Y-75194180D01*
X129694463Y-75304494D01*
X129773815Y-75401185D01*
X129863130Y-75474484D01*
X129865000Y-75493469D01*
X129865000Y-75493476D01*
X129873109Y-75575812D01*
X129877678Y-75622195D01*
X129877805Y-75623489D01*
X129928411Y-75790312D01*
X130010589Y-75944058D01*
X130109844Y-76065000D01*
X126380865Y-76065000D01*
X126337399Y-76060719D01*
X126293933Y-76065000D01*
X126293923Y-76065000D01*
X126163910Y-76077805D01*
X125997087Y-76128411D01*
X125843341Y-76210589D01*
X125827621Y-76223490D01*
X125742353Y-76293468D01*
X125742351Y-76293470D01*
X125708583Y-76321183D01*
X125680870Y-76354951D01*
X124304157Y-77731665D01*
X124304152Y-77731669D01*
X124275638Y-77760183D01*
X124240535Y-77753200D01*
X123957865Y-77753200D01*
X123680626Y-77808347D01*
X123419473Y-77916520D01*
X123184441Y-78073563D01*
X122984563Y-78273441D01*
X122827520Y-78508473D01*
X122719347Y-78769626D01*
X122664200Y-79046865D01*
X122664200Y-79329535D01*
X122719347Y-79606774D01*
X122827520Y-79867927D01*
X122984563Y-80102959D01*
X123184441Y-80302837D01*
X123419473Y-80459880D01*
X123680626Y-80568053D01*
X123957865Y-80623200D01*
X124240535Y-80623200D01*
X124517774Y-80568053D01*
X124778927Y-80459880D01*
X125013959Y-80302837D01*
X125213837Y-80102959D01*
X125370880Y-79867927D01*
X125479053Y-79606774D01*
X125534200Y-79329535D01*
X125534200Y-79046865D01*
X125527217Y-79011762D01*
X125555731Y-78983248D01*
X125555735Y-78983243D01*
X125949763Y-78589215D01*
X125870147Y-78781426D01*
X125815000Y-79058665D01*
X125815000Y-79341335D01*
X125870147Y-79618574D01*
X125978320Y-79879727D01*
X126135363Y-80114759D01*
X126335241Y-80314637D01*
X126570273Y-80471680D01*
X126831426Y-80579853D01*
X127108665Y-80635000D01*
X127391335Y-80635000D01*
X127426439Y-80628017D01*
X127605001Y-80806580D01*
X127605002Y-84746522D01*
X127600720Y-84790001D01*
X127617806Y-84963491D01*
X127668413Y-85130314D01*
X127750591Y-85284060D01*
X127833469Y-85385047D01*
X127833472Y-85385050D01*
X127861185Y-85418818D01*
X127894952Y-85446530D01*
X128743470Y-86295049D01*
X128771183Y-86328817D01*
X128804951Y-86356530D01*
X128804953Y-86356532D01*
X128905941Y-86439411D01*
X129059687Y-86521589D01*
X129166725Y-86554059D01*
X129226509Y-86572195D01*
X129241306Y-86573652D01*
X129356523Y-86585000D01*
X129356531Y-86585000D01*
X129400000Y-86589281D01*
X129443469Y-86585000D01*
X139483422Y-86585000D01*
X142071983Y-89173562D01*
X142065000Y-89208665D01*
X142065000Y-89491335D01*
X142120147Y-89768574D01*
X142228320Y-90029727D01*
X142385363Y-90264759D01*
X142585241Y-90464637D01*
X142820273Y-90621680D01*
X143081426Y-90729853D01*
X143358665Y-90785000D01*
X143641335Y-90785000D01*
X143918574Y-90729853D01*
X144179727Y-90621680D01*
X144414759Y-90464637D01*
X144614637Y-90264759D01*
X144771680Y-90029727D01*
X144879853Y-89768574D01*
X144935000Y-89491335D01*
X144935000Y-89208665D01*
X144928017Y-89173561D01*
X157466579Y-76635000D01*
X175656531Y-76635000D01*
X175700000Y-76639281D01*
X175743469Y-76635000D01*
X175743477Y-76635000D01*
X175873490Y-76622195D01*
X176040313Y-76571589D01*
X176194059Y-76489411D01*
X176328817Y-76378817D01*
X176356534Y-76345044D01*
X177557272Y-75144307D01*
X177610589Y-75244058D01*
X177721183Y-75378817D01*
X177754956Y-75406534D01*
X178843470Y-76495049D01*
X178871183Y-76528817D01*
X178904951Y-76556530D01*
X178904953Y-76556532D01*
X179005941Y-76639411D01*
X179159686Y-76721589D01*
X179272932Y-76755942D01*
X179326510Y-76772195D01*
X179456523Y-76785000D01*
X179456531Y-76785000D01*
X179500000Y-76789281D01*
X179543469Y-76785000D01*
X179713421Y-76785000D01*
X179074956Y-77423466D01*
X179041183Y-77451183D01*
X178930589Y-77585942D01*
X178848411Y-77739688D01*
X178797805Y-77906511D01*
X178785000Y-78036524D01*
X178785000Y-78036531D01*
X178780719Y-78080000D01*
X178785000Y-78123469D01*
X178785000Y-78261928D01*
X177875000Y-78261928D01*
X177750518Y-78274188D01*
X177630820Y-78310498D01*
X177520506Y-78369463D01*
X177423815Y-78448815D01*
X177344463Y-78545506D01*
X177285498Y-78655820D01*
X177249188Y-78775518D01*
X177236928Y-78900000D01*
X177236928Y-80400000D01*
X177249188Y-80524482D01*
X177285498Y-80644180D01*
X177344463Y-80754494D01*
X177423815Y-80851185D01*
X177513130Y-80924484D01*
X177527805Y-81073490D01*
X177578412Y-81240313D01*
X177660590Y-81394059D01*
X177743468Y-81495046D01*
X177743469Y-81495047D01*
X177771184Y-81528817D01*
X177804951Y-81556529D01*
X179093470Y-82845049D01*
X179121183Y-82878817D01*
X179154951Y-82906530D01*
X179154953Y-82906532D01*
X179226452Y-82965210D01*
X179255941Y-82989411D01*
X179409687Y-83071589D01*
X179576510Y-83122195D01*
X179706523Y-83135000D01*
X179706533Y-83135000D01*
X179749999Y-83139281D01*
X179793465Y-83135000D01*
X183933422Y-83135000D01*
X182903423Y-84164999D01*
X156043467Y-84164999D01*
X156000000Y-84160718D01*
X155956534Y-84164999D01*
X155956524Y-84164999D01*
X155826511Y-84177804D01*
X155659688Y-84228410D01*
X155505942Y-84310588D01*
X155505940Y-84310589D01*
X155505941Y-84310589D01*
X155404954Y-84393467D01*
X155404952Y-84393469D01*
X155371184Y-84421182D01*
X155343471Y-84454950D01*
X147033422Y-92765000D01*
X138838454Y-92765000D01*
X138790256Y-92732795D01*
X138601898Y-92654774D01*
X138401939Y-92615000D01*
X138198061Y-92615000D01*
X137998102Y-92654774D01*
X137809744Y-92732795D01*
X137640226Y-92846063D01*
X137496063Y-92990226D01*
X137382795Y-93159744D01*
X137304774Y-93348102D01*
X137265000Y-93548061D01*
X137265000Y-93751939D01*
X137304774Y-93951898D01*
X137382795Y-94140256D01*
X137496063Y-94309774D01*
X137640226Y-94453937D01*
X137809744Y-94567205D01*
X137998102Y-94645226D01*
X138198061Y-94685000D01*
X138401939Y-94685000D01*
X138601898Y-94645226D01*
X138790256Y-94567205D01*
X138838454Y-94535000D01*
X147356531Y-94535000D01*
X147400000Y-94539281D01*
X147443469Y-94535000D01*
X147443477Y-94535000D01*
X147573490Y-94522195D01*
X147740313Y-94471589D01*
X147894059Y-94389411D01*
X148028817Y-94278817D01*
X148056534Y-94245044D01*
X156366580Y-85934999D01*
X177186928Y-85934999D01*
X177186928Y-87000000D01*
X177199188Y-87124482D01*
X177235498Y-87244180D01*
X177294463Y-87354494D01*
X177373815Y-87451185D01*
X177463130Y-87524484D01*
X177465000Y-87543469D01*
X177465000Y-87543476D01*
X177472361Y-87618215D01*
X177477805Y-87673490D01*
X177493157Y-87724096D01*
X177528411Y-87840312D01*
X177610589Y-87994058D01*
X177721183Y-88128817D01*
X177754956Y-88156534D01*
X180193470Y-90595049D01*
X180221183Y-90628817D01*
X180254951Y-90656530D01*
X180254953Y-90656532D01*
X180289935Y-90685241D01*
X180355941Y-90739411D01*
X180509687Y-90821589D01*
X180676510Y-90872195D01*
X180806523Y-90885000D01*
X180806531Y-90885000D01*
X180850000Y-90889281D01*
X180893469Y-90885000D01*
X187311889Y-90885000D01*
X187288320Y-90920273D01*
X187180147Y-91181426D01*
X187125000Y-91458665D01*
X187125000Y-91741335D01*
X187180147Y-92018574D01*
X187288320Y-92279727D01*
X187445363Y-92514759D01*
X187645241Y-92714637D01*
X187675000Y-92734521D01*
X187675000Y-92774846D01*
X187675001Y-92774856D01*
X187675000Y-113216531D01*
X187670719Y-113260000D01*
X187675000Y-113303469D01*
X187675000Y-113303476D01*
X187683473Y-113389502D01*
X187687805Y-113433490D01*
X187696026Y-113460589D01*
X187738411Y-113600312D01*
X187820589Y-113754058D01*
X187931183Y-113888817D01*
X187964956Y-113916534D01*
X189613421Y-115565000D01*
X177616579Y-115565000D01*
X175481235Y-113429656D01*
X175597400Y-113418215D01*
X175816060Y-113351885D01*
X176005001Y-113250894D01*
X176193941Y-113351885D01*
X176412601Y-113418215D01*
X176640000Y-113440612D01*
X176867400Y-113418215D01*
X177086060Y-113351885D01*
X177287579Y-113244171D01*
X177464212Y-113099212D01*
X177609171Y-112922579D01*
X177716885Y-112721059D01*
X177783215Y-112502399D01*
X177800000Y-112331978D01*
X177800000Y-111768021D01*
X177783215Y-111597600D01*
X177716885Y-111378940D01*
X177609171Y-111177421D01*
X177464212Y-111000788D01*
X177287578Y-110855829D01*
X177086059Y-110748115D01*
X176867399Y-110681785D01*
X176640000Y-110659388D01*
X176412600Y-110681785D01*
X176193940Y-110748115D01*
X176005000Y-110849106D01*
X175816059Y-110748115D01*
X175597399Y-110681785D01*
X175370000Y-110659388D01*
X175142600Y-110681785D01*
X174933902Y-110745093D01*
X174869180Y-110710498D01*
X174749482Y-110674188D01*
X174625000Y-110661928D01*
X173575000Y-110661928D01*
X173450518Y-110674188D01*
X173330820Y-110710498D01*
X173220506Y-110769463D01*
X173123815Y-110848815D01*
X173044463Y-110945506D01*
X172985498Y-111055820D01*
X172949941Y-111173035D01*
X172901510Y-111177805D01*
X172734687Y-111228411D01*
X172616963Y-111291335D01*
X172580941Y-111310589D01*
X172479953Y-111393468D01*
X172479951Y-111393470D01*
X172446183Y-111421183D01*
X172418470Y-111454951D01*
X171384547Y-112488874D01*
X171400000Y-112331978D01*
X171400000Y-111768021D01*
X171383215Y-111597600D01*
X171316885Y-111378940D01*
X171209171Y-111177421D01*
X171064212Y-111000788D01*
X170887578Y-110855829D01*
X170686059Y-110748115D01*
X170467399Y-110681785D01*
X170240000Y-110659388D01*
X170012600Y-110681785D01*
X169793940Y-110748115D01*
X169605000Y-110849106D01*
X169416059Y-110748115D01*
X169197399Y-110681785D01*
X168970000Y-110659388D01*
X168742600Y-110681785D01*
X168533902Y-110745093D01*
X168469180Y-110710498D01*
X168349482Y-110674188D01*
X168225000Y-110661928D01*
X167175000Y-110661928D01*
X167050518Y-110674188D01*
X166930820Y-110710498D01*
X166820506Y-110769463D01*
X166723815Y-110848815D01*
X166644463Y-110945506D01*
X166585498Y-111055820D01*
X166549188Y-111175518D01*
X166536928Y-111300000D01*
X166536928Y-112800000D01*
X166549188Y-112924482D01*
X166585498Y-113044180D01*
X166644463Y-113154494D01*
X166723815Y-113251185D01*
X166820506Y-113330537D01*
X166930820Y-113389502D01*
X167050518Y-113425812D01*
X167175000Y-113438072D01*
X168225000Y-113438072D01*
X168349482Y-113425812D01*
X168469180Y-113389502D01*
X168533902Y-113354907D01*
X168742601Y-113418215D01*
X168970000Y-113440612D01*
X169197400Y-113418215D01*
X169416060Y-113351885D01*
X169605001Y-113250894D01*
X169793941Y-113351885D01*
X170012601Y-113418215D01*
X170240000Y-113440612D01*
X170453874Y-113419547D01*
X168708423Y-115164999D01*
X164181294Y-115164999D01*
X164271680Y-115029727D01*
X164379853Y-114768574D01*
X164435000Y-114491335D01*
X164435000Y-114208665D01*
X164379853Y-113931426D01*
X164271680Y-113670273D01*
X164114637Y-113435241D01*
X163914759Y-113235363D01*
X163679727Y-113078320D01*
X163418574Y-112970147D01*
X163141335Y-112915000D01*
X162858665Y-112915000D01*
X162581426Y-112970147D01*
X162320273Y-113078320D01*
X162085241Y-113235363D01*
X161885363Y-113435241D01*
X161728320Y-113670273D01*
X161620147Y-113931426D01*
X161565000Y-114208665D01*
X161565000Y-114491335D01*
X161620147Y-114768574D01*
X161728320Y-115029727D01*
X161818706Y-115164999D01*
X146195000Y-115164999D01*
X146195000Y-115108665D01*
X146139853Y-114831426D01*
X146031680Y-114570273D01*
X145874637Y-114335241D01*
X145674759Y-114135363D01*
X145439727Y-113978320D01*
X145178574Y-113870147D01*
X144901335Y-113815000D01*
X144618665Y-113815000D01*
X144341426Y-113870147D01*
X144080273Y-113978320D01*
X143845241Y-114135363D01*
X143645363Y-114335241D01*
X143488320Y-114570273D01*
X143380147Y-114831426D01*
X143325000Y-115108665D01*
X143325000Y-115391335D01*
X143380147Y-115668574D01*
X143488320Y-115929727D01*
X143645363Y-116164759D01*
X143845241Y-116364637D01*
X144080273Y-116521680D01*
X144341426Y-116629853D01*
X144618665Y-116685000D01*
X144901335Y-116685000D01*
X144931424Y-116679015D01*
X144964950Y-116706529D01*
X144964952Y-116706531D01*
X145036451Y-116765209D01*
X145065940Y-116789410D01*
X145219686Y-116871588D01*
X145386509Y-116922194D01*
X145516522Y-116934999D01*
X145516532Y-116934999D01*
X145559998Y-116939280D01*
X145603464Y-116934999D01*
X169031532Y-116934999D01*
X169075001Y-116939280D01*
X169118470Y-116934999D01*
X169118478Y-116934999D01*
X169248491Y-116922194D01*
X169415314Y-116871588D01*
X169569060Y-116789410D01*
X169703818Y-116678816D01*
X169731535Y-116645043D01*
X173124682Y-113251897D01*
X173213130Y-113324484D01*
X173227805Y-113473490D01*
X173278412Y-113640313D01*
X173360590Y-113794059D01*
X173443468Y-113895046D01*
X173443471Y-113895049D01*
X173471184Y-113928817D01*
X173504951Y-113956529D01*
X176593470Y-117045049D01*
X176621183Y-117078817D01*
X176654951Y-117106530D01*
X176654953Y-117106532D01*
X176681708Y-117128489D01*
X176755941Y-117189411D01*
X176909687Y-117271589D01*
X177076510Y-117322195D01*
X177206523Y-117335000D01*
X177206531Y-117335000D01*
X177250000Y-117339281D01*
X177293469Y-117335000D01*
X191706533Y-117335000D01*
X191749999Y-117339281D01*
X191793465Y-117335000D01*
X199817294Y-117335000D01*
X200725695Y-118243402D01*
X200687400Y-118231785D01*
X200460000Y-118209388D01*
X200232601Y-118231785D01*
X200013941Y-118298115D01*
X199812422Y-118405829D01*
X199635789Y-118550788D01*
X199490830Y-118727421D01*
X199383115Y-118928940D01*
X199316785Y-119147600D01*
X199300000Y-119318021D01*
X199300000Y-119881978D01*
X199316785Y-120052399D01*
X199383115Y-120271059D01*
X199490829Y-120472578D01*
X199635788Y-120649212D01*
X199812421Y-120794171D01*
X200013940Y-120901885D01*
X200232600Y-120968215D01*
X200460000Y-120990612D01*
X200687399Y-120968215D01*
X200906059Y-120901885D01*
X201094999Y-120800894D01*
X201283940Y-120901885D01*
X201502600Y-120968215D01*
X201730000Y-120990612D01*
X201957399Y-120968215D01*
X202166098Y-120904907D01*
X202230820Y-120939502D01*
X202350518Y-120975812D01*
X202475000Y-120988072D01*
X203525000Y-120988072D01*
X203649482Y-120975812D01*
X203769180Y-120939502D01*
X203879494Y-120880537D01*
X203976185Y-120801185D01*
X204055537Y-120704494D01*
X204114502Y-120594180D01*
X204150812Y-120474482D01*
X204163072Y-120350000D01*
X204163072Y-118850000D01*
X204150812Y-118725518D01*
X204114502Y-118605820D01*
X204055537Y-118495506D01*
X203976185Y-118398815D01*
X203879494Y-118319463D01*
X203769180Y-118260498D01*
X203649482Y-118224188D01*
X203525000Y-118211928D01*
X203197379Y-118211928D01*
X200840406Y-115854956D01*
X200812689Y-115821183D01*
X200677931Y-115710589D01*
X200524185Y-115628411D01*
X200391207Y-115588072D01*
X200955000Y-115588072D01*
X201079482Y-115575812D01*
X201199180Y-115539502D01*
X201263902Y-115504907D01*
X201472601Y-115568215D01*
X201700000Y-115590612D01*
X201927400Y-115568215D01*
X202146060Y-115501885D01*
X202335000Y-115400894D01*
X202523941Y-115501885D01*
X202742601Y-115568215D01*
X202874642Y-115581220D01*
X204614999Y-117321578D01*
X204615000Y-127123000D01*
X116160000Y-127123000D01*
X116160000Y-121270000D01*
X123759388Y-121270000D01*
X123781785Y-121497400D01*
X123848115Y-121716060D01*
X123949105Y-121905000D01*
X123848115Y-122093940D01*
X123781785Y-122312600D01*
X123759388Y-122540000D01*
X123781785Y-122767400D01*
X123848115Y-122986060D01*
X123955829Y-123187579D01*
X124100788Y-123364212D01*
X124277421Y-123509171D01*
X124478940Y-123616885D01*
X124697600Y-123683215D01*
X124868021Y-123700000D01*
X125431979Y-123700000D01*
X125602400Y-123683215D01*
X125821060Y-123616885D01*
X126022579Y-123509171D01*
X126199212Y-123364212D01*
X126344171Y-123187579D01*
X126451885Y-122986060D01*
X126518215Y-122767400D01*
X126540612Y-122540000D01*
X126518215Y-122312600D01*
X126451885Y-122093940D01*
X126350895Y-121905000D01*
X126451885Y-121716060D01*
X126518215Y-121497400D01*
X126540612Y-121270000D01*
X126518215Y-121042600D01*
X126454907Y-120833902D01*
X126489502Y-120769180D01*
X126525812Y-120649482D01*
X126538072Y-120525000D01*
X126538072Y-119475000D01*
X126525812Y-119350518D01*
X126489502Y-119230820D01*
X126430537Y-119120506D01*
X126351185Y-119023815D01*
X126254494Y-118944463D01*
X126144180Y-118885498D01*
X126024482Y-118849188D01*
X125900000Y-118836928D01*
X124400000Y-118836928D01*
X124275518Y-118849188D01*
X124155820Y-118885498D01*
X124045506Y-118944463D01*
X123948815Y-119023815D01*
X123869463Y-119120506D01*
X123810498Y-119230820D01*
X123774188Y-119350518D01*
X123761928Y-119475000D01*
X123761928Y-120525000D01*
X123774188Y-120649482D01*
X123810498Y-120769180D01*
X123845093Y-120833902D01*
X123781785Y-121042600D01*
X123759388Y-121270000D01*
X116160000Y-121270000D01*
X116160000Y-110958665D01*
X120565000Y-110958665D01*
X120565000Y-111241335D01*
X120620147Y-111518574D01*
X120728320Y-111779727D01*
X120885363Y-112014759D01*
X121085241Y-112214637D01*
X121320273Y-112371680D01*
X121581426Y-112479853D01*
X121858665Y-112535000D01*
X122141335Y-112535000D01*
X122418574Y-112479853D01*
X122679727Y-112371680D01*
X122914759Y-112214637D01*
X123114637Y-112014759D01*
X123271680Y-111779727D01*
X123379853Y-111518574D01*
X123435000Y-111241335D01*
X123435000Y-110958665D01*
X123379853Y-110681426D01*
X123271680Y-110420273D01*
X123114637Y-110185241D01*
X122914759Y-109985363D01*
X122679727Y-109828320D01*
X122418574Y-109720147D01*
X122141335Y-109665000D01*
X121858665Y-109665000D01*
X121581426Y-109720147D01*
X121320273Y-109828320D01*
X121085241Y-109985363D01*
X120885363Y-110185241D01*
X120728320Y-110420273D01*
X120620147Y-110681426D01*
X120565000Y-110958665D01*
X116160000Y-110958665D01*
X116160000Y-106018021D01*
X124800000Y-106018021D01*
X124800000Y-106581978D01*
X124816785Y-106752399D01*
X124883115Y-106971059D01*
X124990829Y-107172578D01*
X125135788Y-107349212D01*
X125312421Y-107494171D01*
X125513940Y-107601885D01*
X125732600Y-107668215D01*
X125960000Y-107690612D01*
X126187399Y-107668215D01*
X126345001Y-107620407D01*
X126345000Y-112976531D01*
X126340719Y-113020000D01*
X126345000Y-113063469D01*
X126345000Y-113063476D01*
X126356212Y-113177314D01*
X126357805Y-113193490D01*
X126373145Y-113244059D01*
X126408411Y-113360312D01*
X126490589Y-113514058D01*
X126601183Y-113648817D01*
X126634956Y-113676534D01*
X131795349Y-118836928D01*
X130800000Y-118836928D01*
X130675518Y-118849188D01*
X130555820Y-118885498D01*
X130445506Y-118944463D01*
X130348815Y-119023815D01*
X130269463Y-119120506D01*
X130210498Y-119230820D01*
X130174188Y-119350518D01*
X130161928Y-119475000D01*
X130161928Y-120525000D01*
X130174188Y-120649482D01*
X130210498Y-120769180D01*
X130245093Y-120833902D01*
X130181785Y-121042600D01*
X130159388Y-121270000D01*
X130181785Y-121497400D01*
X130248115Y-121716060D01*
X130349105Y-121905000D01*
X130248115Y-122093940D01*
X130181785Y-122312600D01*
X130159388Y-122540000D01*
X130181785Y-122767400D01*
X130248115Y-122986060D01*
X130355829Y-123187579D01*
X130500788Y-123364212D01*
X130677421Y-123509171D01*
X130878940Y-123616885D01*
X131097600Y-123683215D01*
X131268021Y-123700000D01*
X131831979Y-123700000D01*
X132002400Y-123683215D01*
X132221060Y-123616885D01*
X132422579Y-123509171D01*
X132474765Y-123466343D01*
X134453470Y-125445049D01*
X134481183Y-125478817D01*
X134514951Y-125506530D01*
X134514953Y-125506532D01*
X134586452Y-125565210D01*
X134615941Y-125589411D01*
X134769687Y-125671589D01*
X134936510Y-125722195D01*
X135066523Y-125735000D01*
X135066533Y-125735000D01*
X135109999Y-125739281D01*
X135153465Y-125735000D01*
X139656531Y-125735000D01*
X139700000Y-125739281D01*
X139743469Y-125735000D01*
X139743477Y-125735000D01*
X139873490Y-125722195D01*
X140040313Y-125671589D01*
X140194059Y-125589411D01*
X140328817Y-125478817D01*
X140356534Y-125445044D01*
X142295050Y-123506529D01*
X142328817Y-123478817D01*
X142381838Y-123414212D01*
X142439410Y-123344060D01*
X142439411Y-123344059D01*
X142521589Y-123190313D01*
X142572195Y-123023490D01*
X142585000Y-122893477D01*
X142585000Y-122893467D01*
X142589281Y-122850001D01*
X142585000Y-122806535D01*
X142585000Y-121320000D01*
X143059388Y-121320000D01*
X143081785Y-121547400D01*
X143148115Y-121766060D01*
X143249105Y-121955000D01*
X143148115Y-122143940D01*
X143081785Y-122362600D01*
X143059388Y-122590000D01*
X143081785Y-122817400D01*
X143148115Y-123036060D01*
X143255829Y-123237579D01*
X143400788Y-123414212D01*
X143577421Y-123559171D01*
X143778940Y-123666885D01*
X143997600Y-123733215D01*
X144168021Y-123750000D01*
X144731979Y-123750000D01*
X144902400Y-123733215D01*
X145121060Y-123666885D01*
X145322579Y-123559171D01*
X145499212Y-123414212D01*
X145644171Y-123237579D01*
X145751885Y-123036060D01*
X145818215Y-122817400D01*
X145840612Y-122590000D01*
X145818215Y-122362600D01*
X145751885Y-122143940D01*
X145650895Y-121955000D01*
X145751885Y-121766060D01*
X145818215Y-121547400D01*
X145840612Y-121320000D01*
X145825707Y-121168665D01*
X193965000Y-121168665D01*
X193965000Y-121451335D01*
X194020147Y-121728574D01*
X194128320Y-121989727D01*
X194285363Y-122224759D01*
X194485241Y-122424637D01*
X194720273Y-122581680D01*
X194981426Y-122689853D01*
X195258665Y-122745000D01*
X195541335Y-122745000D01*
X195818574Y-122689853D01*
X196079727Y-122581680D01*
X196314759Y-122424637D01*
X196514637Y-122224759D01*
X196671680Y-121989727D01*
X196779853Y-121728574D01*
X196835000Y-121451335D01*
X196835000Y-121168665D01*
X196779853Y-120891426D01*
X196671680Y-120630273D01*
X196514637Y-120395241D01*
X196314759Y-120195363D01*
X196079727Y-120038320D01*
X195818574Y-119930147D01*
X195541335Y-119875000D01*
X195258665Y-119875000D01*
X194981426Y-119930147D01*
X194720273Y-120038320D01*
X194485241Y-120195363D01*
X194285363Y-120395241D01*
X194128320Y-120630273D01*
X194020147Y-120891426D01*
X193965000Y-121168665D01*
X145825707Y-121168665D01*
X145818215Y-121092600D01*
X145754907Y-120883902D01*
X145789502Y-120819180D01*
X145825812Y-120699482D01*
X145838072Y-120575000D01*
X145838072Y-119525000D01*
X145825812Y-119400518D01*
X145789502Y-119280820D01*
X145730537Y-119170506D01*
X145651185Y-119073815D01*
X145554494Y-118994463D01*
X145444180Y-118935498D01*
X145324482Y-118899188D01*
X145200000Y-118886928D01*
X143700000Y-118886928D01*
X143575518Y-118899188D01*
X143455820Y-118935498D01*
X143345506Y-118994463D01*
X143248815Y-119073815D01*
X143169463Y-119170506D01*
X143110498Y-119280820D01*
X143074188Y-119400518D01*
X143061928Y-119525000D01*
X143061928Y-120575000D01*
X143074188Y-120699482D01*
X143110498Y-120819180D01*
X143145093Y-120883902D01*
X143081785Y-121092600D01*
X143059388Y-121320000D01*
X142585000Y-121320000D01*
X142585000Y-113328711D01*
X142703937Y-113209774D01*
X142817205Y-113040256D01*
X142895226Y-112851898D01*
X142935000Y-112651939D01*
X142935000Y-112448061D01*
X142895226Y-112248102D01*
X142817205Y-112059744D01*
X142703937Y-111890226D01*
X142559774Y-111746063D01*
X142390256Y-111632795D01*
X142201898Y-111554774D01*
X142001939Y-111515000D01*
X141798061Y-111515000D01*
X141598102Y-111554774D01*
X141409744Y-111632795D01*
X141294335Y-111709909D01*
X141306534Y-111695044D01*
X142132913Y-110868665D01*
X144365000Y-110868665D01*
X144365000Y-111151335D01*
X144420147Y-111428574D01*
X144528320Y-111689727D01*
X144685363Y-111924759D01*
X144885241Y-112124637D01*
X145120273Y-112281680D01*
X145381426Y-112389853D01*
X145658665Y-112445000D01*
X145941335Y-112445000D01*
X146218574Y-112389853D01*
X146479727Y-112281680D01*
X146714759Y-112124637D01*
X146914637Y-111924759D01*
X147071680Y-111689727D01*
X147179853Y-111428574D01*
X147235000Y-111151335D01*
X147235000Y-110868665D01*
X147179853Y-110591426D01*
X147071680Y-110330273D01*
X146914637Y-110095241D01*
X146714759Y-109895363D01*
X146479727Y-109738320D01*
X146218574Y-109630147D01*
X145941335Y-109575000D01*
X145658665Y-109575000D01*
X145381426Y-109630147D01*
X145120273Y-109738320D01*
X144885241Y-109895363D01*
X144685363Y-110095241D01*
X144528320Y-110330273D01*
X144420147Y-110591426D01*
X144365000Y-110868665D01*
X142132913Y-110868665D01*
X146395049Y-106606530D01*
X146428817Y-106578817D01*
X146512031Y-106477422D01*
X146539411Y-106444059D01*
X146621588Y-106290314D01*
X146621589Y-106290313D01*
X146672195Y-106123490D01*
X146685000Y-105993477D01*
X146685000Y-105993469D01*
X146689281Y-105950000D01*
X146685000Y-105906531D01*
X146685000Y-104048665D01*
X161565000Y-104048665D01*
X161565000Y-104331335D01*
X161620147Y-104608574D01*
X161728320Y-104869727D01*
X161885363Y-105104759D01*
X162085241Y-105304637D01*
X162320273Y-105461680D01*
X162581426Y-105569853D01*
X162858665Y-105625000D01*
X163141335Y-105625000D01*
X163418574Y-105569853D01*
X163679727Y-105461680D01*
X163914759Y-105304637D01*
X164114637Y-105104759D01*
X164271680Y-104869727D01*
X164379853Y-104608574D01*
X164409672Y-104458665D01*
X165565000Y-104458665D01*
X165565000Y-104741335D01*
X165620147Y-105018574D01*
X165728320Y-105279727D01*
X165885363Y-105514759D01*
X166085241Y-105714637D01*
X166320273Y-105871680D01*
X166581426Y-105979853D01*
X166858665Y-106035000D01*
X167141335Y-106035000D01*
X167418574Y-105979853D01*
X167679727Y-105871680D01*
X167914759Y-105714637D01*
X168114637Y-105514759D01*
X168271680Y-105279727D01*
X168379853Y-105018574D01*
X168435000Y-104741335D01*
X168435000Y-104458665D01*
X175725000Y-104458665D01*
X175725000Y-104741335D01*
X175780147Y-105018574D01*
X175888320Y-105279727D01*
X176045363Y-105514759D01*
X176245241Y-105714637D01*
X176480273Y-105871680D01*
X176741426Y-105979853D01*
X177018665Y-106035000D01*
X177301335Y-106035000D01*
X177578574Y-105979853D01*
X177839727Y-105871680D01*
X178074759Y-105714637D01*
X178274637Y-105514759D01*
X178431680Y-105279727D01*
X178539853Y-105018574D01*
X178595000Y-104741335D01*
X178595000Y-104458665D01*
X178539853Y-104181426D01*
X178431680Y-103920273D01*
X178274637Y-103685241D01*
X178074759Y-103485363D01*
X177839727Y-103328320D01*
X177578574Y-103220147D01*
X177301335Y-103165000D01*
X177018665Y-103165000D01*
X176741426Y-103220147D01*
X176480273Y-103328320D01*
X176245241Y-103485363D01*
X176045363Y-103685241D01*
X175888320Y-103920273D01*
X175780147Y-104181426D01*
X175725000Y-104458665D01*
X168435000Y-104458665D01*
X168428017Y-104423561D01*
X178995049Y-93856530D01*
X179028817Y-93828817D01*
X179139411Y-93694059D01*
X179162961Y-93650000D01*
X179221589Y-93540314D01*
X179272195Y-93373490D01*
X179278479Y-93309687D01*
X179285000Y-93243477D01*
X179285000Y-93243469D01*
X179289281Y-93200000D01*
X179285000Y-93156531D01*
X179285000Y-92734521D01*
X179314759Y-92714637D01*
X179514637Y-92514759D01*
X179671680Y-92279727D01*
X179779853Y-92018574D01*
X179835000Y-91741335D01*
X179835000Y-91458665D01*
X179779853Y-91181426D01*
X179671680Y-90920273D01*
X179514637Y-90685241D01*
X179314759Y-90485363D01*
X179079727Y-90328320D01*
X178818574Y-90220147D01*
X178541335Y-90165000D01*
X178258665Y-90165000D01*
X177981426Y-90220147D01*
X177720273Y-90328320D01*
X177485241Y-90485363D01*
X177285363Y-90685241D01*
X177128320Y-90920273D01*
X177020147Y-91181426D01*
X176965000Y-91458665D01*
X176965000Y-91741335D01*
X177020147Y-92018574D01*
X177128320Y-92279727D01*
X177285363Y-92514759D01*
X177485241Y-92714637D01*
X177515001Y-92734522D01*
X177515001Y-92833420D01*
X167176439Y-103171983D01*
X167141335Y-103165000D01*
X166858665Y-103165000D01*
X166581426Y-103220147D01*
X166320273Y-103328320D01*
X166085241Y-103485363D01*
X165885363Y-103685241D01*
X165728320Y-103920273D01*
X165620147Y-104181426D01*
X165565000Y-104458665D01*
X164409672Y-104458665D01*
X164435000Y-104331335D01*
X164435000Y-104048665D01*
X164379853Y-103771426D01*
X164271680Y-103510273D01*
X164114637Y-103275241D01*
X163914759Y-103075363D01*
X163679727Y-102918320D01*
X163418574Y-102810147D01*
X163141335Y-102755000D01*
X162858665Y-102755000D01*
X162581426Y-102810147D01*
X162320273Y-102918320D01*
X162085241Y-103075363D01*
X161885363Y-103275241D01*
X161728320Y-103510273D01*
X161620147Y-103771426D01*
X161565000Y-104048665D01*
X146685000Y-104048665D01*
X146685000Y-101984521D01*
X146714759Y-101964637D01*
X146914637Y-101764759D01*
X147071680Y-101529727D01*
X147179853Y-101268574D01*
X147235000Y-100991335D01*
X147235000Y-100708665D01*
X147179853Y-100431426D01*
X147071680Y-100170273D01*
X146914637Y-99935241D01*
X146714759Y-99735363D01*
X146479727Y-99578320D01*
X146218574Y-99470147D01*
X145941335Y-99415000D01*
X145658665Y-99415000D01*
X145381426Y-99470147D01*
X145120273Y-99578320D01*
X144885241Y-99735363D01*
X144685363Y-99935241D01*
X144528320Y-100170273D01*
X144420147Y-100431426D01*
X144365000Y-100708665D01*
X144365000Y-100991335D01*
X144420147Y-101268574D01*
X144528320Y-101529727D01*
X144685363Y-101764759D01*
X144885241Y-101964637D01*
X144915000Y-101984521D01*
X144915001Y-105583420D01*
X140283422Y-110215000D01*
X134834521Y-110215000D01*
X134814637Y-110185241D01*
X134614759Y-109985363D01*
X134379727Y-109828320D01*
X134118574Y-109720147D01*
X133841335Y-109665000D01*
X133558665Y-109665000D01*
X133281426Y-109720147D01*
X133020273Y-109828320D01*
X132785241Y-109985363D01*
X132585363Y-110185241D01*
X132428320Y-110420273D01*
X132320147Y-110681426D01*
X132265000Y-110958665D01*
X132265000Y-111241335D01*
X132320147Y-111518574D01*
X132428320Y-111779727D01*
X132585363Y-112014759D01*
X132785241Y-112214637D01*
X133020273Y-112371680D01*
X133281426Y-112479853D01*
X133558665Y-112535000D01*
X133841335Y-112535000D01*
X134118574Y-112479853D01*
X134379727Y-112371680D01*
X134614759Y-112214637D01*
X134814637Y-112014759D01*
X134834521Y-111985000D01*
X140606531Y-111985000D01*
X140650000Y-111989281D01*
X140693469Y-111985000D01*
X140693477Y-111985000D01*
X140823490Y-111972195D01*
X140990313Y-111921589D01*
X141144059Y-111839411D01*
X141159780Y-111826509D01*
X141096063Y-111890226D01*
X140982795Y-112059744D01*
X140904774Y-112248102D01*
X140865000Y-112448061D01*
X140865000Y-112453899D01*
X140827805Y-112576510D01*
X140810719Y-112750000D01*
X140815001Y-112793479D01*
X140815000Y-122483421D01*
X139333422Y-123965000D01*
X135476579Y-123965000D01*
X133456534Y-121944956D01*
X133428817Y-121911183D01*
X133294059Y-121800589D01*
X133140313Y-121718411D01*
X132973490Y-121667805D01*
X132869626Y-121657575D01*
X132918215Y-121497400D01*
X132940612Y-121270000D01*
X132918215Y-121042600D01*
X132854907Y-120833902D01*
X132889502Y-120769180D01*
X132925812Y-120649482D01*
X132938072Y-120525000D01*
X132938072Y-119979651D01*
X136143470Y-123185049D01*
X136171183Y-123218817D01*
X136204951Y-123246530D01*
X136204953Y-123246532D01*
X136245016Y-123279411D01*
X136305941Y-123329411D01*
X136459687Y-123411589D01*
X136626510Y-123462195D01*
X136756523Y-123475000D01*
X136756531Y-123475000D01*
X136800000Y-123479281D01*
X136843469Y-123475000D01*
X137074858Y-123475000D01*
X137177421Y-123559171D01*
X137378940Y-123666885D01*
X137597600Y-123733215D01*
X137768021Y-123750000D01*
X138331979Y-123750000D01*
X138502400Y-123733215D01*
X138721060Y-123666885D01*
X138922579Y-123559171D01*
X139099212Y-123414212D01*
X139244171Y-123237579D01*
X139351885Y-123036060D01*
X139418215Y-122817400D01*
X139440612Y-122590000D01*
X139418215Y-122362600D01*
X139351885Y-122143940D01*
X139250895Y-121955000D01*
X139351885Y-121766060D01*
X139418215Y-121547400D01*
X139440612Y-121320000D01*
X139418215Y-121092600D01*
X139354907Y-120883902D01*
X139389502Y-120819180D01*
X139425812Y-120699482D01*
X139438072Y-120575000D01*
X139438072Y-119525000D01*
X139425812Y-119400518D01*
X139389502Y-119280820D01*
X139330537Y-119170506D01*
X139251185Y-119073815D01*
X139154494Y-118994463D01*
X139044180Y-118935498D01*
X138924482Y-118899188D01*
X138800000Y-118886928D01*
X137300000Y-118886928D01*
X137175518Y-118899188D01*
X137055820Y-118935498D01*
X136945506Y-118994463D01*
X136848815Y-119073815D01*
X136769463Y-119170506D01*
X136710498Y-119280820D01*
X136674188Y-119400518D01*
X136661928Y-119525000D01*
X136661928Y-120575000D01*
X136674188Y-120699482D01*
X136710498Y-120819180D01*
X136745093Y-120883902D01*
X136681785Y-121092600D01*
X136670344Y-121208765D01*
X130570244Y-115108665D01*
X133165000Y-115108665D01*
X133165000Y-115391335D01*
X133220147Y-115668574D01*
X133328320Y-115929727D01*
X133485363Y-116164759D01*
X133685241Y-116364637D01*
X133920273Y-116521680D01*
X134181426Y-116629853D01*
X134458665Y-116685000D01*
X134741335Y-116685000D01*
X135018574Y-116629853D01*
X135279727Y-116521680D01*
X135514759Y-116364637D01*
X135714637Y-116164759D01*
X135871680Y-115929727D01*
X135979853Y-115668574D01*
X136035000Y-115391335D01*
X136035000Y-115108665D01*
X135979853Y-114831426D01*
X135871680Y-114570273D01*
X135714637Y-114335241D01*
X135514759Y-114135363D01*
X135279727Y-113978320D01*
X135018574Y-113870147D01*
X134741335Y-113815000D01*
X134458665Y-113815000D01*
X134181426Y-113870147D01*
X133920273Y-113978320D01*
X133685241Y-114135363D01*
X133485363Y-114335241D01*
X133328320Y-114570273D01*
X133220147Y-114831426D01*
X133165000Y-115108665D01*
X130570244Y-115108665D01*
X128115000Y-112653422D01*
X128115000Y-107688072D01*
X129025000Y-107688072D01*
X129149482Y-107675812D01*
X129269180Y-107639502D01*
X129379494Y-107580537D01*
X129476185Y-107501185D01*
X129555537Y-107404494D01*
X129614502Y-107294180D01*
X129650812Y-107174482D01*
X129663072Y-107050000D01*
X129663072Y-106068021D01*
X137450000Y-106068021D01*
X137450000Y-106631978D01*
X137466785Y-106802399D01*
X137533115Y-107021059D01*
X137640829Y-107222578D01*
X137785788Y-107399212D01*
X137962421Y-107544171D01*
X138163940Y-107651885D01*
X138382600Y-107718215D01*
X138610000Y-107740612D01*
X138837399Y-107718215D01*
X139056059Y-107651885D01*
X139244999Y-107550894D01*
X139433940Y-107651885D01*
X139652600Y-107718215D01*
X139880000Y-107740612D01*
X140107399Y-107718215D01*
X140316098Y-107654907D01*
X140380820Y-107689502D01*
X140500518Y-107725812D01*
X140625000Y-107738072D01*
X141675000Y-107738072D01*
X141799482Y-107725812D01*
X141919180Y-107689502D01*
X142029494Y-107630537D01*
X142126185Y-107551185D01*
X142205537Y-107454494D01*
X142264502Y-107344180D01*
X142300812Y-107224482D01*
X142313072Y-107100000D01*
X142313072Y-105600000D01*
X142300812Y-105475518D01*
X142264502Y-105355820D01*
X142205537Y-105245506D01*
X142126185Y-105148815D01*
X142029494Y-105069463D01*
X141919180Y-105010498D01*
X141799482Y-104974188D01*
X141675000Y-104961928D01*
X140625000Y-104961928D01*
X140500518Y-104974188D01*
X140380820Y-105010498D01*
X140316098Y-105045093D01*
X140107400Y-104981785D01*
X139880000Y-104959388D01*
X139652601Y-104981785D01*
X139433941Y-105048115D01*
X139245001Y-105149106D01*
X139056060Y-105048115D01*
X138837400Y-104981785D01*
X138610000Y-104959388D01*
X138382601Y-104981785D01*
X138163941Y-105048115D01*
X137962422Y-105155829D01*
X137785789Y-105300788D01*
X137640830Y-105477421D01*
X137533115Y-105678940D01*
X137466785Y-105897600D01*
X137450000Y-106068021D01*
X129663072Y-106068021D01*
X129663072Y-105550000D01*
X129650812Y-105425518D01*
X129614502Y-105305820D01*
X129555537Y-105195506D01*
X129476185Y-105098815D01*
X129379494Y-105019463D01*
X129269180Y-104960498D01*
X129149482Y-104924188D01*
X129025000Y-104911928D01*
X127975000Y-104911928D01*
X127850518Y-104924188D01*
X127730820Y-104960498D01*
X127666098Y-104995093D01*
X127457400Y-104931785D01*
X127230000Y-104909388D01*
X127002601Y-104931785D01*
X126783941Y-104998115D01*
X126595001Y-105099106D01*
X126406060Y-104998115D01*
X126187400Y-104931785D01*
X125960000Y-104909388D01*
X125732601Y-104931785D01*
X125513941Y-104998115D01*
X125312422Y-105105829D01*
X125135789Y-105250788D01*
X124990830Y-105427421D01*
X124883115Y-105628940D01*
X124816785Y-105847600D01*
X124800000Y-106018021D01*
X116160000Y-106018021D01*
X116160000Y-104448061D01*
X135065000Y-104448061D01*
X135065000Y-104651939D01*
X135104774Y-104851898D01*
X135182795Y-105040256D01*
X135296063Y-105209774D01*
X135440226Y-105353937D01*
X135609744Y-105467205D01*
X135798102Y-105545226D01*
X135998061Y-105585000D01*
X136201939Y-105585000D01*
X136401898Y-105545226D01*
X136590256Y-105467205D01*
X136759774Y-105353937D01*
X136903937Y-105209774D01*
X137017205Y-105040256D01*
X137095226Y-104851898D01*
X137135000Y-104651939D01*
X137135000Y-104448061D01*
X137095226Y-104248102D01*
X137017205Y-104059744D01*
X136985000Y-104011546D01*
X136985000Y-100800000D01*
X137466928Y-100800000D01*
X137466928Y-102300000D01*
X137479188Y-102424482D01*
X137515498Y-102544180D01*
X137574463Y-102654494D01*
X137653815Y-102751185D01*
X137750506Y-102830537D01*
X137860820Y-102889502D01*
X137980518Y-102925812D01*
X138105000Y-102938072D01*
X139155000Y-102938072D01*
X139279482Y-102925812D01*
X139399180Y-102889502D01*
X139463902Y-102854907D01*
X139672601Y-102918215D01*
X139900000Y-102940612D01*
X140127400Y-102918215D01*
X140346060Y-102851885D01*
X140535000Y-102750894D01*
X140723941Y-102851885D01*
X140942601Y-102918215D01*
X141170000Y-102940612D01*
X141397400Y-102918215D01*
X141616060Y-102851885D01*
X141817579Y-102744171D01*
X141994212Y-102599212D01*
X142139171Y-102422579D01*
X142246885Y-102221059D01*
X142313215Y-102002399D01*
X142330000Y-101831978D01*
X142330000Y-101268021D01*
X142313215Y-101097600D01*
X142246885Y-100878940D01*
X142139171Y-100677421D01*
X141994212Y-100500788D01*
X141817578Y-100355829D01*
X141616059Y-100248115D01*
X141397399Y-100181785D01*
X141170000Y-100159388D01*
X140942600Y-100181785D01*
X140723940Y-100248115D01*
X140535000Y-100349106D01*
X140346059Y-100248115D01*
X140127399Y-100181785D01*
X139900000Y-100159388D01*
X139672600Y-100181785D01*
X139463902Y-100245093D01*
X139399180Y-100210498D01*
X139279482Y-100174188D01*
X139155000Y-100161928D01*
X138105000Y-100161928D01*
X137980518Y-100174188D01*
X137860820Y-100210498D01*
X137750506Y-100269463D01*
X137653815Y-100348815D01*
X137574463Y-100445506D01*
X137515498Y-100555820D01*
X137479188Y-100675518D01*
X137466928Y-100800000D01*
X136985000Y-100800000D01*
X136985000Y-90795000D01*
X137141335Y-90795000D01*
X137418574Y-90739853D01*
X137679727Y-90631680D01*
X137914759Y-90474637D01*
X138114637Y-90274759D01*
X138271680Y-90039727D01*
X138379853Y-89778574D01*
X138435000Y-89501335D01*
X138435000Y-89218665D01*
X138379853Y-88941426D01*
X138271680Y-88680273D01*
X138114637Y-88445241D01*
X137914759Y-88245363D01*
X137679727Y-88088320D01*
X137418574Y-87980147D01*
X137141335Y-87925000D01*
X136858665Y-87925000D01*
X136581426Y-87980147D01*
X136320273Y-88088320D01*
X136085241Y-88245363D01*
X135885363Y-88445241D01*
X135728320Y-88680273D01*
X135620147Y-88941426D01*
X135565000Y-89218665D01*
X135565000Y-89501335D01*
X135571983Y-89536439D01*
X135504951Y-89603471D01*
X135471184Y-89631183D01*
X135443471Y-89664951D01*
X135443468Y-89664954D01*
X135360590Y-89765941D01*
X135278412Y-89919687D01*
X135227805Y-90086510D01*
X135210719Y-90260000D01*
X135215001Y-90303479D01*
X135215000Y-104011546D01*
X135182795Y-104059744D01*
X135104774Y-104248102D01*
X135065000Y-104448061D01*
X116160000Y-104448061D01*
X116160000Y-100798665D01*
X120565000Y-100798665D01*
X120565000Y-101081335D01*
X120620147Y-101358574D01*
X120728320Y-101619727D01*
X120885363Y-101854759D01*
X121085241Y-102054637D01*
X121320273Y-102211680D01*
X121581426Y-102319853D01*
X121858665Y-102375000D01*
X122141335Y-102375000D01*
X122418574Y-102319853D01*
X122679727Y-102211680D01*
X122914759Y-102054637D01*
X123114637Y-101854759D01*
X123271680Y-101619727D01*
X123379853Y-101358574D01*
X123435000Y-101081335D01*
X123435000Y-100798665D01*
X123415693Y-100701600D01*
X124820328Y-100701600D01*
X124820328Y-102201600D01*
X124832588Y-102326082D01*
X124868898Y-102445780D01*
X124927863Y-102556094D01*
X125007215Y-102652785D01*
X125103906Y-102732137D01*
X125214220Y-102791102D01*
X125333918Y-102827412D01*
X125458400Y-102839672D01*
X126508400Y-102839672D01*
X126632882Y-102827412D01*
X126752580Y-102791102D01*
X126817302Y-102756507D01*
X127026001Y-102819815D01*
X127253400Y-102842212D01*
X127480800Y-102819815D01*
X127699460Y-102753485D01*
X127888400Y-102652494D01*
X128077341Y-102753485D01*
X128296001Y-102819815D01*
X128523400Y-102842212D01*
X128750800Y-102819815D01*
X128969460Y-102753485D01*
X129170979Y-102645771D01*
X129347612Y-102500812D01*
X129492571Y-102324179D01*
X129600285Y-102122659D01*
X129666615Y-101903999D01*
X129683400Y-101733578D01*
X129683400Y-101169621D01*
X129666615Y-100999200D01*
X129605784Y-100798665D01*
X132265000Y-100798665D01*
X132265000Y-101081335D01*
X132320147Y-101358574D01*
X132428320Y-101619727D01*
X132585363Y-101854759D01*
X132785241Y-102054637D01*
X133020273Y-102211680D01*
X133281426Y-102319853D01*
X133558665Y-102375000D01*
X133841335Y-102375000D01*
X134118574Y-102319853D01*
X134379727Y-102211680D01*
X134614759Y-102054637D01*
X134814637Y-101854759D01*
X134971680Y-101619727D01*
X135079853Y-101358574D01*
X135135000Y-101081335D01*
X135135000Y-100798665D01*
X135079853Y-100521426D01*
X134971680Y-100260273D01*
X134814637Y-100025241D01*
X134614759Y-99825363D01*
X134379727Y-99668320D01*
X134118574Y-99560147D01*
X133841335Y-99505000D01*
X133558665Y-99505000D01*
X133281426Y-99560147D01*
X133020273Y-99668320D01*
X132785241Y-99825363D01*
X132585363Y-100025241D01*
X132428320Y-100260273D01*
X132320147Y-100521426D01*
X132265000Y-100798665D01*
X129605784Y-100798665D01*
X129600285Y-100780540D01*
X129492571Y-100579021D01*
X129347612Y-100402388D01*
X129170978Y-100257429D01*
X128969459Y-100149715D01*
X128750799Y-100083385D01*
X128523400Y-100060988D01*
X128296000Y-100083385D01*
X128077340Y-100149715D01*
X127888400Y-100250706D01*
X127699459Y-100149715D01*
X127480799Y-100083385D01*
X127253400Y-100060988D01*
X127026000Y-100083385D01*
X126817302Y-100146693D01*
X126752580Y-100112098D01*
X126632882Y-100075788D01*
X126508400Y-100063528D01*
X125458400Y-100063528D01*
X125333918Y-100075788D01*
X125214220Y-100112098D01*
X125103906Y-100171063D01*
X125007215Y-100250415D01*
X124927863Y-100347106D01*
X124868898Y-100457420D01*
X124832588Y-100577118D01*
X124820328Y-100701600D01*
X123415693Y-100701600D01*
X123379853Y-100521426D01*
X123271680Y-100260273D01*
X123114637Y-100025241D01*
X122914759Y-99825363D01*
X122679727Y-99668320D01*
X122418574Y-99560147D01*
X122141335Y-99505000D01*
X121858665Y-99505000D01*
X121581426Y-99560147D01*
X121320273Y-99668320D01*
X121085241Y-99825363D01*
X120885363Y-100025241D01*
X120728320Y-100260273D01*
X120620147Y-100521426D01*
X120565000Y-100798665D01*
X116160000Y-100798665D01*
X116160000Y-89206865D01*
X122664200Y-89206865D01*
X122664200Y-89489535D01*
X122719347Y-89766774D01*
X122827520Y-90027927D01*
X122984563Y-90262959D01*
X123184441Y-90462837D01*
X123419473Y-90619880D01*
X123680626Y-90728053D01*
X123957865Y-90783200D01*
X124240535Y-90783200D01*
X124517774Y-90728053D01*
X124778927Y-90619880D01*
X125013959Y-90462837D01*
X125213837Y-90262959D01*
X125370880Y-90027927D01*
X125479053Y-89766774D01*
X125534200Y-89489535D01*
X125534200Y-89218665D01*
X125815000Y-89218665D01*
X125815000Y-89501335D01*
X125870147Y-89778574D01*
X125978320Y-90039727D01*
X126135363Y-90274759D01*
X126335241Y-90474637D01*
X126570273Y-90631680D01*
X126831426Y-90739853D01*
X127108665Y-90795000D01*
X127391335Y-90795000D01*
X127668574Y-90739853D01*
X127929727Y-90631680D01*
X128164759Y-90474637D01*
X128364637Y-90274759D01*
X128521680Y-90039727D01*
X128629853Y-89778574D01*
X128685000Y-89501335D01*
X128685000Y-89218665D01*
X128683011Y-89208665D01*
X132365000Y-89208665D01*
X132365000Y-89491335D01*
X132420147Y-89768574D01*
X132528320Y-90029727D01*
X132685363Y-90264759D01*
X132885241Y-90464637D01*
X133120273Y-90621680D01*
X133381426Y-90729853D01*
X133658665Y-90785000D01*
X133941335Y-90785000D01*
X134218574Y-90729853D01*
X134479727Y-90621680D01*
X134714759Y-90464637D01*
X134914637Y-90264759D01*
X135071680Y-90029727D01*
X135179853Y-89768574D01*
X135235000Y-89491335D01*
X135235000Y-89208665D01*
X135179853Y-88931426D01*
X135071680Y-88670273D01*
X134914637Y-88435241D01*
X134714759Y-88235363D01*
X134479727Y-88078320D01*
X134218574Y-87970147D01*
X133941335Y-87915000D01*
X133658665Y-87915000D01*
X133381426Y-87970147D01*
X133120273Y-88078320D01*
X132885241Y-88235363D01*
X132685363Y-88435241D01*
X132528320Y-88670273D01*
X132420147Y-88931426D01*
X132365000Y-89208665D01*
X128683011Y-89208665D01*
X128629853Y-88941426D01*
X128521680Y-88680273D01*
X128364637Y-88445241D01*
X128164759Y-88245363D01*
X127929727Y-88088320D01*
X127668574Y-87980147D01*
X127391335Y-87925000D01*
X127108665Y-87925000D01*
X126831426Y-87980147D01*
X126570273Y-88088320D01*
X126335241Y-88245363D01*
X126135363Y-88445241D01*
X125978320Y-88680273D01*
X125870147Y-88941426D01*
X125815000Y-89218665D01*
X125534200Y-89218665D01*
X125534200Y-89206865D01*
X125479053Y-88929626D01*
X125370880Y-88668473D01*
X125213837Y-88433441D01*
X125013959Y-88233563D01*
X124778927Y-88076520D01*
X124517774Y-87968347D01*
X124240535Y-87913200D01*
X123957865Y-87913200D01*
X123680626Y-87968347D01*
X123419473Y-88076520D01*
X123184441Y-88233563D01*
X122984563Y-88433441D01*
X122827520Y-88668473D01*
X122719347Y-88929626D01*
X122664200Y-89206865D01*
X116160000Y-89206865D01*
X116160000Y-65600000D01*
X122846928Y-65600000D01*
X122846928Y-67100000D01*
X122859188Y-67224482D01*
X122895498Y-67344180D01*
X122954463Y-67454494D01*
X123033815Y-67551185D01*
X123130506Y-67630537D01*
X123240820Y-67689502D01*
X123360518Y-67725812D01*
X123485000Y-67738072D01*
X124535000Y-67738072D01*
X124659482Y-67725812D01*
X124779180Y-67689502D01*
X124843902Y-67654907D01*
X125052601Y-67718215D01*
X125280000Y-67740612D01*
X125507400Y-67718215D01*
X125726060Y-67651885D01*
X125915000Y-67550894D01*
X126103941Y-67651885D01*
X126322601Y-67718215D01*
X126550000Y-67740612D01*
X126777400Y-67718215D01*
X126996060Y-67651885D01*
X127197579Y-67544171D01*
X127374212Y-67399212D01*
X127519171Y-67222579D01*
X127626885Y-67021059D01*
X127693215Y-66802399D01*
X127710000Y-66631978D01*
X127710000Y-66068021D01*
X127693215Y-65897600D01*
X127626885Y-65678940D01*
X127519171Y-65477421D01*
X127374212Y-65300788D01*
X127197578Y-65155829D01*
X126996059Y-65048115D01*
X126777399Y-64981785D01*
X126550000Y-64959388D01*
X126322600Y-64981785D01*
X126103940Y-65048115D01*
X125915000Y-65149106D01*
X125726059Y-65048115D01*
X125507399Y-64981785D01*
X125280000Y-64959388D01*
X125052600Y-64981785D01*
X124843902Y-65045093D01*
X124779180Y-65010498D01*
X124659482Y-64974188D01*
X124535000Y-64961928D01*
X123485000Y-64961928D01*
X123360518Y-64974188D01*
X123240820Y-65010498D01*
X123130506Y-65069463D01*
X123033815Y-65148815D01*
X122954463Y-65245506D01*
X122895498Y-65355820D01*
X122859188Y-65475518D01*
X122846928Y-65600000D01*
X116160000Y-65600000D01*
X116160000Y-59377000D01*
X131875422Y-59377000D01*
X138643470Y-66145049D01*
G36*
X191665001Y-91766580D02*
G01*
X191665000Y-103206531D01*
X191660719Y-103250000D01*
X191665000Y-103293469D01*
X191665000Y-103293476D01*
X191677805Y-103423489D01*
X191728411Y-103590312D01*
X191810589Y-103744058D01*
X191921183Y-103878817D01*
X191954956Y-103906534D01*
X199413421Y-111365000D01*
X196866579Y-111365000D01*
X196828017Y-111326439D01*
X196835000Y-111291335D01*
X196835000Y-111008665D01*
X196779853Y-110731426D01*
X196671680Y-110470273D01*
X196514637Y-110235241D01*
X196314759Y-110035363D01*
X196079727Y-109878320D01*
X195818574Y-109770147D01*
X195541335Y-109715000D01*
X195258665Y-109715000D01*
X194981426Y-109770147D01*
X194720273Y-109878320D01*
X194485241Y-110035363D01*
X194285363Y-110235241D01*
X194128320Y-110470273D01*
X194020147Y-110731426D01*
X193965000Y-111008665D01*
X193965000Y-111291335D01*
X194020147Y-111568574D01*
X194128320Y-111829727D01*
X194285363Y-112064759D01*
X194485241Y-112264637D01*
X194720273Y-112421680D01*
X194981426Y-112529853D01*
X195258665Y-112585000D01*
X195541335Y-112585000D01*
X195576439Y-112578017D01*
X195843470Y-112845049D01*
X195871183Y-112878817D01*
X195904951Y-112906530D01*
X195904953Y-112906532D01*
X195982468Y-112970147D01*
X196005941Y-112989411D01*
X196159687Y-113071589D01*
X196275903Y-113106843D01*
X196326509Y-113122195D01*
X196341306Y-113123652D01*
X196456523Y-113135000D01*
X196456531Y-113135000D01*
X196500000Y-113139281D01*
X196543469Y-113135000D01*
X199353353Y-113135000D01*
X199315498Y-113205820D01*
X199279188Y-113325518D01*
X199266928Y-113450000D01*
X199266928Y-114950000D01*
X199279188Y-115074482D01*
X199315498Y-115194180D01*
X199374463Y-115304494D01*
X199453815Y-115401185D01*
X199550506Y-115480537D01*
X199660820Y-115539502D01*
X199744876Y-115565000D01*
X192116579Y-115565000D01*
X189445000Y-112893422D01*
X189445000Y-92734521D01*
X189474759Y-92714637D01*
X189674637Y-92514759D01*
X189831680Y-92279727D01*
X189939853Y-92018574D01*
X189995000Y-91741335D01*
X189995000Y-91458665D01*
X189939853Y-91181426D01*
X189831680Y-90920273D01*
X189808111Y-90885000D01*
X190783422Y-90885000D01*
X191665001Y-91766580D01*
G37*
X191665001Y-91766580D02*
X191665000Y-103206531D01*
X191660719Y-103250000D01*
X191665000Y-103293469D01*
X191665000Y-103293476D01*
X191677805Y-103423489D01*
X191728411Y-103590312D01*
X191810589Y-103744058D01*
X191921183Y-103878817D01*
X191954956Y-103906534D01*
X199413421Y-111365000D01*
X196866579Y-111365000D01*
X196828017Y-111326439D01*
X196835000Y-111291335D01*
X196835000Y-111008665D01*
X196779853Y-110731426D01*
X196671680Y-110470273D01*
X196514637Y-110235241D01*
X196314759Y-110035363D01*
X196079727Y-109878320D01*
X195818574Y-109770147D01*
X195541335Y-109715000D01*
X195258665Y-109715000D01*
X194981426Y-109770147D01*
X194720273Y-109878320D01*
X194485241Y-110035363D01*
X194285363Y-110235241D01*
X194128320Y-110470273D01*
X194020147Y-110731426D01*
X193965000Y-111008665D01*
X193965000Y-111291335D01*
X194020147Y-111568574D01*
X194128320Y-111829727D01*
X194285363Y-112064759D01*
X194485241Y-112264637D01*
X194720273Y-112421680D01*
X194981426Y-112529853D01*
X195258665Y-112585000D01*
X195541335Y-112585000D01*
X195576439Y-112578017D01*
X195843470Y-112845049D01*
X195871183Y-112878817D01*
X195904951Y-112906530D01*
X195904953Y-112906532D01*
X195982468Y-112970147D01*
X196005941Y-112989411D01*
X196159687Y-113071589D01*
X196275903Y-113106843D01*
X196326509Y-113122195D01*
X196341306Y-113123652D01*
X196456523Y-113135000D01*
X196456531Y-113135000D01*
X196500000Y-113139281D01*
X196543469Y-113135000D01*
X199353353Y-113135000D01*
X199315498Y-113205820D01*
X199279188Y-113325518D01*
X199266928Y-113450000D01*
X199266928Y-114950000D01*
X199279188Y-115074482D01*
X199315498Y-115194180D01*
X199374463Y-115304494D01*
X199453815Y-115401185D01*
X199550506Y-115480537D01*
X199660820Y-115539502D01*
X199744876Y-115565000D01*
X192116579Y-115565000D01*
X189445000Y-112893422D01*
X189445000Y-92734521D01*
X189474759Y-92714637D01*
X189674637Y-92514759D01*
X189831680Y-92279727D01*
X189939853Y-92018574D01*
X189995000Y-91741335D01*
X189995000Y-91458665D01*
X189939853Y-91181426D01*
X189831680Y-90920273D01*
X189808111Y-90885000D01*
X190783422Y-90885000D01*
X191665001Y-91766580D01*
G36*
X180012361Y-87618215D02*
G01*
X180017805Y-87673490D01*
X180033157Y-87724096D01*
X180068411Y-87840312D01*
X180150589Y-87994058D01*
X180261183Y-88128817D01*
X180294956Y-88156534D01*
X181253421Y-89115000D01*
X181216579Y-89115000D01*
X179731235Y-87629656D01*
X179847400Y-87618215D01*
X180007576Y-87569626D01*
X180012361Y-87618215D01*
G37*
X180012361Y-87618215D02*
X180017805Y-87673490D01*
X180033157Y-87724096D01*
X180068411Y-87840312D01*
X180150589Y-87994058D01*
X180261183Y-88128817D01*
X180294956Y-88156534D01*
X181253421Y-89115000D01*
X181216579Y-89115000D01*
X179731235Y-87629656D01*
X179847400Y-87618215D01*
X180007576Y-87569626D01*
X180012361Y-87618215D01*
G36*
X177199188Y-72225518D02*
G01*
X177186928Y-72350000D01*
X177186928Y-73011493D01*
X175333422Y-74865000D01*
X157143465Y-74865000D01*
X157099999Y-74860719D01*
X157056533Y-74865000D01*
X157056523Y-74865000D01*
X156926510Y-74877805D01*
X156759687Y-74928411D01*
X156605941Y-75010589D01*
X156605939Y-75010590D01*
X156605940Y-75010590D01*
X156504953Y-75093468D01*
X156504951Y-75093470D01*
X156471183Y-75121183D01*
X156443470Y-75154951D01*
X143676439Y-87921983D01*
X143641335Y-87915000D01*
X143358665Y-87915000D01*
X143323562Y-87921983D01*
X140506534Y-85104956D01*
X140478817Y-85071183D01*
X140344059Y-84960589D01*
X140190313Y-84878411D01*
X140023490Y-84827805D01*
X139893477Y-84815000D01*
X139893469Y-84815000D01*
X139850000Y-84810719D01*
X139806531Y-84815000D01*
X129766579Y-84815000D01*
X129375001Y-84423423D01*
X129375001Y-80483466D01*
X129379282Y-80440000D01*
X129375001Y-80396534D01*
X129375001Y-80396524D01*
X129362196Y-80266511D01*
X129311590Y-80099688D01*
X129229412Y-79945942D01*
X129191028Y-79899171D01*
X129146533Y-79844954D01*
X129146531Y-79844952D01*
X129118818Y-79811184D01*
X129085051Y-79783472D01*
X128678017Y-79376439D01*
X128685000Y-79341335D01*
X128685000Y-79058665D01*
X128629853Y-78781426D01*
X128521680Y-78520273D01*
X128364637Y-78285241D01*
X128164759Y-78085363D01*
X127929727Y-77928320D01*
X127704432Y-77835000D01*
X133321425Y-77835000D01*
X133120273Y-77918320D01*
X132885241Y-78075363D01*
X132685363Y-78275241D01*
X132528320Y-78510273D01*
X132420147Y-78771426D01*
X132365000Y-79048665D01*
X132365000Y-79331335D01*
X132420147Y-79608574D01*
X132528320Y-79869727D01*
X132685363Y-80104759D01*
X132885241Y-80304637D01*
X133120273Y-80461680D01*
X133381426Y-80569853D01*
X133658665Y-80625000D01*
X133941335Y-80625000D01*
X134218574Y-80569853D01*
X134479727Y-80461680D01*
X134714759Y-80304637D01*
X134914637Y-80104759D01*
X135071680Y-79869727D01*
X135179853Y-79608574D01*
X135235000Y-79331335D01*
X135235000Y-79048665D01*
X135179853Y-78771426D01*
X135080862Y-78532440D01*
X135571983Y-79023561D01*
X135565000Y-79058665D01*
X135565000Y-79341335D01*
X135620147Y-79618574D01*
X135728320Y-79879727D01*
X135885363Y-80114759D01*
X136085241Y-80314637D01*
X136320273Y-80471680D01*
X136581426Y-80579853D01*
X136858665Y-80635000D01*
X137141335Y-80635000D01*
X137418574Y-80579853D01*
X137679727Y-80471680D01*
X137914759Y-80314637D01*
X138114637Y-80114759D01*
X138271680Y-79879727D01*
X138379853Y-79618574D01*
X138435000Y-79341335D01*
X138435000Y-79058665D01*
X138433011Y-79048665D01*
X142065000Y-79048665D01*
X142065000Y-79331335D01*
X142120147Y-79608574D01*
X142228320Y-79869727D01*
X142385363Y-80104759D01*
X142585241Y-80304637D01*
X142820273Y-80461680D01*
X143081426Y-80569853D01*
X143358665Y-80625000D01*
X143641335Y-80625000D01*
X143918574Y-80569853D01*
X144179727Y-80461680D01*
X144414759Y-80304637D01*
X144614637Y-80104759D01*
X144771680Y-79869727D01*
X144879853Y-79608574D01*
X144935000Y-79331335D01*
X144935000Y-79048665D01*
X144879853Y-78771426D01*
X144771680Y-78510273D01*
X144614637Y-78275241D01*
X144414759Y-78075363D01*
X144179727Y-77918320D01*
X143918574Y-77810147D01*
X143641335Y-77755000D01*
X143358665Y-77755000D01*
X143081426Y-77810147D01*
X142820273Y-77918320D01*
X142585241Y-78075363D01*
X142385363Y-78275241D01*
X142228320Y-78510273D01*
X142120147Y-78771426D01*
X142065000Y-79048665D01*
X138433011Y-79048665D01*
X138379853Y-78781426D01*
X138271680Y-78520273D01*
X138114637Y-78285241D01*
X137914759Y-78085363D01*
X137679727Y-77928320D01*
X137418574Y-77820147D01*
X137141335Y-77765000D01*
X136858665Y-77765000D01*
X136823561Y-77771983D01*
X135986578Y-76935000D01*
X138330403Y-76935000D01*
X138373872Y-76939281D01*
X138417341Y-76935000D01*
X138417349Y-76935000D01*
X138547362Y-76922195D01*
X138714185Y-76871589D01*
X138867931Y-76789411D01*
X139002689Y-76678817D01*
X139030406Y-76645044D01*
X140106125Y-75569325D01*
X140117400Y-75568215D01*
X140336060Y-75501885D01*
X140537579Y-75394171D01*
X140714212Y-75249212D01*
X140859171Y-75072579D01*
X140966885Y-74871059D01*
X141033215Y-74652399D01*
X141050000Y-74481978D01*
X141050000Y-73918021D01*
X141033215Y-73747600D01*
X140966885Y-73528940D01*
X140859171Y-73327421D01*
X140714212Y-73150788D01*
X140537578Y-73005829D01*
X140336059Y-72898115D01*
X140117399Y-72831785D01*
X140001235Y-72820344D01*
X140686579Y-72135000D01*
X177226646Y-72135000D01*
X177199188Y-72225518D01*
G37*
X177199188Y-72225518D02*
X177186928Y-72350000D01*
X177186928Y-73011493D01*
X175333422Y-74865000D01*
X157143465Y-74865000D01*
X157099999Y-74860719D01*
X157056533Y-74865000D01*
X157056523Y-74865000D01*
X156926510Y-74877805D01*
X156759687Y-74928411D01*
X156605941Y-75010589D01*
X156605939Y-75010590D01*
X156605940Y-75010590D01*
X156504953Y-75093468D01*
X156504951Y-75093470D01*
X156471183Y-75121183D01*
X156443470Y-75154951D01*
X143676439Y-87921983D01*
X143641335Y-87915000D01*
X143358665Y-87915000D01*
X143323562Y-87921983D01*
X140506534Y-85104956D01*
X140478817Y-85071183D01*
X140344059Y-84960589D01*
X140190313Y-84878411D01*
X140023490Y-84827805D01*
X139893477Y-84815000D01*
X139893469Y-84815000D01*
X139850000Y-84810719D01*
X139806531Y-84815000D01*
X129766579Y-84815000D01*
X129375001Y-84423423D01*
X129375001Y-80483466D01*
X129379282Y-80440000D01*
X129375001Y-80396534D01*
X129375001Y-80396524D01*
X129362196Y-80266511D01*
X129311590Y-80099688D01*
X129229412Y-79945942D01*
X129191028Y-79899171D01*
X129146533Y-79844954D01*
X129146531Y-79844952D01*
X129118818Y-79811184D01*
X129085051Y-79783472D01*
X128678017Y-79376439D01*
X128685000Y-79341335D01*
X128685000Y-79058665D01*
X128629853Y-78781426D01*
X128521680Y-78520273D01*
X128364637Y-78285241D01*
X128164759Y-78085363D01*
X127929727Y-77928320D01*
X127704432Y-77835000D01*
X133321425Y-77835000D01*
X133120273Y-77918320D01*
X132885241Y-78075363D01*
X132685363Y-78275241D01*
X132528320Y-78510273D01*
X132420147Y-78771426D01*
X132365000Y-79048665D01*
X132365000Y-79331335D01*
X132420147Y-79608574D01*
X132528320Y-79869727D01*
X132685363Y-80104759D01*
X132885241Y-80304637D01*
X133120273Y-80461680D01*
X133381426Y-80569853D01*
X133658665Y-80625000D01*
X133941335Y-80625000D01*
X134218574Y-80569853D01*
X134479727Y-80461680D01*
X134714759Y-80304637D01*
X134914637Y-80104759D01*
X135071680Y-79869727D01*
X135179853Y-79608574D01*
X135235000Y-79331335D01*
X135235000Y-79048665D01*
X135179853Y-78771426D01*
X135080862Y-78532440D01*
X135571983Y-79023561D01*
X135565000Y-79058665D01*
X135565000Y-79341335D01*
X135620147Y-79618574D01*
X135728320Y-79879727D01*
X135885363Y-80114759D01*
X136085241Y-80314637D01*
X136320273Y-80471680D01*
X136581426Y-80579853D01*
X136858665Y-80635000D01*
X137141335Y-80635000D01*
X137418574Y-80579853D01*
X137679727Y-80471680D01*
X137914759Y-80314637D01*
X138114637Y-80114759D01*
X138271680Y-79879727D01*
X138379853Y-79618574D01*
X138435000Y-79341335D01*
X138435000Y-79058665D01*
X138433011Y-79048665D01*
X142065000Y-79048665D01*
X142065000Y-79331335D01*
X142120147Y-79608574D01*
X142228320Y-79869727D01*
X142385363Y-80104759D01*
X142585241Y-80304637D01*
X142820273Y-80461680D01*
X143081426Y-80569853D01*
X143358665Y-80625000D01*
X143641335Y-80625000D01*
X143918574Y-80569853D01*
X144179727Y-80461680D01*
X144414759Y-80304637D01*
X144614637Y-80104759D01*
X144771680Y-79869727D01*
X144879853Y-79608574D01*
X144935000Y-79331335D01*
X144935000Y-79048665D01*
X144879853Y-78771426D01*
X144771680Y-78510273D01*
X144614637Y-78275241D01*
X144414759Y-78075363D01*
X144179727Y-77918320D01*
X143918574Y-77810147D01*
X143641335Y-77755000D01*
X143358665Y-77755000D01*
X143081426Y-77810147D01*
X142820273Y-77918320D01*
X142585241Y-78075363D01*
X142385363Y-78275241D01*
X142228320Y-78510273D01*
X142120147Y-78771426D01*
X142065000Y-79048665D01*
X138433011Y-79048665D01*
X138379853Y-78781426D01*
X138271680Y-78520273D01*
X138114637Y-78285241D01*
X137914759Y-78085363D01*
X137679727Y-77928320D01*
X137418574Y-77820147D01*
X137141335Y-77765000D01*
X136858665Y-77765000D01*
X136823561Y-77771983D01*
X135986578Y-76935000D01*
X138330403Y-76935000D01*
X138373872Y-76939281D01*
X138417341Y-76935000D01*
X138417349Y-76935000D01*
X138547362Y-76922195D01*
X138714185Y-76871589D01*
X138867931Y-76789411D01*
X139002689Y-76678817D01*
X139030406Y-76645044D01*
X140106125Y-75569325D01*
X140117400Y-75568215D01*
X140336060Y-75501885D01*
X140537579Y-75394171D01*
X140714212Y-75249212D01*
X140859171Y-75072579D01*
X140966885Y-74871059D01*
X141033215Y-74652399D01*
X141050000Y-74481978D01*
X141050000Y-73918021D01*
X141033215Y-73747600D01*
X140966885Y-73528940D01*
X140859171Y-73327421D01*
X140714212Y-73150788D01*
X140537578Y-73005829D01*
X140336059Y-72898115D01*
X140117399Y-72831785D01*
X140001235Y-72820344D01*
X140686579Y-72135000D01*
X177226646Y-72135000D01*
X177199188Y-72225518D01*
G36*
X186849814Y-78289456D02*
G01*
X186799482Y-78274188D01*
X186675000Y-78261928D01*
X185625000Y-78261928D01*
X185500518Y-78274188D01*
X185380820Y-78310498D01*
X185270506Y-78369463D01*
X185173815Y-78448815D01*
X185094463Y-78545506D01*
X185035498Y-78655820D01*
X184999188Y-78775518D01*
X184986928Y-78900000D01*
X184986928Y-80400000D01*
X184999188Y-80524482D01*
X185035498Y-80644180D01*
X185076860Y-80721561D01*
X184433422Y-81365000D01*
X180116579Y-81365000D01*
X179781235Y-81029656D01*
X179897400Y-81018215D01*
X180116060Y-80951885D01*
X180305000Y-80850894D01*
X180493941Y-80951885D01*
X180712601Y-81018215D01*
X180940000Y-81040612D01*
X181167400Y-81018215D01*
X181386060Y-80951885D01*
X181587579Y-80844171D01*
X181764212Y-80699212D01*
X181909171Y-80522579D01*
X182016885Y-80321059D01*
X182083215Y-80102399D01*
X182100000Y-79931978D01*
X182100000Y-79368021D01*
X182083215Y-79197600D01*
X182016885Y-78978940D01*
X181909171Y-78777421D01*
X181764212Y-78600788D01*
X181587578Y-78455829D01*
X181386059Y-78348115D01*
X181167399Y-78281785D01*
X180940000Y-78259388D01*
X180720579Y-78280999D01*
X180866579Y-78135000D01*
X186695358Y-78135000D01*
X186849814Y-78289456D01*
G37*
X186849814Y-78289456D02*
X186799482Y-78274188D01*
X186675000Y-78261928D01*
X185625000Y-78261928D01*
X185500518Y-78274188D01*
X185380820Y-78310498D01*
X185270506Y-78369463D01*
X185173815Y-78448815D01*
X185094463Y-78545506D01*
X185035498Y-78655820D01*
X184999188Y-78775518D01*
X184986928Y-78900000D01*
X184986928Y-80400000D01*
X184999188Y-80524482D01*
X185035498Y-80644180D01*
X185076860Y-80721561D01*
X184433422Y-81365000D01*
X180116579Y-81365000D01*
X179781235Y-81029656D01*
X179897400Y-81018215D01*
X180116060Y-80951885D01*
X180305000Y-80850894D01*
X180493941Y-80951885D01*
X180712601Y-81018215D01*
X180940000Y-81040612D01*
X181167400Y-81018215D01*
X181386060Y-80951885D01*
X181587579Y-80844171D01*
X181764212Y-80699212D01*
X181909171Y-80522579D01*
X182016885Y-80321059D01*
X182083215Y-80102399D01*
X182100000Y-79931978D01*
X182100000Y-79368021D01*
X182083215Y-79197600D01*
X182016885Y-78978940D01*
X181909171Y-78777421D01*
X181764212Y-78600788D01*
X181587578Y-78455829D01*
X181386059Y-78348115D01*
X181167399Y-78281785D01*
X180940000Y-78259388D01*
X180720579Y-78280999D01*
X180866579Y-78135000D01*
X186695358Y-78135000D01*
X186849814Y-78289456D01*
G36*
X134457560Y-77909138D02*
G01*
X134278575Y-77835000D01*
X134383422Y-77835000D01*
X134457560Y-77909138D01*
G37*
X134457560Y-77909138D02*
X134278575Y-77835000D01*
X134383422Y-77835000D01*
X134457560Y-77909138D01*
G36*
X126639216Y-77899763D02*
G01*
X126703979Y-77835000D01*
X126795568Y-77835000D01*
X126639216Y-77899763D01*
G37*
X126639216Y-77899763D02*
X126703979Y-77835000D01*
X126795568Y-77835000D01*
X126639216Y-77899763D01*
G36*
X143218955Y-62815000D02*
G01*
X141088454Y-62815000D01*
X141040256Y-62782795D01*
X140851898Y-62704774D01*
X140651939Y-62665000D01*
X140448061Y-62665000D01*
X140248102Y-62704774D01*
X140059744Y-62782795D01*
X139890226Y-62896063D01*
X139746063Y-63040226D01*
X139632795Y-63209744D01*
X139554774Y-63398102D01*
X139515000Y-63598061D01*
X139515000Y-63801939D01*
X139554774Y-64001898D01*
X139632795Y-64190256D01*
X139746063Y-64359774D01*
X139890226Y-64503937D01*
X140059744Y-64617205D01*
X140175131Y-64665000D01*
X139666579Y-64665000D01*
X134378579Y-59377000D01*
X146656954Y-59377000D01*
X143218955Y-62815000D01*
G37*
X143218955Y-62815000D02*
X141088454Y-62815000D01*
X141040256Y-62782795D01*
X140851898Y-62704774D01*
X140651939Y-62665000D01*
X140448061Y-62665000D01*
X140248102Y-62704774D01*
X140059744Y-62782795D01*
X139890226Y-62896063D01*
X139746063Y-63040226D01*
X139632795Y-63209744D01*
X139554774Y-63398102D01*
X139515000Y-63598061D01*
X139515000Y-63801939D01*
X139554774Y-64001898D01*
X139632795Y-64190256D01*
X139746063Y-64359774D01*
X139890226Y-64503937D01*
X140059744Y-64617205D01*
X140175131Y-64665000D01*
X139666579Y-64665000D01*
X134378579Y-59377000D01*
X146656954Y-59377000D01*
X143218955Y-62815000D01*
M02*
