G04 #@! TF.GenerationSoftware,KiCad,Pcbnew,(5.1.6)-1*
G04 #@! TF.CreationDate,2020-09-11T21:59:46+04:00*
G04 #@! TF.ProjectId,Triple-five,54726970-6c65-42d6-9669-76652e6b6963,rev?*
G04 #@! TF.SameCoordinates,Original*
G04 #@! TF.FileFunction,Other,ECO2*
%FSLAX46Y46*%
G04 Gerber Fmt 4.6, Leading zero omitted, Abs format (unit mm)*
G04 Created by KiCad (PCBNEW (5.1.6)-1) date 2020-09-11 21:59:46*
%MOMM*%
%LPD*%
G01*
G04 APERTURE LIST*
G04 #@! TA.AperFunction,Profile*
%ADD10C,0.050000*%
G04 #@! TD*
G04 APERTURE END LIST*
D10*
X115500000Y-128250000D02*
X115500000Y-58250000D01*
X120500000Y-128250000D02*
X115500000Y-128250000D01*
X120500000Y-142750000D02*
X120500000Y-128250000D01*
X135500000Y-142750000D02*
X120500000Y-142750000D01*
X135500000Y-128250000D02*
X135500000Y-142750000D01*
X145500000Y-128250000D02*
X135500000Y-128250000D01*
X145500000Y-142750000D02*
X145500000Y-128250000D01*
X160500000Y-142750000D02*
X145500000Y-142750000D01*
X160500000Y-128250000D02*
X160500000Y-142750000D01*
X170500000Y-128250000D02*
X160500000Y-128250000D01*
X170500000Y-142750000D02*
X170500000Y-128250000D01*
X185500000Y-142750000D02*
X170500000Y-142750000D01*
X185500000Y-128250000D02*
X185500000Y-142750000D01*
X195500000Y-128250000D02*
X185500000Y-128250000D01*
X195500000Y-142750000D02*
X195500000Y-128250000D01*
X210500000Y-142750000D02*
X195500000Y-142750000D01*
X210500000Y-128250000D02*
X210500000Y-142750000D01*
X215500000Y-128250000D02*
X210500000Y-128250000D01*
X215500000Y-58250000D02*
X215500000Y-128250000D01*
X210500000Y-58250000D02*
X215500000Y-58250000D01*
X210500000Y-43750000D02*
X210500000Y-58250000D01*
X195500000Y-43750000D02*
X210500000Y-43750000D01*
X195500000Y-58250000D02*
X195500000Y-43750000D01*
X185500000Y-58250000D02*
X195500000Y-58250000D01*
X185500000Y-43750000D02*
X185500000Y-58250000D01*
X170500000Y-43750000D02*
X185500000Y-43750000D01*
X170500000Y-58250000D02*
X170500000Y-43750000D01*
X160500000Y-58250000D02*
X170500000Y-58250000D01*
X160500000Y-43750000D02*
X160500000Y-58250000D01*
X145500000Y-43750000D02*
X160500000Y-43750000D01*
X145500000Y-58250000D02*
X145500000Y-43750000D01*
X135500000Y-58250000D02*
X145500000Y-58250000D01*
X135500000Y-43750000D02*
X135500000Y-58250000D01*
X120500000Y-43750000D02*
X135500000Y-43750000D01*
X120500000Y-58250000D02*
X120500000Y-43750000D01*
X115500000Y-58250000D02*
X120500000Y-58250000D01*
M02*
