G04 #@! TF.GenerationSoftware,KiCad,Pcbnew,(5.1.6)-1*
G04 #@! TF.CreationDate,2020-09-11T21:59:46+04:00*
G04 #@! TF.ProjectId,Triple-five,54726970-6c65-42d6-9669-76652e6b6963,rev?*
G04 #@! TF.SameCoordinates,Original*
G04 #@! TF.FileFunction,Soldermask,Top*
G04 #@! TF.FilePolarity,Negative*
%FSLAX46Y46*%
G04 Gerber Fmt 4.6, Leading zero omitted, Abs format (unit mm)*
G04 Created by KiCad (PCBNEW (5.1.6)-1) date 2020-09-11 21:59:46*
%MOMM*%
%LPD*%
G01*
G04 APERTURE LIST*
%ADD10C,0.100000*%
G04 #@! TA.AperFunction,Profile*
%ADD11C,0.050000*%
G04 #@! TD*
%ADD12R,1.150000X1.600000*%
%ADD13O,1.150000X1.600000*%
%ADD14O,1.600000X1.150000*%
%ADD15R,1.600000X1.150000*%
%ADD16O,1.700000X1.700000*%
%ADD17C,1.700000*%
G04 APERTURE END LIST*
D10*
G36*
X160000000Y-142250000D02*
G01*
X146000000Y-142250000D01*
X146000000Y-128250000D01*
X160000000Y-128250000D01*
X160000000Y-142250000D01*
G37*
X160000000Y-142250000D02*
X146000000Y-142250000D01*
X146000000Y-128250000D01*
X160000000Y-128250000D01*
X160000000Y-142250000D01*
G36*
X185000000Y-142250000D02*
G01*
X171000000Y-142250000D01*
X171000000Y-128250000D01*
X185000000Y-128250000D01*
X185000000Y-142250000D01*
G37*
X185000000Y-142250000D02*
X171000000Y-142250000D01*
X171000000Y-128250000D01*
X185000000Y-128250000D01*
X185000000Y-142250000D01*
G36*
X210000000Y-142250000D02*
G01*
X196000000Y-142250000D01*
X196000000Y-128250000D01*
X210000000Y-128250000D01*
X210000000Y-142250000D01*
G37*
X210000000Y-142250000D02*
X196000000Y-142250000D01*
X196000000Y-128250000D01*
X210000000Y-128250000D01*
X210000000Y-142250000D01*
G36*
X135000000Y-142250000D02*
G01*
X121000000Y-142250000D01*
X121000000Y-128250000D01*
X135000000Y-128250000D01*
X135000000Y-142250000D01*
G37*
X135000000Y-142250000D02*
X121000000Y-142250000D01*
X121000000Y-128250000D01*
X135000000Y-128250000D01*
X135000000Y-142250000D01*
G36*
X210000000Y-58250000D02*
G01*
X196000000Y-58250000D01*
X196000000Y-44250000D01*
X210000000Y-44250000D01*
X210000000Y-58250000D01*
G37*
X210000000Y-58250000D02*
X196000000Y-58250000D01*
X196000000Y-44250000D01*
X210000000Y-44250000D01*
X210000000Y-58250000D01*
G36*
X185000000Y-58250000D02*
G01*
X171000000Y-58250000D01*
X171000000Y-44250000D01*
X185000000Y-44250000D01*
X185000000Y-58250000D01*
G37*
X185000000Y-58250000D02*
X171000000Y-58250000D01*
X171000000Y-44250000D01*
X185000000Y-44250000D01*
X185000000Y-58250000D01*
G36*
X160000000Y-58250000D02*
G01*
X146000000Y-58250000D01*
X146000000Y-44250000D01*
X160000000Y-44250000D01*
X160000000Y-58250000D01*
G37*
X160000000Y-58250000D02*
X146000000Y-58250000D01*
X146000000Y-44250000D01*
X160000000Y-44250000D01*
X160000000Y-58250000D01*
G36*
X135000000Y-58250000D02*
G01*
X121000000Y-58250000D01*
X121000000Y-44250000D01*
X135000000Y-44250000D01*
X135000000Y-58250000D01*
G37*
X135000000Y-58250000D02*
X121000000Y-58250000D01*
X121000000Y-44250000D01*
X135000000Y-44250000D01*
X135000000Y-58250000D01*
D11*
X115500000Y-128250000D02*
X115500000Y-58250000D01*
X120500000Y-128250000D02*
X115500000Y-128250000D01*
X120500000Y-142750000D02*
X120500000Y-128250000D01*
X135500000Y-142750000D02*
X120500000Y-142750000D01*
X135500000Y-128250000D02*
X135500000Y-142750000D01*
X145500000Y-128250000D02*
X135500000Y-128250000D01*
X145500000Y-142750000D02*
X145500000Y-128250000D01*
X160500000Y-142750000D02*
X145500000Y-142750000D01*
X160500000Y-128250000D02*
X160500000Y-142750000D01*
X170500000Y-128250000D02*
X160500000Y-128250000D01*
X170500000Y-142750000D02*
X170500000Y-128250000D01*
X185500000Y-142750000D02*
X170500000Y-142750000D01*
X185500000Y-128250000D02*
X185500000Y-142750000D01*
X195500000Y-128250000D02*
X185500000Y-128250000D01*
X195500000Y-142750000D02*
X195500000Y-128250000D01*
X210500000Y-142750000D02*
X195500000Y-142750000D01*
X210500000Y-128250000D02*
X210500000Y-142750000D01*
X215500000Y-128250000D02*
X210500000Y-128250000D01*
X215500000Y-58250000D02*
X215500000Y-128250000D01*
X210500000Y-58250000D02*
X215500000Y-58250000D01*
X210500000Y-43750000D02*
X210500000Y-58250000D01*
X195500000Y-43750000D02*
X210500000Y-43750000D01*
X195500000Y-58250000D02*
X195500000Y-43750000D01*
X185500000Y-58250000D02*
X195500000Y-58250000D01*
X185500000Y-43750000D02*
X185500000Y-58250000D01*
X170500000Y-43750000D02*
X185500000Y-43750000D01*
X170500000Y-58250000D02*
X170500000Y-43750000D01*
X160500000Y-58250000D02*
X170500000Y-58250000D01*
X160500000Y-43750000D02*
X160500000Y-58250000D01*
X145500000Y-43750000D02*
X160500000Y-43750000D01*
X145500000Y-58250000D02*
X145500000Y-43750000D01*
X135500000Y-58250000D02*
X145500000Y-58250000D01*
X135500000Y-43750000D02*
X135500000Y-58250000D01*
X120500000Y-43750000D02*
X135500000Y-43750000D01*
X120500000Y-58250000D02*
X120500000Y-43750000D01*
X115500000Y-58250000D02*
X120500000Y-58250000D01*
D12*
G04 #@! TO.C,Q26*
X174100000Y-112050000D03*
D13*
X176640000Y-112050000D03*
X175370000Y-112050000D03*
G04 #@! TD*
G04 #@! TO.C,Q19*
X179670000Y-79650000D03*
X180940000Y-79650000D03*
D12*
X178400000Y-79650000D03*
G04 #@! TD*
D13*
G04 #@! TO.C,Q10*
X132020000Y-66350000D03*
X133290000Y-66350000D03*
D12*
X130750000Y-66350000D03*
G04 #@! TD*
D13*
G04 #@! TO.C,Q15*
X179591600Y-66547400D03*
X180861600Y-66547400D03*
D12*
X178321600Y-66547400D03*
G04 #@! TD*
D14*
G04 #@! TO.C,Q8*
X125150000Y-121270000D03*
X125150000Y-122540000D03*
D15*
X125150000Y-120000000D03*
G04 #@! TD*
D12*
G04 #@! TO.C,Q14*
X186110000Y-73100000D03*
D13*
X188650000Y-73100000D03*
X187380000Y-73100000D03*
G04 #@! TD*
D12*
G04 #@! TO.C,Q11*
X137350000Y-74200000D03*
D13*
X139890000Y-74200000D03*
X138620000Y-74200000D03*
G04 #@! TD*
D15*
G04 #@! TO.C,Q17*
X194850000Y-80200000D03*
D14*
X194850000Y-77660000D03*
X194850000Y-78930000D03*
G04 #@! TD*
D12*
G04 #@! TO.C,Q23*
X167700000Y-112050000D03*
D13*
X170240000Y-112050000D03*
X168970000Y-112050000D03*
G04 #@! TD*
D12*
G04 #@! TO.C,Q12*
X130750000Y-74200000D03*
D13*
X133290000Y-74200000D03*
X132020000Y-74200000D03*
G04 #@! TD*
D12*
G04 #@! TO.C,Q20*
X178350000Y-86250000D03*
D13*
X180890000Y-86250000D03*
X179620000Y-86250000D03*
G04 #@! TD*
G04 #@! TO.C,Q13*
X125320000Y-74200000D03*
X126590000Y-74200000D03*
D12*
X124050000Y-74200000D03*
G04 #@! TD*
G04 #@! TO.C,Q9*
X124010000Y-66350000D03*
D13*
X126550000Y-66350000D03*
X125280000Y-66350000D03*
G04 #@! TD*
G04 #@! TO.C,Q18*
X187420000Y-79650000D03*
X188690000Y-79650000D03*
D12*
X186150000Y-79650000D03*
G04 #@! TD*
D13*
G04 #@! TO.C,Q16*
X179620000Y-73100000D03*
X180890000Y-73100000D03*
D12*
X178350000Y-73100000D03*
G04 #@! TD*
D13*
G04 #@! TO.C,Q7*
X139880000Y-106350000D03*
X138610000Y-106350000D03*
D12*
X141150000Y-106350000D03*
G04 #@! TD*
D15*
G04 #@! TO.C,Q6*
X131550000Y-120000000D03*
D14*
X131550000Y-122540000D03*
X131550000Y-121270000D03*
G04 #@! TD*
D12*
G04 #@! TO.C,Q5*
X138630000Y-101550000D03*
D13*
X141170000Y-101550000D03*
X139900000Y-101550000D03*
G04 #@! TD*
G04 #@! TO.C,Q4*
X127230000Y-106300000D03*
X125960000Y-106300000D03*
D12*
X128500000Y-106300000D03*
G04 #@! TD*
D14*
G04 #@! TO.C,Q3*
X138050000Y-121320000D03*
X138050000Y-122590000D03*
D15*
X138050000Y-120050000D03*
G04 #@! TD*
D14*
G04 #@! TO.C,Q1*
X144450000Y-121320000D03*
X144450000Y-122590000D03*
D15*
X144450000Y-120050000D03*
G04 #@! TD*
D16*
G04 #@! TO.C,R2*
X133700000Y-100940000D03*
D17*
X133700000Y-111100000D03*
G04 #@! TD*
D16*
G04 #@! TO.C,R5*
X127250000Y-89360000D03*
D17*
X127250000Y-79200000D03*
G04 #@! TD*
D16*
G04 #@! TO.C,R6*
X124099200Y-79188200D03*
D17*
X124099200Y-89348200D03*
G04 #@! TD*
D16*
G04 #@! TO.C,R10*
X194800000Y-73910000D03*
D17*
X194800000Y-63750000D03*
G04 #@! TD*
D16*
G04 #@! TO.C,R13*
X188560000Y-91600000D03*
D17*
X178400000Y-91600000D03*
G04 #@! TD*
D16*
G04 #@! TO.C,R17*
X163000000Y-104190000D03*
D17*
X163000000Y-114350000D03*
G04 #@! TD*
D12*
G04 #@! TO.C,Q21*
X200350000Y-107350000D03*
D13*
X202890000Y-107350000D03*
X201620000Y-107350000D03*
G04 #@! TD*
G04 #@! TO.C,Q24*
X201700000Y-114200000D03*
X202970000Y-114200000D03*
D12*
X200430000Y-114200000D03*
G04 #@! TD*
G04 #@! TO.C,Q25*
X203000000Y-119600000D03*
D13*
X200460000Y-119600000D03*
X201730000Y-119600000D03*
G04 #@! TD*
D16*
G04 #@! TO.C,R4*
X145800000Y-111010000D03*
D17*
X145800000Y-100850000D03*
G04 #@! TD*
D16*
G04 #@! TO.C,R7*
X137000000Y-89360000D03*
D17*
X137000000Y-79200000D03*
G04 #@! TD*
D16*
G04 #@! TO.C,R9*
X143500000Y-79190000D03*
D17*
X143500000Y-89350000D03*
G04 #@! TD*
D13*
G04 #@! TO.C,Q22*
X201630000Y-99700000D03*
X200360000Y-99700000D03*
D12*
X202900000Y-99700000D03*
G04 #@! TD*
D16*
G04 #@! TO.C,R12*
X200800000Y-86060000D03*
D17*
X200800000Y-75900000D03*
G04 #@! TD*
D12*
G04 #@! TO.C,Q2*
X125983400Y-101451600D03*
D13*
X128523400Y-101451600D03*
X127253400Y-101451600D03*
G04 #@! TD*
D17*
G04 #@! TO.C,R1*
X122000000Y-111100000D03*
D16*
X122000000Y-100940000D03*
G04 #@! TD*
G04 #@! TO.C,R3*
X144760000Y-115250000D03*
D17*
X134600000Y-115250000D03*
G04 #@! TD*
D16*
G04 #@! TO.C,R8*
X133800000Y-79190000D03*
D17*
X133800000Y-89350000D03*
G04 #@! TD*
D16*
G04 #@! TO.C,R11*
X196360000Y-85450000D03*
D17*
X186200000Y-85450000D03*
G04 #@! TD*
D16*
G04 #@! TO.C,R14*
X177160000Y-104600000D03*
D17*
X167000000Y-104600000D03*
G04 #@! TD*
D16*
G04 #@! TO.C,R15*
X207300000Y-121460000D03*
D17*
X207300000Y-111300000D03*
G04 #@! TD*
D16*
G04 #@! TO.C,R16*
X195400000Y-121310000D03*
D17*
X195400000Y-111150000D03*
G04 #@! TD*
M02*
