M48
; DRILL file {KiCad (5.1.6)-1} date 09/11/20 21:59:49
; FORMAT={-:-/ absolute / metric / decimal}
; #@! TF.CreationDate,2020-09-11T21:59:49+04:00
; #@! TF.GenerationSoftware,Kicad,Pcbnew,(5.1.6)-1
; #@! TF.FileFunction,Plated,1,2,PTH
FMAT,2
METRIC
T1C0.400
T2C0.750
T3C0.800
T4C4.500
%
G90
G05
T1
X136.1Y-104.55
X138.3Y-93.65
X140.55Y-63.7
X141.9Y-112.55
X144.15Y-65.55
T2
X124.05Y-74.2
X125.32Y-74.2
X126.59Y-74.2
X186.11Y-73.1
X187.38Y-73.1
X188.65Y-73.1
X178.35Y-73.1
X179.62Y-73.1
X180.89Y-73.1
X130.75Y-74.2
X132.02Y-74.2
X133.29Y-74.2
X137.35Y-74.2
X138.62Y-74.2
X139.89Y-74.2
X144.45Y-120.05
X144.45Y-121.32
X144.45Y-122.59
X167.7Y-112.05
X168.97Y-112.05
X170.24Y-112.05
X125.15Y-120.0
X125.15Y-121.27
X125.15Y-122.54
X125.96Y-106.3
X127.23Y-106.3
X128.5Y-106.3
X186.15Y-79.65
X187.42Y-79.65
X188.69Y-79.65
X200.43Y-114.2
X201.7Y-114.2
X202.97Y-114.2
X131.55Y-120.0
X131.55Y-121.27
X131.55Y-122.54
X138.05Y-120.05
X138.05Y-121.32
X138.05Y-122.59
X124.01Y-66.35
X125.28Y-66.35
X126.55Y-66.35
X174.1Y-112.05
X175.37Y-112.05
X176.64Y-112.05
X200.35Y-107.35
X201.62Y-107.35
X202.89Y-107.35
X138.63Y-101.55
X139.9Y-101.55
X141.17Y-101.55
X200.36Y-99.7
X201.63Y-99.7
X202.9Y-99.7
X138.61Y-106.35
X139.88Y-106.35
X141.15Y-106.35
X178.4Y-79.65
X179.67Y-79.65
X180.94Y-79.65
X178.35Y-86.25
X179.62Y-86.25
X180.89Y-86.25
X194.85Y-77.66
X194.85Y-78.93
X194.85Y-80.2
X125.983Y-101.452
X127.253Y-101.452
X128.523Y-101.452
X178.322Y-66.547
X179.592Y-66.547
X180.862Y-66.547
X200.46Y-119.6
X201.73Y-119.6
X203.0Y-119.6
X130.75Y-66.35
X132.02Y-66.35
X133.29Y-66.35
T3
X145.8Y-100.85
X145.8Y-111.01
X133.8Y-79.19
X133.8Y-89.35
X124.099Y-79.188
X124.099Y-89.348
X122.0Y-100.94
X122.0Y-111.1
X178.4Y-91.6
X188.56Y-91.6
X207.3Y-111.3
X207.3Y-121.46
X143.5Y-79.19
X143.5Y-89.35
X133.7Y-100.94
X133.7Y-111.1
X195.4Y-111.15
X195.4Y-121.31
X127.25Y-79.2
X127.25Y-89.36
X167.0Y-104.6
X177.16Y-104.6
X137.0Y-79.2
X137.0Y-89.36
X163.0Y-104.19
X163.0Y-114.35
X134.6Y-115.25
X144.76Y-115.25
X186.2Y-85.45
X196.36Y-85.45
X194.8Y-63.75
X194.8Y-73.91
X200.8Y-75.9
X200.8Y-86.06
T4
X128.0Y-51.25
X128.0Y-135.25
X153.0Y-51.25
X153.0Y-135.25
X178.0Y-51.25
X178.0Y-135.25
X203.0Y-51.25
X203.0Y-135.25
T0
M30
