G04 #@! TF.GenerationSoftware,KiCad,Pcbnew,(5.1.6)-1*
G04 #@! TF.CreationDate,2020-09-11T21:59:46+04:00*
G04 #@! TF.ProjectId,Triple-five,54726970-6c65-42d6-9669-76652e6b6963,rev?*
G04 #@! TF.SameCoordinates,Original*
G04 #@! TF.FileFunction,Legend,Bot*
G04 #@! TF.FilePolarity,Positive*
%FSLAX46Y46*%
G04 Gerber Fmt 4.6, Leading zero omitted, Abs format (unit mm)*
G04 Created by KiCad (PCBNEW (5.1.6)-1) date 2020-09-11 21:59:46*
%MOMM*%
%LPD*%
G01*
G04 APERTURE LIST*
%ADD10C,0.150000*%
G04 #@! TA.AperFunction,Profile*
%ADD11C,0.050000*%
G04 #@! TD*
%ADD12C,0.010000*%
G04 APERTURE END LIST*
D10*
X213088095Y-83797619D02*
X211788095Y-83797619D01*
X211788095Y-84107142D01*
X211850000Y-84292857D01*
X211973809Y-84416666D01*
X212097619Y-84478571D01*
X212345238Y-84540476D01*
X212530952Y-84540476D01*
X212778571Y-84478571D01*
X212902380Y-84416666D01*
X213026190Y-84292857D01*
X213088095Y-84107142D01*
X213088095Y-83797619D01*
X212407142Y-85097619D02*
X212407142Y-85530952D01*
X213088095Y-85716666D02*
X213088095Y-85097619D01*
X211788095Y-85097619D01*
X211788095Y-85716666D01*
X213026190Y-86211904D02*
X213088095Y-86397619D01*
X213088095Y-86707142D01*
X213026190Y-86830952D01*
X212964285Y-86892857D01*
X212840476Y-86954761D01*
X212716666Y-86954761D01*
X212592857Y-86892857D01*
X212530952Y-86830952D01*
X212469047Y-86707142D01*
X212407142Y-86459523D01*
X212345238Y-86335714D01*
X212283333Y-86273809D01*
X212159523Y-86211904D01*
X212035714Y-86211904D01*
X211911904Y-86273809D01*
X211850000Y-86335714D01*
X211788095Y-86459523D01*
X211788095Y-86769047D01*
X211850000Y-86954761D01*
X213088095Y-87511904D02*
X211788095Y-87511904D01*
X211850000Y-88811904D02*
X211788095Y-88688095D01*
X211788095Y-88502380D01*
X211850000Y-88316666D01*
X211973809Y-88192857D01*
X212097619Y-88130952D01*
X212345238Y-88069047D01*
X212530952Y-88069047D01*
X212778571Y-88130952D01*
X212902380Y-88192857D01*
X213026190Y-88316666D01*
X213088095Y-88502380D01*
X213088095Y-88626190D01*
X213026190Y-88811904D01*
X212964285Y-88873809D01*
X212530952Y-88873809D01*
X212530952Y-88626190D01*
X213088095Y-89430952D02*
X211788095Y-89430952D01*
X213088095Y-90173809D01*
X211788095Y-90173809D01*
X212407142Y-90792857D02*
X212407142Y-91226190D01*
X213088095Y-91411904D02*
X213088095Y-90792857D01*
X211788095Y-90792857D01*
X211788095Y-91411904D01*
X213088095Y-91969047D02*
X211788095Y-91969047D01*
X211788095Y-92278571D01*
X211850000Y-92464285D01*
X211973809Y-92588095D01*
X212097619Y-92650000D01*
X212345238Y-92711904D01*
X212530952Y-92711904D01*
X212778571Y-92650000D01*
X212902380Y-92588095D01*
X213026190Y-92464285D01*
X213088095Y-92278571D01*
X213088095Y-91969047D01*
X213088095Y-94259523D02*
X211788095Y-94259523D01*
X213088095Y-94878571D02*
X211788095Y-94878571D01*
X213088095Y-95621428D01*
X211788095Y-95621428D01*
X213088095Y-97230952D02*
X211788095Y-97230952D01*
X212716666Y-97664285D01*
X211788095Y-98097619D01*
X213088095Y-98097619D01*
X212716666Y-98654761D02*
X212716666Y-99273809D01*
X213088095Y-98530952D02*
X211788095Y-98964285D01*
X213088095Y-99397619D01*
X211788095Y-99830952D02*
X212840476Y-99830952D01*
X212964285Y-99892857D01*
X213026190Y-99954761D01*
X213088095Y-100078571D01*
X213088095Y-100326190D01*
X213026190Y-100450000D01*
X212964285Y-100511904D01*
X212840476Y-100573809D01*
X211788095Y-100573809D01*
X213088095Y-101935714D02*
X212469047Y-101502380D01*
X213088095Y-101192857D02*
X211788095Y-101192857D01*
X211788095Y-101688095D01*
X211850000Y-101811904D01*
X211911904Y-101873809D01*
X212035714Y-101935714D01*
X212221428Y-101935714D01*
X212345238Y-101873809D01*
X212407142Y-101811904D01*
X212469047Y-101688095D01*
X212469047Y-101192857D01*
X213088095Y-102492857D02*
X211788095Y-102492857D01*
X211788095Y-102926190D02*
X211788095Y-103669047D01*
X213088095Y-103297619D02*
X211788095Y-103297619D01*
X213088095Y-104102380D02*
X211788095Y-104102380D01*
X211788095Y-104721428D02*
X212840476Y-104721428D01*
X212964285Y-104783333D01*
X213026190Y-104845238D01*
X213088095Y-104969047D01*
X213088095Y-105216666D01*
X213026190Y-105340476D01*
X212964285Y-105402380D01*
X212840476Y-105464285D01*
X211788095Y-105464285D01*
X213026190Y-106021428D02*
X213088095Y-106207142D01*
X213088095Y-106516666D01*
X213026190Y-106640476D01*
X212964285Y-106702380D01*
X212840476Y-106764285D01*
X212716666Y-106764285D01*
X212592857Y-106702380D01*
X212530952Y-106640476D01*
X212469047Y-106516666D01*
X212407142Y-106269047D01*
X212345238Y-106145238D01*
X212283333Y-106083333D01*
X212159523Y-106021428D01*
X212035714Y-106021428D01*
X211911904Y-106083333D01*
X211850000Y-106145238D01*
X211788095Y-106269047D01*
X211788095Y-106578571D01*
X211850000Y-106764285D01*
D11*
X115500000Y-128250000D02*
X115500000Y-58250000D01*
X120500000Y-128250000D02*
X115500000Y-128250000D01*
X120500000Y-142750000D02*
X120500000Y-128250000D01*
X135500000Y-142750000D02*
X120500000Y-142750000D01*
X135500000Y-128250000D02*
X135500000Y-142750000D01*
X145500000Y-128250000D02*
X135500000Y-128250000D01*
X145500000Y-142750000D02*
X145500000Y-128250000D01*
X160500000Y-142750000D02*
X145500000Y-142750000D01*
X160500000Y-128250000D02*
X160500000Y-142750000D01*
X170500000Y-128250000D02*
X160500000Y-128250000D01*
X170500000Y-142750000D02*
X170500000Y-128250000D01*
X185500000Y-142750000D02*
X170500000Y-142750000D01*
X185500000Y-128250000D02*
X185500000Y-142750000D01*
X195500000Y-128250000D02*
X185500000Y-128250000D01*
X195500000Y-142750000D02*
X195500000Y-128250000D01*
X210500000Y-142750000D02*
X195500000Y-142750000D01*
X210500000Y-128250000D02*
X210500000Y-142750000D01*
X215500000Y-128250000D02*
X210500000Y-128250000D01*
X215500000Y-58250000D02*
X215500000Y-128250000D01*
X210500000Y-58250000D02*
X215500000Y-58250000D01*
X210500000Y-43750000D02*
X210500000Y-58250000D01*
X195500000Y-43750000D02*
X210500000Y-43750000D01*
X195500000Y-58250000D02*
X195500000Y-43750000D01*
X185500000Y-58250000D02*
X195500000Y-58250000D01*
X185500000Y-43750000D02*
X185500000Y-58250000D01*
X170500000Y-43750000D02*
X185500000Y-43750000D01*
X170500000Y-58250000D02*
X170500000Y-43750000D01*
X160500000Y-58250000D02*
X170500000Y-58250000D01*
X160500000Y-43750000D02*
X160500000Y-58250000D01*
X145500000Y-43750000D02*
X160500000Y-43750000D01*
X145500000Y-58250000D02*
X145500000Y-43750000D01*
X135500000Y-58250000D02*
X145500000Y-58250000D01*
X135500000Y-43750000D02*
X135500000Y-58250000D01*
X120500000Y-43750000D02*
X135500000Y-43750000D01*
X120500000Y-58250000D02*
X120500000Y-43750000D01*
X115500000Y-58250000D02*
X120500000Y-58250000D01*
D12*
G04 #@! TO.C,REF\u002A\u002A*
G36*
X171654758Y-78679749D02*
G01*
X171793806Y-78958625D01*
X172049827Y-79204770D01*
X172144660Y-79272557D01*
X172268751Y-79346406D01*
X172403531Y-79394320D01*
X172583411Y-79421732D01*
X172842805Y-79434072D01*
X173185252Y-79436782D01*
X173654539Y-79424545D01*
X174006896Y-79382010D01*
X174269770Y-79300442D01*
X174470607Y-79171104D01*
X174636853Y-78985260D01*
X174646696Y-78971605D01*
X174747384Y-78788451D01*
X174797201Y-78567899D01*
X174809483Y-78287405D01*
X174809483Y-77831418D01*
X175252143Y-77831226D01*
X175498675Y-77826983D01*
X175643284Y-77801126D01*
X175730014Y-77733554D01*
X175802911Y-77604170D01*
X175817804Y-77573098D01*
X175887597Y-77427692D01*
X175931679Y-77315110D01*
X175935486Y-77231396D01*
X175884453Y-77172595D01*
X175764017Y-77134751D01*
X175559614Y-77113907D01*
X175256680Y-77106109D01*
X174840651Y-77107400D01*
X174296963Y-77113823D01*
X174134339Y-77115829D01*
X173573755Y-77123056D01*
X173207053Y-77129530D01*
X173207053Y-77831034D01*
X173518315Y-77834977D01*
X173721967Y-77852500D01*
X173856288Y-77892145D01*
X173959559Y-77962453D01*
X174009927Y-78010188D01*
X174157303Y-78205338D01*
X174169299Y-78378118D01*
X174047595Y-78556400D01*
X174043104Y-78560919D01*
X173949045Y-78633456D01*
X173821211Y-78677582D01*
X173624345Y-78699840D01*
X173323189Y-78706771D01*
X173256470Y-78706896D01*
X172841458Y-78690146D01*
X172553763Y-78635620D01*
X172378135Y-78536911D01*
X172299323Y-78387610D01*
X172291379Y-78301321D01*
X172328650Y-78096526D01*
X172451371Y-77956052D01*
X172675904Y-77871494D01*
X173018614Y-77834449D01*
X173207053Y-77831034D01*
X173207053Y-77129530D01*
X173139881Y-77130716D01*
X172813455Y-77140617D01*
X172575219Y-77154564D01*
X172405910Y-77174365D01*
X172286269Y-77201826D01*
X172197034Y-77238753D01*
X172118944Y-77286954D01*
X172089560Y-77307622D01*
X171811992Y-77581781D01*
X171654618Y-77928413D01*
X171610744Y-78329384D01*
X171654758Y-78679749D01*
G37*
X171654758Y-78679749D02*
X171793806Y-78958625D01*
X172049827Y-79204770D01*
X172144660Y-79272557D01*
X172268751Y-79346406D01*
X172403531Y-79394320D01*
X172583411Y-79421732D01*
X172842805Y-79434072D01*
X173185252Y-79436782D01*
X173654539Y-79424545D01*
X174006896Y-79382010D01*
X174269770Y-79300442D01*
X174470607Y-79171104D01*
X174636853Y-78985260D01*
X174646696Y-78971605D01*
X174747384Y-78788451D01*
X174797201Y-78567899D01*
X174809483Y-78287405D01*
X174809483Y-77831418D01*
X175252143Y-77831226D01*
X175498675Y-77826983D01*
X175643284Y-77801126D01*
X175730014Y-77733554D01*
X175802911Y-77604170D01*
X175817804Y-77573098D01*
X175887597Y-77427692D01*
X175931679Y-77315110D01*
X175935486Y-77231396D01*
X175884453Y-77172595D01*
X175764017Y-77134751D01*
X175559614Y-77113907D01*
X175256680Y-77106109D01*
X174840651Y-77107400D01*
X174296963Y-77113823D01*
X174134339Y-77115829D01*
X173573755Y-77123056D01*
X173207053Y-77129530D01*
X173207053Y-77831034D01*
X173518315Y-77834977D01*
X173721967Y-77852500D01*
X173856288Y-77892145D01*
X173959559Y-77962453D01*
X174009927Y-78010188D01*
X174157303Y-78205338D01*
X174169299Y-78378118D01*
X174047595Y-78556400D01*
X174043104Y-78560919D01*
X173949045Y-78633456D01*
X173821211Y-78677582D01*
X173624345Y-78699840D01*
X173323189Y-78706771D01*
X173256470Y-78706896D01*
X172841458Y-78690146D01*
X172553763Y-78635620D01*
X172378135Y-78536911D01*
X172299323Y-78387610D01*
X172291379Y-78301321D01*
X172328650Y-78096526D01*
X172451371Y-77956052D01*
X172675904Y-77871494D01*
X173018614Y-77834449D01*
X173207053Y-77831034D01*
X173207053Y-77129530D01*
X173139881Y-77130716D01*
X172813455Y-77140617D01*
X172575219Y-77154564D01*
X172405910Y-77174365D01*
X172286269Y-77201826D01*
X172197034Y-77238753D01*
X172118944Y-77286954D01*
X172089560Y-77307622D01*
X171811992Y-77581781D01*
X171654618Y-77928413D01*
X171610744Y-78329384D01*
X171654758Y-78679749D01*
G36*
X171694298Y-84293573D02*
G01*
X171829785Y-84527807D01*
X171964267Y-84690661D01*
X172105164Y-84809766D01*
X172277468Y-84891819D01*
X172506171Y-84943515D01*
X172816266Y-84971550D01*
X173232744Y-84982621D01*
X173532128Y-84983908D01*
X174634149Y-84983908D01*
X174773208Y-84673707D01*
X174912268Y-84363506D01*
X173705237Y-84327011D01*
X173254449Y-84311932D01*
X172927252Y-84296113D01*
X172701278Y-84276514D01*
X172554161Y-84250092D01*
X172463532Y-84213808D01*
X172407024Y-84164619D01*
X172394793Y-84148837D01*
X172299266Y-83909719D01*
X172337067Y-83668018D01*
X172437356Y-83524138D01*
X172508424Y-83465611D01*
X172601681Y-83425098D01*
X172743058Y-83399351D01*
X172958486Y-83385122D01*
X173273896Y-83379160D01*
X173602605Y-83378161D01*
X174014999Y-83377965D01*
X174306903Y-83370903D01*
X174503776Y-83347268D01*
X174631077Y-83297350D01*
X174714266Y-83211439D01*
X174778801Y-83079829D01*
X174845861Y-82904042D01*
X174918856Y-82712051D01*
X173623365Y-82734905D01*
X173156347Y-82744108D01*
X172811225Y-82754876D01*
X172563921Y-82770307D01*
X172390363Y-82793504D01*
X172266474Y-82827568D01*
X172168182Y-82875598D01*
X172081460Y-82933504D01*
X171804425Y-83212879D01*
X171644222Y-83553781D01*
X171605847Y-83924562D01*
X171694298Y-84293573D01*
G37*
X171694298Y-84293573D02*
X171829785Y-84527807D01*
X171964267Y-84690661D01*
X172105164Y-84809766D01*
X172277468Y-84891819D01*
X172506171Y-84943515D01*
X172816266Y-84971550D01*
X173232744Y-84982621D01*
X173532128Y-84983908D01*
X174634149Y-84983908D01*
X174773208Y-84673707D01*
X174912268Y-84363506D01*
X173705237Y-84327011D01*
X173254449Y-84311932D01*
X172927252Y-84296113D01*
X172701278Y-84276514D01*
X172554161Y-84250092D01*
X172463532Y-84213808D01*
X172407024Y-84164619D01*
X172394793Y-84148837D01*
X172299266Y-83909719D01*
X172337067Y-83668018D01*
X172437356Y-83524138D01*
X172508424Y-83465611D01*
X172601681Y-83425098D01*
X172743058Y-83399351D01*
X172958486Y-83385122D01*
X173273896Y-83379160D01*
X173602605Y-83378161D01*
X174014999Y-83377965D01*
X174306903Y-83370903D01*
X174503776Y-83347268D01*
X174631077Y-83297350D01*
X174714266Y-83211439D01*
X174778801Y-83079829D01*
X174845861Y-82904042D01*
X174918856Y-82712051D01*
X173623365Y-82734905D01*
X173156347Y-82744108D01*
X172811225Y-82754876D01*
X172563921Y-82770307D01*
X172390363Y-82793504D01*
X172266474Y-82827568D01*
X172168182Y-82875598D01*
X172081460Y-82933504D01*
X171804425Y-83212879D01*
X171644222Y-83553781D01*
X171605847Y-83924562D01*
X171694298Y-84293573D01*
G36*
X171665037Y-75870551D02*
G01*
X171844920Y-76212653D01*
X172134416Y-76465127D01*
X172320533Y-76554811D01*
X172599980Y-76624598D01*
X172953067Y-76660322D01*
X173338428Y-76663709D01*
X173714698Y-76636487D01*
X174040513Y-76580383D01*
X174274507Y-76497125D01*
X174314806Y-76471537D01*
X174615622Y-76168454D01*
X174795793Y-75808467D01*
X174848520Y-75417848D01*
X174767005Y-75022869D01*
X174718134Y-74912949D01*
X174567530Y-74698890D01*
X174367837Y-74511020D01*
X174342511Y-74493265D01*
X174220453Y-74421097D01*
X174089976Y-74373392D01*
X173918212Y-74345210D01*
X173672295Y-74331611D01*
X173319359Y-74327655D01*
X173240230Y-74327586D01*
X173215048Y-74327768D01*
X173215048Y-75057471D01*
X173548141Y-75061718D01*
X173769185Y-75078431D01*
X173911962Y-75113563D01*
X174010255Y-75173071D01*
X174043104Y-75203448D01*
X174167930Y-75378089D01*
X174162237Y-75547646D01*
X174053960Y-75719086D01*
X173938366Y-75821338D01*
X173769644Y-75881895D01*
X173503582Y-75915902D01*
X173472551Y-75918235D01*
X172990367Y-75924039D01*
X172632250Y-75863374D01*
X172400400Y-75737061D01*
X172297017Y-75545919D01*
X172291379Y-75477689D01*
X172319732Y-75298527D01*
X172417959Y-75175975D01*
X172605815Y-75101044D01*
X172903055Y-75064748D01*
X173215048Y-75057471D01*
X173215048Y-74327768D01*
X172864147Y-74330305D01*
X172601372Y-74341719D01*
X172419286Y-74366721D01*
X172285270Y-74410197D01*
X172166704Y-74477039D01*
X172144660Y-74491810D01*
X171847517Y-74740079D01*
X171675021Y-75010604D01*
X171606547Y-75339952D01*
X171603202Y-75451791D01*
X171665037Y-75870551D01*
G37*
X171665037Y-75870551D02*
X171844920Y-76212653D01*
X172134416Y-76465127D01*
X172320533Y-76554811D01*
X172599980Y-76624598D01*
X172953067Y-76660322D01*
X173338428Y-76663709D01*
X173714698Y-76636487D01*
X174040513Y-76580383D01*
X174274507Y-76497125D01*
X174314806Y-76471537D01*
X174615622Y-76168454D01*
X174795793Y-75808467D01*
X174848520Y-75417848D01*
X174767005Y-75022869D01*
X174718134Y-74912949D01*
X174567530Y-74698890D01*
X174367837Y-74511020D01*
X174342511Y-74493265D01*
X174220453Y-74421097D01*
X174089976Y-74373392D01*
X173918212Y-74345210D01*
X173672295Y-74331611D01*
X173319359Y-74327655D01*
X173240230Y-74327586D01*
X173215048Y-74327768D01*
X173215048Y-75057471D01*
X173548141Y-75061718D01*
X173769185Y-75078431D01*
X173911962Y-75113563D01*
X174010255Y-75173071D01*
X174043104Y-75203448D01*
X174167930Y-75378089D01*
X174162237Y-75547646D01*
X174053960Y-75719086D01*
X173938366Y-75821338D01*
X173769644Y-75881895D01*
X173503582Y-75915902D01*
X173472551Y-75918235D01*
X172990367Y-75924039D01*
X172632250Y-75863374D01*
X172400400Y-75737061D01*
X172297017Y-75545919D01*
X172291379Y-75477689D01*
X172319732Y-75298527D01*
X172417959Y-75175975D01*
X172605815Y-75101044D01*
X172903055Y-75064748D01*
X173215048Y-75057471D01*
X173215048Y-74327768D01*
X172864147Y-74330305D01*
X172601372Y-74341719D01*
X172419286Y-74366721D01*
X172285270Y-74410197D01*
X172166704Y-74477039D01*
X172144660Y-74491810D01*
X171847517Y-74740079D01*
X171675021Y-75010604D01*
X171606547Y-75339952D01*
X171603202Y-75451791D01*
X171665037Y-75870551D01*
G36*
X171711691Y-81538879D02*
G01*
X171905279Y-81826644D01*
X172184873Y-82049027D01*
X172540663Y-82181873D01*
X172802537Y-82208742D01*
X172911816Y-82205690D01*
X172995486Y-82180140D01*
X173070447Y-82109903D01*
X173153599Y-81972790D01*
X173261844Y-81746612D01*
X173412082Y-81409180D01*
X173412836Y-81407471D01*
X173555093Y-81096876D01*
X173681414Y-80842181D01*
X173778199Y-80669417D01*
X173831850Y-80604615D01*
X173832282Y-80604598D01*
X173949111Y-80661712D01*
X174077886Y-80795273D01*
X174170653Y-80948605D01*
X174189081Y-81026288D01*
X174125346Y-81238223D01*
X173965728Y-81420732D01*
X173790234Y-81509782D01*
X173660857Y-81595450D01*
X173513522Y-81763257D01*
X173386240Y-81960519D01*
X173317022Y-82134551D01*
X173313219Y-82170943D01*
X173375802Y-82211907D01*
X173535778Y-82214375D01*
X173751482Y-82184271D01*
X173981252Y-82127516D01*
X174183424Y-82050034D01*
X174191273Y-82046121D01*
X174516835Y-81812953D01*
X174738277Y-81510760D01*
X174846966Y-81167568D01*
X174834265Y-80811400D01*
X174691541Y-80470281D01*
X174681505Y-80455113D01*
X174438316Y-80186775D01*
X174121023Y-80010330D01*
X173703815Y-79912684D01*
X173586597Y-79899579D01*
X173033324Y-79876370D01*
X172775311Y-79904194D01*
X172775311Y-80604598D01*
X172936257Y-80613698D01*
X172983228Y-80663473D01*
X172948088Y-80787564D01*
X172865022Y-80983167D01*
X172760898Y-81201814D01*
X172758141Y-81207248D01*
X172660662Y-81392574D01*
X172595610Y-81466953D01*
X172527413Y-81448612D01*
X172437804Y-81371382D01*
X172308127Y-81174900D01*
X172298599Y-80963306D01*
X172392973Y-80773507D01*
X172575004Y-80642411D01*
X172775311Y-80604598D01*
X172775311Y-79904194D01*
X172590652Y-79924109D01*
X172239572Y-80046586D01*
X171993619Y-80217090D01*
X171745074Y-80524837D01*
X171621778Y-80863821D01*
X171613921Y-81209886D01*
X171711691Y-81538879D01*
G37*
X171711691Y-81538879D02*
X171905279Y-81826644D01*
X172184873Y-82049027D01*
X172540663Y-82181873D01*
X172802537Y-82208742D01*
X172911816Y-82205690D01*
X172995486Y-82180140D01*
X173070447Y-82109903D01*
X173153599Y-81972790D01*
X173261844Y-81746612D01*
X173412082Y-81409180D01*
X173412836Y-81407471D01*
X173555093Y-81096876D01*
X173681414Y-80842181D01*
X173778199Y-80669417D01*
X173831850Y-80604615D01*
X173832282Y-80604598D01*
X173949111Y-80661712D01*
X174077886Y-80795273D01*
X174170653Y-80948605D01*
X174189081Y-81026288D01*
X174125346Y-81238223D01*
X173965728Y-81420732D01*
X173790234Y-81509782D01*
X173660857Y-81595450D01*
X173513522Y-81763257D01*
X173386240Y-81960519D01*
X173317022Y-82134551D01*
X173313219Y-82170943D01*
X173375802Y-82211907D01*
X173535778Y-82214375D01*
X173751482Y-82184271D01*
X173981252Y-82127516D01*
X174183424Y-82050034D01*
X174191273Y-82046121D01*
X174516835Y-81812953D01*
X174738277Y-81510760D01*
X174846966Y-81167568D01*
X174834265Y-80811400D01*
X174691541Y-80470281D01*
X174681505Y-80455113D01*
X174438316Y-80186775D01*
X174121023Y-80010330D01*
X173703815Y-79912684D01*
X173586597Y-79899579D01*
X173033324Y-79876370D01*
X172775311Y-79904194D01*
X172775311Y-80604598D01*
X172936257Y-80613698D01*
X172983228Y-80663473D01*
X172948088Y-80787564D01*
X172865022Y-80983167D01*
X172760898Y-81201814D01*
X172758141Y-81207248D01*
X172660662Y-81392574D01*
X172595610Y-81466953D01*
X172527413Y-81448612D01*
X172437804Y-81371382D01*
X172308127Y-81174900D01*
X172298599Y-80963306D01*
X172392973Y-80773507D01*
X172575004Y-80642411D01*
X172775311Y-80604598D01*
X172775311Y-79904194D01*
X172590652Y-79924109D01*
X172239572Y-80046586D01*
X171993619Y-80217090D01*
X171745074Y-80524837D01*
X171621778Y-80863821D01*
X171613921Y-81209886D01*
X171711691Y-81538879D01*
G36*
X171309643Y-87611494D02*
G01*
X171607969Y-87632884D01*
X171783766Y-87657452D01*
X171860447Y-87691497D01*
X171861428Y-87741317D01*
X171852274Y-87757471D01*
X171785995Y-87972349D01*
X171789865Y-88251862D01*
X171857998Y-88536036D01*
X171946139Y-88713775D01*
X172086946Y-88896013D01*
X172246297Y-89029233D01*
X172448774Y-89120687D01*
X172718964Y-89177624D01*
X173081450Y-89207297D01*
X173560816Y-89216955D01*
X173652774Y-89217128D01*
X174685720Y-89217241D01*
X174765849Y-88987384D01*
X174820361Y-88824130D01*
X174845742Y-88734561D01*
X174845977Y-88731924D01*
X174777150Y-88723104D01*
X174587308Y-88715597D01*
X174301412Y-88709975D01*
X173944422Y-88706809D01*
X173727378Y-88706322D01*
X173299432Y-88705306D01*
X172992720Y-88700079D01*
X172782501Y-88687367D01*
X172644034Y-88663899D01*
X172552579Y-88626403D01*
X172483397Y-88571606D01*
X172450079Y-88537393D01*
X172315821Y-88302372D01*
X172305767Y-88045911D01*
X172419312Y-87813224D01*
X172460308Y-87770194D01*
X172537393Y-87707079D01*
X172628828Y-87663301D01*
X172761037Y-87635355D01*
X172960442Y-87619741D01*
X173253464Y-87612955D01*
X173657478Y-87611494D01*
X174685720Y-87611494D01*
X174765849Y-87381637D01*
X174820361Y-87218383D01*
X174845742Y-87128813D01*
X174845977Y-87126177D01*
X174776120Y-87119437D01*
X174579076Y-87113362D01*
X174273633Y-87108194D01*
X173878581Y-87104178D01*
X173412707Y-87101558D01*
X172894801Y-87100576D01*
X172871764Y-87100575D01*
X170897551Y-87100575D01*
X170797492Y-87337787D01*
X170697433Y-87575000D01*
X171309643Y-87611494D01*
G37*
X171309643Y-87611494D02*
X171607969Y-87632884D01*
X171783766Y-87657452D01*
X171860447Y-87691497D01*
X171861428Y-87741317D01*
X171852274Y-87757471D01*
X171785995Y-87972349D01*
X171789865Y-88251862D01*
X171857998Y-88536036D01*
X171946139Y-88713775D01*
X172086946Y-88896013D01*
X172246297Y-89029233D01*
X172448774Y-89120687D01*
X172718964Y-89177624D01*
X173081450Y-89207297D01*
X173560816Y-89216955D01*
X173652774Y-89217128D01*
X174685720Y-89217241D01*
X174765849Y-88987384D01*
X174820361Y-88824130D01*
X174845742Y-88734561D01*
X174845977Y-88731924D01*
X174777150Y-88723104D01*
X174587308Y-88715597D01*
X174301412Y-88709975D01*
X173944422Y-88706809D01*
X173727378Y-88706322D01*
X173299432Y-88705306D01*
X172992720Y-88700079D01*
X172782501Y-88687367D01*
X172644034Y-88663899D01*
X172552579Y-88626403D01*
X172483397Y-88571606D01*
X172450079Y-88537393D01*
X172315821Y-88302372D01*
X172305767Y-88045911D01*
X172419312Y-87813224D01*
X172460308Y-87770194D01*
X172537393Y-87707079D01*
X172628828Y-87663301D01*
X172761037Y-87635355D01*
X172960442Y-87619741D01*
X173253464Y-87612955D01*
X173657478Y-87611494D01*
X174685720Y-87611494D01*
X174765849Y-87381637D01*
X174820361Y-87218383D01*
X174845742Y-87128813D01*
X174845977Y-87126177D01*
X174776120Y-87119437D01*
X174579076Y-87113362D01*
X174273633Y-87108194D01*
X173878581Y-87104178D01*
X173412707Y-87101558D01*
X172894801Y-87100576D01*
X172871764Y-87100575D01*
X170897551Y-87100575D01*
X170797492Y-87337787D01*
X170697433Y-87575000D01*
X171309643Y-87611494D01*
G36*
X171810901Y-90949861D02*
G01*
X171917104Y-91235857D01*
X171919146Y-91239129D01*
X172049325Y-91416008D01*
X172201459Y-91546589D01*
X172399718Y-91638428D01*
X172668272Y-91699084D01*
X173031292Y-91736113D01*
X173512949Y-91757073D01*
X173581571Y-91758910D01*
X174616303Y-91785299D01*
X174731140Y-91563228D01*
X174808745Y-91402545D01*
X174845516Y-91305525D01*
X174845977Y-91301038D01*
X174778126Y-91284249D01*
X174595103Y-91270912D01*
X174327702Y-91262708D01*
X174111174Y-91260919D01*
X173760406Y-91260878D01*
X173540128Y-91244843D01*
X173435063Y-91188949D01*
X173429937Y-91069331D01*
X173509475Y-90862123D01*
X173655681Y-90549282D01*
X173777113Y-90319242D01*
X173882466Y-90200927D01*
X173997290Y-90166145D01*
X174002973Y-90166092D01*
X174200777Y-90223488D01*
X174307637Y-90393424D01*
X174323115Y-90653495D01*
X174320430Y-90840824D01*
X174374383Y-90939598D01*
X174503977Y-91001196D01*
X174669081Y-91036648D01*
X174762761Y-90985557D01*
X174776169Y-90966320D01*
X174830015Y-90785207D01*
X174837638Y-90531582D01*
X174801946Y-90270391D01*
X174736720Y-90085313D01*
X174519463Y-89829430D01*
X174217041Y-89683977D01*
X173980769Y-89655172D01*
X173767655Y-89677155D01*
X173593691Y-89756701D01*
X173439181Y-89914209D01*
X173284430Y-90170078D01*
X173109743Y-90544706D01*
X173099870Y-90567529D01*
X172943971Y-90904993D01*
X172816115Y-91113235D01*
X172701221Y-91202493D01*
X172584208Y-91183008D01*
X172449996Y-91065017D01*
X172419109Y-91029734D01*
X172299353Y-90793398D01*
X172304395Y-90548514D01*
X172421810Y-90335241D01*
X172639172Y-90193740D01*
X172681836Y-90180592D01*
X172888760Y-90052557D01*
X172988430Y-89890093D01*
X173087206Y-89655172D01*
X172831645Y-89655172D01*
X172460181Y-89726633D01*
X172119460Y-89938738D01*
X172005477Y-90049113D01*
X171859184Y-90300013D01*
X171792960Y-90619088D01*
X171810901Y-90949861D01*
G37*
X171810901Y-90949861D02*
X171917104Y-91235857D01*
X171919146Y-91239129D01*
X172049325Y-91416008D01*
X172201459Y-91546589D01*
X172399718Y-91638428D01*
X172668272Y-91699084D01*
X173031292Y-91736113D01*
X173512949Y-91757073D01*
X173581571Y-91758910D01*
X174616303Y-91785299D01*
X174731140Y-91563228D01*
X174808745Y-91402545D01*
X174845516Y-91305525D01*
X174845977Y-91301038D01*
X174778126Y-91284249D01*
X174595103Y-91270912D01*
X174327702Y-91262708D01*
X174111174Y-91260919D01*
X173760406Y-91260878D01*
X173540128Y-91244843D01*
X173435063Y-91188949D01*
X173429937Y-91069331D01*
X173509475Y-90862123D01*
X173655681Y-90549282D01*
X173777113Y-90319242D01*
X173882466Y-90200927D01*
X173997290Y-90166145D01*
X174002973Y-90166092D01*
X174200777Y-90223488D01*
X174307637Y-90393424D01*
X174323115Y-90653495D01*
X174320430Y-90840824D01*
X174374383Y-90939598D01*
X174503977Y-91001196D01*
X174669081Y-91036648D01*
X174762761Y-90985557D01*
X174776169Y-90966320D01*
X174830015Y-90785207D01*
X174837638Y-90531582D01*
X174801946Y-90270391D01*
X174736720Y-90085313D01*
X174519463Y-89829430D01*
X174217041Y-89683977D01*
X173980769Y-89655172D01*
X173767655Y-89677155D01*
X173593691Y-89756701D01*
X173439181Y-89914209D01*
X173284430Y-90170078D01*
X173109743Y-90544706D01*
X173099870Y-90567529D01*
X172943971Y-90904993D01*
X172816115Y-91113235D01*
X172701221Y-91202493D01*
X172584208Y-91183008D01*
X172449996Y-91065017D01*
X172419109Y-91029734D01*
X172299353Y-90793398D01*
X172304395Y-90548514D01*
X172421810Y-90335241D01*
X172639172Y-90193740D01*
X172681836Y-90180592D01*
X172888760Y-90052557D01*
X172988430Y-89890093D01*
X173087206Y-89655172D01*
X172831645Y-89655172D01*
X172460181Y-89726633D01*
X172119460Y-89938738D01*
X172005477Y-90049113D01*
X171859184Y-90300013D01*
X171792960Y-90619088D01*
X171810901Y-90949861D01*
G36*
X171804800Y-93414857D02*
G01*
X171927149Y-93746413D01*
X172143549Y-94015024D01*
X172295880Y-94120079D01*
X172575402Y-94234606D01*
X172777515Y-94232227D01*
X172913446Y-94112020D01*
X172936560Y-94067543D01*
X173008626Y-93875510D01*
X172990163Y-93777440D01*
X172869146Y-93744222D01*
X172802299Y-93742529D01*
X172556371Y-93681714D01*
X172384336Y-93523202D01*
X172301245Y-93302885D01*
X172322153Y-93056658D01*
X172430740Y-92856505D01*
X172492680Y-92788902D01*
X172567823Y-92740984D01*
X172681413Y-92708615D01*
X172858691Y-92687659D01*
X173124899Y-92673981D01*
X173505279Y-92663445D01*
X173625719Y-92660717D01*
X174037737Y-92650766D01*
X174327721Y-92639453D01*
X174519582Y-92622486D01*
X174637233Y-92595576D01*
X174704587Y-92554432D01*
X174745557Y-92494765D01*
X174763657Y-92456564D01*
X174825550Y-92294333D01*
X174845977Y-92198835D01*
X174777757Y-92167280D01*
X174571509Y-92148019D01*
X174224852Y-92140949D01*
X173735406Y-92145966D01*
X173659914Y-92147528D01*
X173213372Y-92158552D01*
X172887308Y-92171588D01*
X172656229Y-92190138D01*
X172494644Y-92217705D01*
X172377062Y-92257792D01*
X172277990Y-92313902D01*
X172235537Y-92343254D01*
X172047700Y-92511548D01*
X171901595Y-92699775D01*
X171888841Y-92722819D01*
X171788149Y-93060333D01*
X171804800Y-93414857D01*
G37*
X171804800Y-93414857D02*
X171927149Y-93746413D01*
X172143549Y-94015024D01*
X172295880Y-94120079D01*
X172575402Y-94234606D01*
X172777515Y-94232227D01*
X172913446Y-94112020D01*
X172936560Y-94067543D01*
X173008626Y-93875510D01*
X172990163Y-93777440D01*
X172869146Y-93744222D01*
X172802299Y-93742529D01*
X172556371Y-93681714D01*
X172384336Y-93523202D01*
X172301245Y-93302885D01*
X172322153Y-93056658D01*
X172430740Y-92856505D01*
X172492680Y-92788902D01*
X172567823Y-92740984D01*
X172681413Y-92708615D01*
X172858691Y-92687659D01*
X173124899Y-92673981D01*
X173505279Y-92663445D01*
X173625719Y-92660717D01*
X174037737Y-92650766D01*
X174327721Y-92639453D01*
X174519582Y-92622486D01*
X174637233Y-92595576D01*
X174704587Y-92554432D01*
X174745557Y-92494765D01*
X174763657Y-92456564D01*
X174825550Y-92294333D01*
X174845977Y-92198835D01*
X174777757Y-92167280D01*
X174571509Y-92148019D01*
X174224852Y-92140949D01*
X173735406Y-92145966D01*
X173659914Y-92147528D01*
X173213372Y-92158552D01*
X172887308Y-92171588D01*
X172656229Y-92190138D01*
X172494644Y-92217705D01*
X172377062Y-92257792D01*
X172277990Y-92313902D01*
X172235537Y-92343254D01*
X172047700Y-92511548D01*
X171901595Y-92699775D01*
X171888841Y-92722819D01*
X171788149Y-93060333D01*
X171804800Y-93414857D01*
G36*
X172386139Y-96734785D02*
G01*
X172931653Y-96733858D01*
X173351298Y-96730270D01*
X173665176Y-96722506D01*
X173893388Y-96709055D01*
X174056038Y-96688404D01*
X174173228Y-96659040D01*
X174265060Y-96619452D01*
X174317478Y-96589475D01*
X174601736Y-96341224D01*
X174779912Y-96026471D01*
X174843846Y-95678228D01*
X174785374Y-95329511D01*
X174680298Y-95121857D01*
X174498529Y-94903862D01*
X174276531Y-94755291D01*
X173985801Y-94665652D01*
X173597838Y-94624453D01*
X173313219Y-94618618D01*
X173292765Y-94619405D01*
X173292765Y-95129310D01*
X173619144Y-95132425D01*
X173835201Y-95146694D01*
X173976546Y-95179511D01*
X174078784Y-95238264D01*
X174155904Y-95308464D01*
X174304763Y-95544219D01*
X174317479Y-95797350D01*
X174193198Y-96036589D01*
X174176358Y-96055210D01*
X174088756Y-96134686D01*
X173984529Y-96184520D01*
X173829404Y-96211499D01*
X173589110Y-96222412D01*
X173323447Y-96224138D01*
X172989701Y-96220397D01*
X172767055Y-96204911D01*
X172620733Y-96171285D01*
X172515955Y-96113126D01*
X172460308Y-96065438D01*
X172319963Y-95843907D01*
X172303088Y-95588769D01*
X172410284Y-95345238D01*
X172450079Y-95298239D01*
X172538454Y-95218232D01*
X172643755Y-95168296D01*
X172800627Y-95141483D01*
X173043719Y-95130848D01*
X173292765Y-95129310D01*
X173292765Y-94619405D01*
X172854868Y-94636259D01*
X172510489Y-94696179D01*
X172251580Y-94808869D01*
X172049640Y-94984821D01*
X171946139Y-95121857D01*
X171834321Y-95370940D01*
X171782419Y-95659637D01*
X171796312Y-95927998D01*
X171852357Y-96078161D01*
X171868307Y-96137088D01*
X171808837Y-96176191D01*
X171649471Y-96203487D01*
X171406718Y-96224138D01*
X171136353Y-96246747D01*
X170973687Y-96278153D01*
X170880669Y-96335298D01*
X170819248Y-96435126D01*
X170792048Y-96497845D01*
X170692679Y-96735057D01*
X172386139Y-96734785D01*
G37*
X172386139Y-96734785D02*
X172931653Y-96733858D01*
X173351298Y-96730270D01*
X173665176Y-96722506D01*
X173893388Y-96709055D01*
X174056038Y-96688404D01*
X174173228Y-96659040D01*
X174265060Y-96619452D01*
X174317478Y-96589475D01*
X174601736Y-96341224D01*
X174779912Y-96026471D01*
X174843846Y-95678228D01*
X174785374Y-95329511D01*
X174680298Y-95121857D01*
X174498529Y-94903862D01*
X174276531Y-94755291D01*
X173985801Y-94665652D01*
X173597838Y-94624453D01*
X173313219Y-94618618D01*
X173292765Y-94619405D01*
X173292765Y-95129310D01*
X173619144Y-95132425D01*
X173835201Y-95146694D01*
X173976546Y-95179511D01*
X174078784Y-95238264D01*
X174155904Y-95308464D01*
X174304763Y-95544219D01*
X174317479Y-95797350D01*
X174193198Y-96036589D01*
X174176358Y-96055210D01*
X174088756Y-96134686D01*
X173984529Y-96184520D01*
X173829404Y-96211499D01*
X173589110Y-96222412D01*
X173323447Y-96224138D01*
X172989701Y-96220397D01*
X172767055Y-96204911D01*
X172620733Y-96171285D01*
X172515955Y-96113126D01*
X172460308Y-96065438D01*
X172319963Y-95843907D01*
X172303088Y-95588769D01*
X172410284Y-95345238D01*
X172450079Y-95298239D01*
X172538454Y-95218232D01*
X172643755Y-95168296D01*
X172800627Y-95141483D01*
X173043719Y-95130848D01*
X173292765Y-95129310D01*
X173292765Y-94619405D01*
X172854868Y-94636259D01*
X172510489Y-94696179D01*
X172251580Y-94808869D01*
X172049640Y-94984821D01*
X171946139Y-95121857D01*
X171834321Y-95370940D01*
X171782419Y-95659637D01*
X171796312Y-95927998D01*
X171852357Y-96078161D01*
X171868307Y-96137088D01*
X171808837Y-96176191D01*
X171649471Y-96203487D01*
X171406718Y-96224138D01*
X171136353Y-96246747D01*
X170973687Y-96278153D01*
X170880669Y-96335298D01*
X170819248Y-96435126D01*
X170792048Y-96497845D01*
X170692679Y-96735057D01*
X172386139Y-96734785D01*
G36*
X171849600Y-99700309D02*
G01*
X172041633Y-99711448D01*
X172333477Y-99720177D01*
X172702053Y-99725787D01*
X173088639Y-99727586D01*
X174396817Y-99727586D01*
X174627792Y-99496612D01*
X174770117Y-99337444D01*
X174827768Y-99197723D01*
X174824119Y-99006755D01*
X174814834Y-98930951D01*
X174787815Y-98694025D01*
X174772332Y-98498055D01*
X174770903Y-98450287D01*
X174780256Y-98289248D01*
X174803735Y-98058928D01*
X174814834Y-97969624D01*
X174832002Y-97750285D01*
X174794712Y-97602883D01*
X174679587Y-97456724D01*
X174627792Y-97403963D01*
X174396817Y-97172988D01*
X171949868Y-97172988D01*
X171865164Y-97358894D01*
X171802424Y-97518974D01*
X171780460Y-97612630D01*
X171849875Y-97636643D01*
X172043826Y-97659087D01*
X172340871Y-97678466D01*
X172719569Y-97693285D01*
X173039512Y-97700432D01*
X174298563Y-97720402D01*
X174323196Y-97894619D01*
X174305973Y-98053073D01*
X174250208Y-98130714D01*
X174145947Y-98152417D01*
X173923859Y-98170946D01*
X173612086Y-98184828D01*
X173238767Y-98192591D01*
X173046652Y-98193710D01*
X171940717Y-98194828D01*
X171860589Y-98424685D01*
X171806109Y-98587373D01*
X171780702Y-98675868D01*
X171780460Y-98678421D01*
X171849523Y-98687299D01*
X172041027Y-98697057D01*
X172331448Y-98706878D01*
X172697261Y-98715940D01*
X173039512Y-98722271D01*
X174298563Y-98742241D01*
X174298563Y-99180172D01*
X173149913Y-99200268D01*
X172001262Y-99220364D01*
X171890861Y-99433856D01*
X171815049Y-99591483D01*
X171780646Y-99684775D01*
X171780460Y-99687467D01*
X171849600Y-99700309D01*
G37*
X171849600Y-99700309D02*
X172041633Y-99711448D01*
X172333477Y-99720177D01*
X172702053Y-99725787D01*
X173088639Y-99727586D01*
X174396817Y-99727586D01*
X174627792Y-99496612D01*
X174770117Y-99337444D01*
X174827768Y-99197723D01*
X174824119Y-99006755D01*
X174814834Y-98930951D01*
X174787815Y-98694025D01*
X174772332Y-98498055D01*
X174770903Y-98450287D01*
X174780256Y-98289248D01*
X174803735Y-98058928D01*
X174814834Y-97969624D01*
X174832002Y-97750285D01*
X174794712Y-97602883D01*
X174679587Y-97456724D01*
X174627792Y-97403963D01*
X174396817Y-97172988D01*
X171949868Y-97172988D01*
X171865164Y-97358894D01*
X171802424Y-97518974D01*
X171780460Y-97612630D01*
X171849875Y-97636643D01*
X172043826Y-97659087D01*
X172340871Y-97678466D01*
X172719569Y-97693285D01*
X173039512Y-97700432D01*
X174298563Y-97720402D01*
X174323196Y-97894619D01*
X174305973Y-98053073D01*
X174250208Y-98130714D01*
X174145947Y-98152417D01*
X173923859Y-98170946D01*
X173612086Y-98184828D01*
X173238767Y-98192591D01*
X173046652Y-98193710D01*
X171940717Y-98194828D01*
X171860589Y-98424685D01*
X171806109Y-98587373D01*
X171780702Y-98675868D01*
X171780460Y-98678421D01*
X171849523Y-98687299D01*
X172041027Y-98697057D01*
X172331448Y-98706878D01*
X172697261Y-98715940D01*
X173039512Y-98722271D01*
X174298563Y-98742241D01*
X174298563Y-99180172D01*
X173149913Y-99200268D01*
X172001262Y-99220364D01*
X171890861Y-99433856D01*
X171815049Y-99591483D01*
X171780646Y-99684775D01*
X171780460Y-99687467D01*
X171849600Y-99700309D01*
G36*
X171837891Y-101536016D02*
G01*
X171933484Y-101746172D01*
X172049314Y-101911124D01*
X172178830Y-102031986D01*
X172345908Y-102115431D01*
X172574423Y-102168133D01*
X172888252Y-102196767D01*
X173311269Y-102208008D01*
X173589832Y-102209195D01*
X174676569Y-102209195D01*
X174761273Y-102023290D01*
X174823180Y-101876865D01*
X174845977Y-101804324D01*
X174778142Y-101790446D01*
X174595236Y-101779437D01*
X174328158Y-101772696D01*
X174116092Y-101771264D01*
X173809719Y-101765114D01*
X173566669Y-101748531D01*
X173417836Y-101724316D01*
X173386207Y-101705080D01*
X173418506Y-101575778D01*
X173501349Y-101372793D01*
X173613653Y-101137755D01*
X173734337Y-100912293D01*
X173842320Y-100738038D01*
X173916519Y-100656619D01*
X173917322Y-100656297D01*
X174054642Y-100663300D01*
X174185730Y-100726098D01*
X174292203Y-100836352D01*
X174327815Y-100997273D01*
X174323665Y-101134802D01*
X174320612Y-101329586D01*
X174366246Y-101431831D01*
X174486814Y-101493237D01*
X174509550Y-101500980D01*
X174681496Y-101527600D01*
X174785900Y-101456413D01*
X174835657Y-101270860D01*
X174844860Y-101070420D01*
X174776645Y-100709725D01*
X174679226Y-100523006D01*
X174450369Y-100292406D01*
X174169456Y-100170108D01*
X173872628Y-100159134D01*
X173596027Y-100262503D01*
X173422701Y-100417991D01*
X173325663Y-100573234D01*
X173202812Y-100817238D01*
X173078229Y-101101580D01*
X173059192Y-101148975D01*
X172921362Y-101461303D01*
X172799885Y-101641347D01*
X172679119Y-101699251D01*
X172543425Y-101645159D01*
X172437356Y-101552299D01*
X172306755Y-101332818D01*
X172296959Y-101091325D01*
X172397602Y-100869859D01*
X172598316Y-100710464D01*
X172650100Y-100689543D01*
X172840563Y-100567739D01*
X172981963Y-100389912D01*
X173098002Y-100165517D01*
X172768961Y-100165517D01*
X172567919Y-100178725D01*
X172409466Y-100235354D01*
X172240408Y-100360917D01*
X172110190Y-100481454D01*
X171925805Y-100668886D01*
X171826756Y-100814514D01*
X171787025Y-100970930D01*
X171780460Y-101147983D01*
X171837891Y-101536016D01*
G37*
X171837891Y-101536016D02*
X171933484Y-101746172D01*
X172049314Y-101911124D01*
X172178830Y-102031986D01*
X172345908Y-102115431D01*
X172574423Y-102168133D01*
X172888252Y-102196767D01*
X173311269Y-102208008D01*
X173589832Y-102209195D01*
X174676569Y-102209195D01*
X174761273Y-102023290D01*
X174823180Y-101876865D01*
X174845977Y-101804324D01*
X174778142Y-101790446D01*
X174595236Y-101779437D01*
X174328158Y-101772696D01*
X174116092Y-101771264D01*
X173809719Y-101765114D01*
X173566669Y-101748531D01*
X173417836Y-101724316D01*
X173386207Y-101705080D01*
X173418506Y-101575778D01*
X173501349Y-101372793D01*
X173613653Y-101137755D01*
X173734337Y-100912293D01*
X173842320Y-100738038D01*
X173916519Y-100656619D01*
X173917322Y-100656297D01*
X174054642Y-100663300D01*
X174185730Y-100726098D01*
X174292203Y-100836352D01*
X174327815Y-100997273D01*
X174323665Y-101134802D01*
X174320612Y-101329586D01*
X174366246Y-101431831D01*
X174486814Y-101493237D01*
X174509550Y-101500980D01*
X174681496Y-101527600D01*
X174785900Y-101456413D01*
X174835657Y-101270860D01*
X174844860Y-101070420D01*
X174776645Y-100709725D01*
X174679226Y-100523006D01*
X174450369Y-100292406D01*
X174169456Y-100170108D01*
X173872628Y-100159134D01*
X173596027Y-100262503D01*
X173422701Y-100417991D01*
X173325663Y-100573234D01*
X173202812Y-100817238D01*
X173078229Y-101101580D01*
X173059192Y-101148975D01*
X172921362Y-101461303D01*
X172799885Y-101641347D01*
X172679119Y-101699251D01*
X172543425Y-101645159D01*
X172437356Y-101552299D01*
X172306755Y-101332818D01*
X172296959Y-101091325D01*
X172397602Y-100869859D01*
X172598316Y-100710464D01*
X172650100Y-100689543D01*
X172840563Y-100567739D01*
X172981963Y-100389912D01*
X173098002Y-100165517D01*
X172768961Y-100165517D01*
X172567919Y-100178725D01*
X172409466Y-100235354D01*
X172240408Y-100360917D01*
X172110190Y-100481454D01*
X171925805Y-100668886D01*
X171826756Y-100814514D01*
X171787025Y-100970930D01*
X171780460Y-101147983D01*
X171837891Y-101536016D01*
G36*
X171850046Y-104089224D02*
G01*
X171888173Y-104176463D01*
X172053088Y-104384692D01*
X172291544Y-104562756D01*
X172546016Y-104672881D01*
X172671469Y-104690805D01*
X172846617Y-104630713D01*
X172939293Y-104498901D01*
X172995410Y-104357577D01*
X173005750Y-104292865D01*
X172930707Y-104261355D01*
X172767403Y-104199135D01*
X172693614Y-104171837D01*
X172438369Y-104018771D01*
X172311057Y-103797153D01*
X172314972Y-103512982D01*
X172319986Y-103491934D01*
X172391917Y-103340220D01*
X172532147Y-103228685D01*
X172757908Y-103152506D01*
X173086427Y-103106861D01*
X173534934Y-103086926D01*
X173773584Y-103085057D01*
X174149783Y-103084130D01*
X174406237Y-103078056D01*
X174569181Y-103061899D01*
X174664845Y-103030720D01*
X174719464Y-102979582D01*
X174759269Y-102903547D01*
X174761273Y-102899152D01*
X174823180Y-102752727D01*
X174845977Y-102680186D01*
X174777055Y-102669040D01*
X174586550Y-102659498D01*
X174298852Y-102652247D01*
X173938353Y-102647977D01*
X173674536Y-102647126D01*
X173164032Y-102651469D01*
X172776742Y-102668455D01*
X172490060Y-102704018D01*
X172281379Y-102764094D01*
X172128090Y-102854620D01*
X172007586Y-102981529D01*
X171923482Y-103106848D01*
X171811548Y-103408186D01*
X171786302Y-103758893D01*
X171850046Y-104089224D01*
G37*
X171850046Y-104089224D02*
X171888173Y-104176463D01*
X172053088Y-104384692D01*
X172291544Y-104562756D01*
X172546016Y-104672881D01*
X172671469Y-104690805D01*
X172846617Y-104630713D01*
X172939293Y-104498901D01*
X172995410Y-104357577D01*
X173005750Y-104292865D01*
X172930707Y-104261355D01*
X172767403Y-104199135D01*
X172693614Y-104171837D01*
X172438369Y-104018771D01*
X172311057Y-103797153D01*
X172314972Y-103512982D01*
X172319986Y-103491934D01*
X172391917Y-103340220D01*
X172532147Y-103228685D01*
X172757908Y-103152506D01*
X173086427Y-103106861D01*
X173534934Y-103086926D01*
X173773584Y-103085057D01*
X174149783Y-103084130D01*
X174406237Y-103078056D01*
X174569181Y-103061899D01*
X174664845Y-103030720D01*
X174719464Y-102979582D01*
X174759269Y-102903547D01*
X174761273Y-102899152D01*
X174823180Y-102752727D01*
X174845977Y-102680186D01*
X174777055Y-102669040D01*
X174586550Y-102659498D01*
X174298852Y-102652247D01*
X173938353Y-102647977D01*
X173674536Y-102647126D01*
X173164032Y-102651469D01*
X172776742Y-102668455D01*
X172490060Y-102704018D01*
X172281379Y-102764094D01*
X172128090Y-102854620D01*
X172007586Y-102981529D01*
X171923482Y-103106848D01*
X171811548Y-103408186D01*
X171786302Y-103758893D01*
X171850046Y-104089224D01*
G36*
X171891350Y-106608597D02*
G01*
X172080085Y-106897374D01*
X172249044Y-107036660D01*
X172555638Y-107147009D01*
X172798245Y-107155773D01*
X173122640Y-107135919D01*
X173450097Y-106387787D01*
X173617395Y-106024026D01*
X173751975Y-105786343D01*
X173868541Y-105662753D01*
X173981800Y-105641276D01*
X174106456Y-105709930D01*
X174189081Y-105785632D01*
X174321584Y-106005907D01*
X174330868Y-106245491D01*
X174227602Y-106465530D01*
X174022458Y-106627171D01*
X173950019Y-106656082D01*
X173723772Y-106794563D01*
X173627351Y-106953882D01*
X173544864Y-107172414D01*
X173857585Y-107172414D01*
X174070389Y-107153094D01*
X174249845Y-107077414D01*
X174455891Y-106918795D01*
X174482666Y-106895219D01*
X174665979Y-106718782D01*
X174764355Y-106567118D01*
X174809613Y-106377374D01*
X174824434Y-106220076D01*
X174828127Y-105938716D01*
X174781337Y-105738425D01*
X174711868Y-105613474D01*
X174559102Y-105417094D01*
X174393886Y-105281158D01*
X174186103Y-105195129D01*
X173905635Y-105148469D01*
X173522366Y-105130640D01*
X173327841Y-105129217D01*
X173094632Y-105134056D01*
X173094632Y-105574748D01*
X173219741Y-105579859D01*
X173240230Y-105592598D01*
X173212396Y-105676664D01*
X173138733Y-105857576D01*
X173034002Y-106099368D01*
X173011492Y-106149932D01*
X172856106Y-106455508D01*
X172719538Y-106623868D01*
X172591622Y-106660869D01*
X172462191Y-106572367D01*
X172405001Y-106499277D01*
X172290625Y-106235540D01*
X172309521Y-105988690D01*
X172449129Y-105782031D01*
X172696883Y-105638869D01*
X172893535Y-105592970D01*
X173094632Y-105574748D01*
X173094632Y-105134056D01*
X172873378Y-105138648D01*
X172537133Y-105173397D01*
X172292289Y-105242235D01*
X172112028Y-105353930D01*
X171969532Y-105517253D01*
X171923482Y-105588457D01*
X171803554Y-105911906D01*
X171796008Y-106266030D01*
X171891350Y-106608597D01*
G37*
X171891350Y-106608597D02*
X172080085Y-106897374D01*
X172249044Y-107036660D01*
X172555638Y-107147009D01*
X172798245Y-107155773D01*
X173122640Y-107135919D01*
X173450097Y-106387787D01*
X173617395Y-106024026D01*
X173751975Y-105786343D01*
X173868541Y-105662753D01*
X173981800Y-105641276D01*
X174106456Y-105709930D01*
X174189081Y-105785632D01*
X174321584Y-106005907D01*
X174330868Y-106245491D01*
X174227602Y-106465530D01*
X174022458Y-106627171D01*
X173950019Y-106656082D01*
X173723772Y-106794563D01*
X173627351Y-106953882D01*
X173544864Y-107172414D01*
X173857585Y-107172414D01*
X174070389Y-107153094D01*
X174249845Y-107077414D01*
X174455891Y-106918795D01*
X174482666Y-106895219D01*
X174665979Y-106718782D01*
X174764355Y-106567118D01*
X174809613Y-106377374D01*
X174824434Y-106220076D01*
X174828127Y-105938716D01*
X174781337Y-105738425D01*
X174711868Y-105613474D01*
X174559102Y-105417094D01*
X174393886Y-105281158D01*
X174186103Y-105195129D01*
X173905635Y-105148469D01*
X173522366Y-105130640D01*
X173327841Y-105129217D01*
X173094632Y-105134056D01*
X173094632Y-105574748D01*
X173219741Y-105579859D01*
X173240230Y-105592598D01*
X173212396Y-105676664D01*
X173138733Y-105857576D01*
X173034002Y-106099368D01*
X173011492Y-106149932D01*
X172856106Y-106455508D01*
X172719538Y-106623868D01*
X172591622Y-106660869D01*
X172462191Y-106572367D01*
X172405001Y-106499277D01*
X172290625Y-106235540D01*
X172309521Y-105988690D01*
X172449129Y-105782031D01*
X172696883Y-105638869D01*
X172893535Y-105592970D01*
X173094632Y-105574748D01*
X173094632Y-105134056D01*
X172873378Y-105138648D01*
X172537133Y-105173397D01*
X172292289Y-105242235D01*
X172112028Y-105353930D01*
X171969532Y-105517253D01*
X171923482Y-105588457D01*
X171803554Y-105911906D01*
X171796008Y-106266030D01*
X171891350Y-106608597D01*
G36*
X148132495Y-91272534D02*
G01*
X148134658Y-91667515D01*
X148140513Y-91953368D01*
X148151905Y-92148517D01*
X148170675Y-92271385D01*
X148198666Y-92340398D01*
X148237721Y-92373979D01*
X148289682Y-92390552D01*
X148296408Y-92392163D01*
X148417783Y-92417338D01*
X148657262Y-92463937D01*
X148989357Y-92527113D01*
X149388577Y-92602018D01*
X149829434Y-92683804D01*
X149844917Y-92686660D01*
X150276954Y-92768583D01*
X150658672Y-92845232D01*
X150967178Y-92911659D01*
X151179577Y-92962918D01*
X151272975Y-92994064D01*
X151274630Y-92995549D01*
X151320239Y-93087298D01*
X151396242Y-93276464D01*
X151486232Y-93522195D01*
X151486713Y-93523563D01*
X151603055Y-93833081D01*
X151751260Y-94197989D01*
X151900272Y-94541953D01*
X151907640Y-94558232D01*
X152161914Y-95118475D01*
X151314743Y-96359046D01*
X151056480Y-96739614D01*
X150825593Y-97084352D01*
X150635210Y-97373287D01*
X150498463Y-97586447D01*
X150428482Y-97703860D01*
X150423292Y-97715010D01*
X150446399Y-97800336D01*
X150557890Y-97959703D01*
X150763022Y-98199327D01*
X151067052Y-98525423D01*
X151390512Y-98858321D01*
X151709254Y-99179235D01*
X152000115Y-99466452D01*
X152245131Y-99702681D01*
X152426341Y-99870632D01*
X152525783Y-99953014D01*
X152530902Y-99956079D01*
X152599141Y-99965186D01*
X152710584Y-99930876D01*
X152880279Y-99844672D01*
X153123278Y-99698098D01*
X153454628Y-99482676D01*
X153881189Y-99195499D01*
X154256638Y-98940634D01*
X154593374Y-98712807D01*
X154871849Y-98525181D01*
X155072512Y-98390923D01*
X155175813Y-98323199D01*
X155182826Y-98318936D01*
X155281802Y-98327204D01*
X155474172Y-98389882D01*
X155723579Y-98494495D01*
X155803228Y-98531780D01*
X156158065Y-98694465D01*
X156560684Y-98868030D01*
X156909052Y-99009022D01*
X157167610Y-99110617D01*
X157364104Y-99191314D01*
X157466800Y-99237945D01*
X157474713Y-99243743D01*
X157487820Y-99329506D01*
X157523734Y-99531672D01*
X157577342Y-99823358D01*
X157643533Y-100177686D01*
X157717192Y-100567775D01*
X157793208Y-100966744D01*
X157866470Y-101347713D01*
X157931863Y-101683801D01*
X157984276Y-101948129D01*
X158018597Y-102113815D01*
X158028301Y-102154454D01*
X158052251Y-102196433D01*
X158106340Y-102228121D01*
X158208828Y-102250944D01*
X158377972Y-102266328D01*
X158632029Y-102275699D01*
X158989257Y-102280481D01*
X159467913Y-102282100D01*
X159664112Y-102282184D01*
X161259766Y-102282184D01*
X161335399Y-101898994D01*
X161376410Y-101685805D01*
X161436273Y-101367674D01*
X161507767Y-100983288D01*
X161583668Y-100571336D01*
X161604516Y-100457471D01*
X161678426Y-100077331D01*
X161751105Y-99746170D01*
X161815822Y-99491784D01*
X161865844Y-99341969D01*
X161880753Y-99317013D01*
X161986336Y-99255733D01*
X162190924Y-99167869D01*
X162454208Y-99070432D01*
X162510920Y-99051105D01*
X162862544Y-98923400D01*
X163259286Y-98764884D01*
X163615562Y-98609759D01*
X163617216Y-98608995D01*
X164176099Y-98350668D01*
X165425839Y-99200285D01*
X166675580Y-100049901D01*
X167768250Y-98959053D01*
X168093452Y-98629121D01*
X168380121Y-98328197D01*
X168612954Y-98073182D01*
X168776645Y-97880977D01*
X168855892Y-97768483D01*
X168860920Y-97752346D01*
X168821324Y-97657600D01*
X168711240Y-97464269D01*
X168543725Y-97193472D01*
X168331836Y-96866330D01*
X168094540Y-96512630D01*
X167852495Y-96153653D01*
X167641878Y-95833588D01*
X167475646Y-95572762D01*
X167366756Y-95391500D01*
X167328161Y-95310394D01*
X167360820Y-95211440D01*
X167446876Y-95023797D01*
X167568450Y-94786169D01*
X167581963Y-94760979D01*
X167742450Y-94440978D01*
X167821157Y-94221545D01*
X167821994Y-94085069D01*
X167748869Y-94013938D01*
X167747845Y-94013524D01*
X167661245Y-93977969D01*
X167455672Y-93893172D01*
X167147035Y-93765710D01*
X166751246Y-93602156D01*
X166284216Y-93409085D01*
X165761855Y-93193072D01*
X165256115Y-92983876D01*
X164697999Y-92753969D01*
X164180980Y-92542876D01*
X163720906Y-92356922D01*
X163333627Y-92202436D01*
X163034991Y-92085743D01*
X162840847Y-92013170D01*
X162768391Y-91990805D01*
X162685275Y-92046891D01*
X162552807Y-92193596D01*
X162406761Y-92389221D01*
X161944880Y-92946334D01*
X161415456Y-93381794D01*
X160829641Y-93690384D01*
X160198586Y-93866884D01*
X159533443Y-93906076D01*
X159226437Y-93877589D01*
X158589484Y-93722374D01*
X158027004Y-93455058D01*
X157544544Y-93092222D01*
X157147652Y-92650444D01*
X156841875Y-92146306D01*
X156632762Y-91596386D01*
X156525861Y-91017264D01*
X156526718Y-90425521D01*
X156640881Y-89837736D01*
X156873898Y-89270489D01*
X157231318Y-88740360D01*
X157433458Y-88519090D01*
X157952519Y-88094723D01*
X158519738Y-87799247D01*
X159118583Y-87630695D01*
X159732517Y-87587100D01*
X160345008Y-87666495D01*
X160939519Y-87866913D01*
X161499517Y-88186387D01*
X162008467Y-88622949D01*
X162406761Y-89110779D01*
X162559006Y-89313977D01*
X162690037Y-89457523D01*
X162768515Y-89509195D01*
X162854097Y-89482140D01*
X163058547Y-89405193D01*
X163366017Y-89284685D01*
X163760658Y-89126946D01*
X164226623Y-88938305D01*
X164748064Y-88725094D01*
X165256239Y-88515546D01*
X165814833Y-88284361D01*
X166332461Y-88070223D01*
X166793216Y-87879705D01*
X167181188Y-87719383D01*
X167480470Y-87595829D01*
X167675152Y-87515619D01*
X167747845Y-87485898D01*
X167821694Y-87415685D01*
X167821477Y-87279873D01*
X167743315Y-87060986D01*
X167583324Y-86741547D01*
X167581963Y-86739021D01*
X167457804Y-86498505D01*
X167367363Y-86304078D01*
X167328519Y-86194443D01*
X167328161Y-86189605D01*
X167367561Y-86107073D01*
X167477124Y-85924864D01*
X167643893Y-85663306D01*
X167854909Y-85342724D01*
X168094540Y-84987370D01*
X168337168Y-84625582D01*
X168548174Y-84299510D01*
X168714502Y-84030275D01*
X168823095Y-83838996D01*
X168860920Y-83747654D01*
X168811204Y-83663545D01*
X168672259Y-83494439D01*
X168459385Y-83257233D01*
X168187882Y-82968825D01*
X167873054Y-82646112D01*
X167767874Y-82540572D01*
X166674828Y-81449348D01*
X165455850Y-82279942D01*
X165081513Y-82532365D01*
X164745549Y-82753905D01*
X164467423Y-82932134D01*
X164266597Y-83054624D01*
X164162535Y-83108945D01*
X164155132Y-83110536D01*
X164057046Y-83081899D01*
X163859737Y-83004873D01*
X163596272Y-82892789D01*
X163419886Y-82814117D01*
X163082191Y-82667019D01*
X162741022Y-82528489D01*
X162452758Y-82421090D01*
X162364943Y-82391916D01*
X162130434Y-82309028D01*
X161949236Y-82228002D01*
X161880753Y-82183498D01*
X161838841Y-82085286D01*
X161779426Y-81870935D01*
X161709243Y-81568258D01*
X161635024Y-81205067D01*
X161604516Y-81042529D01*
X161528671Y-80629783D01*
X161455233Y-80233881D01*
X161391422Y-79893510D01*
X161344462Y-79647358D01*
X161335399Y-79601006D01*
X161259766Y-79217816D01*
X159664112Y-79217816D01*
X159139424Y-79218677D01*
X158742450Y-79222209D01*
X158454933Y-79229839D01*
X158258616Y-79242991D01*
X158135239Y-79263092D01*
X158066547Y-79291568D01*
X158034282Y-79329843D01*
X158028301Y-79345546D01*
X158007084Y-79440261D01*
X157964750Y-79649511D01*
X157906414Y-79946416D01*
X157837187Y-80304096D01*
X157762182Y-80695670D01*
X157686511Y-81094257D01*
X157615287Y-81472978D01*
X157553622Y-81804952D01*
X157506628Y-82063298D01*
X157479417Y-82221137D01*
X157474713Y-82256257D01*
X157411759Y-82288074D01*
X157244054Y-82358501D01*
X157003332Y-82454371D01*
X156909052Y-82490978D01*
X156544804Y-82638629D01*
X156142377Y-82812500D01*
X155803228Y-82968220D01*
X155543903Y-83082801D01*
X155330815Y-83159033D01*
X155200316Y-83184480D01*
X155182826Y-83180423D01*
X155100255Y-83126641D01*
X154916608Y-83003837D01*
X154651443Y-82825192D01*
X154324315Y-82603886D01*
X153954780Y-82353103D01*
X153881836Y-82303514D01*
X153449659Y-82012530D01*
X153120565Y-81798631D01*
X152879402Y-81653290D01*
X152711019Y-81567980D01*
X152600264Y-81534173D01*
X152531984Y-81543341D01*
X152531549Y-81543575D01*
X152441865Y-81615732D01*
X152268478Y-81775333D01*
X152029364Y-82005077D01*
X151742497Y-82287666D01*
X151425852Y-82605802D01*
X151390512Y-82641679D01*
X151002258Y-83042606D01*
X150717175Y-83352012D01*
X150530005Y-83576111D01*
X150435491Y-83721120D01*
X150423292Y-83784990D01*
X150476508Y-83878205D01*
X150599434Y-84071643D01*
X150778937Y-84345333D01*
X151001889Y-84679300D01*
X151255157Y-85053575D01*
X151314743Y-85140954D01*
X152161914Y-86381525D01*
X151907640Y-86941768D01*
X151759457Y-87282473D01*
X151610426Y-87648191D01*
X151491601Y-87962587D01*
X151486713Y-87976437D01*
X151396693Y-88222357D01*
X151320573Y-88411927D01*
X151274762Y-88504294D01*
X151274630Y-88504451D01*
X151191822Y-88533760D01*
X150988168Y-88583581D01*
X150686563Y-88648968D01*
X150309898Y-88724976D01*
X149881069Y-88806657D01*
X149844917Y-88813340D01*
X149403088Y-88895276D01*
X149002026Y-88970495D01*
X148667219Y-89034152D01*
X148424158Y-89081397D01*
X148298330Y-89107383D01*
X148296408Y-89107837D01*
X148242882Y-89123651D01*
X148202469Y-89154403D01*
X148173327Y-89218515D01*
X148153612Y-89334413D01*
X148141483Y-89520521D01*
X148135097Y-89795263D01*
X148132612Y-90177063D01*
X148132185Y-90684346D01*
X148132184Y-90750000D01*
X148132495Y-91272534D01*
G37*
X148132495Y-91272534D02*
X148134658Y-91667515D01*
X148140513Y-91953368D01*
X148151905Y-92148517D01*
X148170675Y-92271385D01*
X148198666Y-92340398D01*
X148237721Y-92373979D01*
X148289682Y-92390552D01*
X148296408Y-92392163D01*
X148417783Y-92417338D01*
X148657262Y-92463937D01*
X148989357Y-92527113D01*
X149388577Y-92602018D01*
X149829434Y-92683804D01*
X149844917Y-92686660D01*
X150276954Y-92768583D01*
X150658672Y-92845232D01*
X150967178Y-92911659D01*
X151179577Y-92962918D01*
X151272975Y-92994064D01*
X151274630Y-92995549D01*
X151320239Y-93087298D01*
X151396242Y-93276464D01*
X151486232Y-93522195D01*
X151486713Y-93523563D01*
X151603055Y-93833081D01*
X151751260Y-94197989D01*
X151900272Y-94541953D01*
X151907640Y-94558232D01*
X152161914Y-95118475D01*
X151314743Y-96359046D01*
X151056480Y-96739614D01*
X150825593Y-97084352D01*
X150635210Y-97373287D01*
X150498463Y-97586447D01*
X150428482Y-97703860D01*
X150423292Y-97715010D01*
X150446399Y-97800336D01*
X150557890Y-97959703D01*
X150763022Y-98199327D01*
X151067052Y-98525423D01*
X151390512Y-98858321D01*
X151709254Y-99179235D01*
X152000115Y-99466452D01*
X152245131Y-99702681D01*
X152426341Y-99870632D01*
X152525783Y-99953014D01*
X152530902Y-99956079D01*
X152599141Y-99965186D01*
X152710584Y-99930876D01*
X152880279Y-99844672D01*
X153123278Y-99698098D01*
X153454628Y-99482676D01*
X153881189Y-99195499D01*
X154256638Y-98940634D01*
X154593374Y-98712807D01*
X154871849Y-98525181D01*
X155072512Y-98390923D01*
X155175813Y-98323199D01*
X155182826Y-98318936D01*
X155281802Y-98327204D01*
X155474172Y-98389882D01*
X155723579Y-98494495D01*
X155803228Y-98531780D01*
X156158065Y-98694465D01*
X156560684Y-98868030D01*
X156909052Y-99009022D01*
X157167610Y-99110617D01*
X157364104Y-99191314D01*
X157466800Y-99237945D01*
X157474713Y-99243743D01*
X157487820Y-99329506D01*
X157523734Y-99531672D01*
X157577342Y-99823358D01*
X157643533Y-100177686D01*
X157717192Y-100567775D01*
X157793208Y-100966744D01*
X157866470Y-101347713D01*
X157931863Y-101683801D01*
X157984276Y-101948129D01*
X158018597Y-102113815D01*
X158028301Y-102154454D01*
X158052251Y-102196433D01*
X158106340Y-102228121D01*
X158208828Y-102250944D01*
X158377972Y-102266328D01*
X158632029Y-102275699D01*
X158989257Y-102280481D01*
X159467913Y-102282100D01*
X159664112Y-102282184D01*
X161259766Y-102282184D01*
X161335399Y-101898994D01*
X161376410Y-101685805D01*
X161436273Y-101367674D01*
X161507767Y-100983288D01*
X161583668Y-100571336D01*
X161604516Y-100457471D01*
X161678426Y-100077331D01*
X161751105Y-99746170D01*
X161815822Y-99491784D01*
X161865844Y-99341969D01*
X161880753Y-99317013D01*
X161986336Y-99255733D01*
X162190924Y-99167869D01*
X162454208Y-99070432D01*
X162510920Y-99051105D01*
X162862544Y-98923400D01*
X163259286Y-98764884D01*
X163615562Y-98609759D01*
X163617216Y-98608995D01*
X164176099Y-98350668D01*
X165425839Y-99200285D01*
X166675580Y-100049901D01*
X167768250Y-98959053D01*
X168093452Y-98629121D01*
X168380121Y-98328197D01*
X168612954Y-98073182D01*
X168776645Y-97880977D01*
X168855892Y-97768483D01*
X168860920Y-97752346D01*
X168821324Y-97657600D01*
X168711240Y-97464269D01*
X168543725Y-97193472D01*
X168331836Y-96866330D01*
X168094540Y-96512630D01*
X167852495Y-96153653D01*
X167641878Y-95833588D01*
X167475646Y-95572762D01*
X167366756Y-95391500D01*
X167328161Y-95310394D01*
X167360820Y-95211440D01*
X167446876Y-95023797D01*
X167568450Y-94786169D01*
X167581963Y-94760979D01*
X167742450Y-94440978D01*
X167821157Y-94221545D01*
X167821994Y-94085069D01*
X167748869Y-94013938D01*
X167747845Y-94013524D01*
X167661245Y-93977969D01*
X167455672Y-93893172D01*
X167147035Y-93765710D01*
X166751246Y-93602156D01*
X166284216Y-93409085D01*
X165761855Y-93193072D01*
X165256115Y-92983876D01*
X164697999Y-92753969D01*
X164180980Y-92542876D01*
X163720906Y-92356922D01*
X163333627Y-92202436D01*
X163034991Y-92085743D01*
X162840847Y-92013170D01*
X162768391Y-91990805D01*
X162685275Y-92046891D01*
X162552807Y-92193596D01*
X162406761Y-92389221D01*
X161944880Y-92946334D01*
X161415456Y-93381794D01*
X160829641Y-93690384D01*
X160198586Y-93866884D01*
X159533443Y-93906076D01*
X159226437Y-93877589D01*
X158589484Y-93722374D01*
X158027004Y-93455058D01*
X157544544Y-93092222D01*
X157147652Y-92650444D01*
X156841875Y-92146306D01*
X156632762Y-91596386D01*
X156525861Y-91017264D01*
X156526718Y-90425521D01*
X156640881Y-89837736D01*
X156873898Y-89270489D01*
X157231318Y-88740360D01*
X157433458Y-88519090D01*
X157952519Y-88094723D01*
X158519738Y-87799247D01*
X159118583Y-87630695D01*
X159732517Y-87587100D01*
X160345008Y-87666495D01*
X160939519Y-87866913D01*
X161499517Y-88186387D01*
X162008467Y-88622949D01*
X162406761Y-89110779D01*
X162559006Y-89313977D01*
X162690037Y-89457523D01*
X162768515Y-89509195D01*
X162854097Y-89482140D01*
X163058547Y-89405193D01*
X163366017Y-89284685D01*
X163760658Y-89126946D01*
X164226623Y-88938305D01*
X164748064Y-88725094D01*
X165256239Y-88515546D01*
X165814833Y-88284361D01*
X166332461Y-88070223D01*
X166793216Y-87879705D01*
X167181188Y-87719383D01*
X167480470Y-87595829D01*
X167675152Y-87515619D01*
X167747845Y-87485898D01*
X167821694Y-87415685D01*
X167821477Y-87279873D01*
X167743315Y-87060986D01*
X167583324Y-86741547D01*
X167581963Y-86739021D01*
X167457804Y-86498505D01*
X167367363Y-86304078D01*
X167328519Y-86194443D01*
X167328161Y-86189605D01*
X167367561Y-86107073D01*
X167477124Y-85924864D01*
X167643893Y-85663306D01*
X167854909Y-85342724D01*
X168094540Y-84987370D01*
X168337168Y-84625582D01*
X168548174Y-84299510D01*
X168714502Y-84030275D01*
X168823095Y-83838996D01*
X168860920Y-83747654D01*
X168811204Y-83663545D01*
X168672259Y-83494439D01*
X168459385Y-83257233D01*
X168187882Y-82968825D01*
X167873054Y-82646112D01*
X167767874Y-82540572D01*
X166674828Y-81449348D01*
X165455850Y-82279942D01*
X165081513Y-82532365D01*
X164745549Y-82753905D01*
X164467423Y-82932134D01*
X164266597Y-83054624D01*
X164162535Y-83108945D01*
X164155132Y-83110536D01*
X164057046Y-83081899D01*
X163859737Y-83004873D01*
X163596272Y-82892789D01*
X163419886Y-82814117D01*
X163082191Y-82667019D01*
X162741022Y-82528489D01*
X162452758Y-82421090D01*
X162364943Y-82391916D01*
X162130434Y-82309028D01*
X161949236Y-82228002D01*
X161880753Y-82183498D01*
X161838841Y-82085286D01*
X161779426Y-81870935D01*
X161709243Y-81568258D01*
X161635024Y-81205067D01*
X161604516Y-81042529D01*
X161528671Y-80629783D01*
X161455233Y-80233881D01*
X161391422Y-79893510D01*
X161344462Y-79647358D01*
X161335399Y-79601006D01*
X161259766Y-79217816D01*
X159664112Y-79217816D01*
X159139424Y-79218677D01*
X158742450Y-79222209D01*
X158454933Y-79229839D01*
X158258616Y-79242991D01*
X158135239Y-79263092D01*
X158066547Y-79291568D01*
X158034282Y-79329843D01*
X158028301Y-79345546D01*
X158007084Y-79440261D01*
X157964750Y-79649511D01*
X157906414Y-79946416D01*
X157837187Y-80304096D01*
X157762182Y-80695670D01*
X157686511Y-81094257D01*
X157615287Y-81472978D01*
X157553622Y-81804952D01*
X157506628Y-82063298D01*
X157479417Y-82221137D01*
X157474713Y-82256257D01*
X157411759Y-82288074D01*
X157244054Y-82358501D01*
X157003332Y-82454371D01*
X156909052Y-82490978D01*
X156544804Y-82638629D01*
X156142377Y-82812500D01*
X155803228Y-82968220D01*
X155543903Y-83082801D01*
X155330815Y-83159033D01*
X155200316Y-83184480D01*
X155182826Y-83180423D01*
X155100255Y-83126641D01*
X154916608Y-83003837D01*
X154651443Y-82825192D01*
X154324315Y-82603886D01*
X153954780Y-82353103D01*
X153881836Y-82303514D01*
X153449659Y-82012530D01*
X153120565Y-81798631D01*
X152879402Y-81653290D01*
X152711019Y-81567980D01*
X152600264Y-81534173D01*
X152531984Y-81543341D01*
X152531549Y-81543575D01*
X152441865Y-81615732D01*
X152268478Y-81775333D01*
X152029364Y-82005077D01*
X151742497Y-82287666D01*
X151425852Y-82605802D01*
X151390512Y-82641679D01*
X151002258Y-83042606D01*
X150717175Y-83352012D01*
X150530005Y-83576111D01*
X150435491Y-83721120D01*
X150423292Y-83784990D01*
X150476508Y-83878205D01*
X150599434Y-84071643D01*
X150778937Y-84345333D01*
X151001889Y-84679300D01*
X151255157Y-85053575D01*
X151314743Y-85140954D01*
X152161914Y-86381525D01*
X151907640Y-86941768D01*
X151759457Y-87282473D01*
X151610426Y-87648191D01*
X151491601Y-87962587D01*
X151486713Y-87976437D01*
X151396693Y-88222357D01*
X151320573Y-88411927D01*
X151274762Y-88504294D01*
X151274630Y-88504451D01*
X151191822Y-88533760D01*
X150988168Y-88583581D01*
X150686563Y-88648968D01*
X150309898Y-88724976D01*
X149881069Y-88806657D01*
X149844917Y-88813340D01*
X149403088Y-88895276D01*
X149002026Y-88970495D01*
X148667219Y-89034152D01*
X148424158Y-89081397D01*
X148298330Y-89107383D01*
X148296408Y-89107837D01*
X148242882Y-89123651D01*
X148202469Y-89154403D01*
X148173327Y-89218515D01*
X148153612Y-89334413D01*
X148141483Y-89520521D01*
X148135097Y-89795263D01*
X148132612Y-90177063D01*
X148132185Y-90684346D01*
X148132184Y-90750000D01*
X148132495Y-91272534D01*
G04 #@! TD*
M02*
